<?xml version="1.0" encoding="utf-8" standalone="no"?>
<!DOCTYPE svg PUBLIC "-//W3C//DTD SVG 1.1//EN"
  "http://www.w3.org/Graphics/SVG/1.1/DTD/svg11.dtd">
<svg xmlns:xlink="http://www.w3.org/1999/xlink" width="460.8pt" height="345.6pt" viewBox="0 0 460.8 345.6" xmlns="http://www.w3.org/2000/svg" version="1.1">
 <metadata>
  <rdf:RDF xmlns:dc="http://purl.org/dc/elements/1.1/" xmlns:cc="http://creativecommons.org/ns#" xmlns:rdf="http://www.w3.org/1999/02/22-rdf-syntax-ns#">
   <cc:Work>
    <dc:type rdf:resource="http://purl.org/dc/dcmitype/StillImage"/>
    <dc:date>2025-04-03T00:46:42.177637</dc:date>
    <dc:format>image/svg+xml</dc:format>
    <dc:creator>
     <cc:Agent>
      <dc:title>Matplotlib v3.10.1, https://matplotlib.org/</dc:title>
     </cc:Agent>
    </dc:creator>
   </cc:Work>
  </rdf:RDF>
 </metadata>
 <defs>
  <style type="text/css">*{stroke-linejoin: round; stroke-linecap: butt}</style>
 </defs>
 <g id="figure_1">
  <g id="patch_1">
   <path d="M 0 345.6 
L 460.8 345.6 
L 460.8 0 
L 0 0 
z
" style="fill: #ffffff"/>
  </g>
  <g id="axes_1">
   <g id="patch_2">
    <path d="M 57.6 307.584 
L 414.72 307.584 
L 414.72 41.472 
L 57.6 41.472 
z
" style="fill: #ffffff"/>
   </g>
   <g id="matplotlib.axis_1">
    <g id="xtick_1">
     <g id="line2d_1">
      <defs>
       <path id="m2cc674668b" d="M 0 0 
L 0 3.5 
" style="stroke: #000000; stroke-width: 0.8"/>
      </defs>
      <g>
       <use xlink:href="#m2cc674668b" x="85.347988" y="307.584" style="stroke: #000000; stroke-width: 0.8"/>
      </g>
     </g>
     <g id="text_1">
      <!-- −60 -->
      <g transform="translate(74.795644 322.182437) scale(0.1 -0.1)">
       <defs>
        <path id="DejaVuSans-2212" d="M 678 2272 
L 4684 2272 
L 4684 1741 
L 678 1741 
L 678 2272 
z
" transform="scale(0.015625)"/>
        <path id="DejaVuSans-36" d="M 2113 2584 
Q 1688 2584 1439 2293 
Q 1191 2003 1191 1497 
Q 1191 994 1439 701 
Q 1688 409 2113 409 
Q 2538 409 2786 701 
Q 3034 994 3034 1497 
Q 3034 2003 2786 2293 
Q 2538 2584 2113 2584 
z
M 3366 4563 
L 3366 3988 
Q 3128 4100 2886 4159 
Q 2644 4219 2406 4219 
Q 1781 4219 1451 3797 
Q 1122 3375 1075 2522 
Q 1259 2794 1537 2939 
Q 1816 3084 2150 3084 
Q 2853 3084 3261 2657 
Q 3669 2231 3669 1497 
Q 3669 778 3244 343 
Q 2819 -91 2113 -91 
Q 1303 -91 875 529 
Q 447 1150 447 2328 
Q 447 3434 972 4092 
Q 1497 4750 2381 4750 
Q 2619 4750 2861 4703 
Q 3103 4656 3366 4563 
z
" transform="scale(0.015625)"/>
        <path id="DejaVuSans-30" d="M 2034 4250 
Q 1547 4250 1301 3770 
Q 1056 3291 1056 2328 
Q 1056 1369 1301 889 
Q 1547 409 2034 409 
Q 2525 409 2770 889 
Q 3016 1369 3016 2328 
Q 3016 3291 2770 3770 
Q 2525 4250 2034 4250 
z
M 2034 4750 
Q 2819 4750 3233 4129 
Q 3647 3509 3647 2328 
Q 3647 1150 3233 529 
Q 2819 -91 2034 -91 
Q 1250 -91 836 529 
Q 422 1150 422 2328 
Q 422 3509 836 4129 
Q 1250 4750 2034 4750 
z
" transform="scale(0.015625)"/>
       </defs>
       <use xlink:href="#DejaVuSans-2212"/>
       <use xlink:href="#DejaVuSans-36" transform="translate(83.789062 0)"/>
       <use xlink:href="#DejaVuSans-30" transform="translate(147.412109 0)"/>
      </g>
     </g>
    </g>
    <g id="xtick_2">
     <g id="line2d_2">
      <g>
       <use xlink:href="#m2cc674668b" x="163.715614" y="307.584" style="stroke: #000000; stroke-width: 0.8"/>
      </g>
     </g>
     <g id="text_2">
      <!-- −40 -->
      <g transform="translate(153.163271 322.182437) scale(0.1 -0.1)">
       <defs>
        <path id="DejaVuSans-34" d="M 2419 4116 
L 825 1625 
L 2419 1625 
L 2419 4116 
z
M 2253 4666 
L 3047 4666 
L 3047 1625 
L 3713 1625 
L 3713 1100 
L 3047 1100 
L 3047 0 
L 2419 0 
L 2419 1100 
L 313 1100 
L 313 1709 
L 2253 4666 
z
" transform="scale(0.015625)"/>
       </defs>
       <use xlink:href="#DejaVuSans-2212"/>
       <use xlink:href="#DejaVuSans-34" transform="translate(83.789062 0)"/>
       <use xlink:href="#DejaVuSans-30" transform="translate(147.412109 0)"/>
      </g>
     </g>
    </g>
    <g id="xtick_3">
     <g id="line2d_3">
      <g>
       <use xlink:href="#m2cc674668b" x="242.083241" y="307.584" style="stroke: #000000; stroke-width: 0.8"/>
      </g>
     </g>
     <g id="text_3">
      <!-- −20 -->
      <g transform="translate(231.530897 322.182437) scale(0.1 -0.1)">
       <defs>
        <path id="DejaVuSans-32" d="M 1228 531 
L 3431 531 
L 3431 0 
L 469 0 
L 469 531 
Q 828 903 1448 1529 
Q 2069 2156 2228 2338 
Q 2531 2678 2651 2914 
Q 2772 3150 2772 3378 
Q 2772 3750 2511 3984 
Q 2250 4219 1831 4219 
Q 1534 4219 1204 4116 
Q 875 4013 500 3803 
L 500 4441 
Q 881 4594 1212 4672 
Q 1544 4750 1819 4750 
Q 2544 4750 2975 4387 
Q 3406 4025 3406 3419 
Q 3406 3131 3298 2873 
Q 3191 2616 2906 2266 
Q 2828 2175 2409 1742 
Q 1991 1309 1228 531 
z
" transform="scale(0.015625)"/>
       </defs>
       <use xlink:href="#DejaVuSans-2212"/>
       <use xlink:href="#DejaVuSans-32" transform="translate(83.789062 0)"/>
       <use xlink:href="#DejaVuSans-30" transform="translate(147.412109 0)"/>
      </g>
     </g>
    </g>
    <g id="xtick_4">
     <g id="line2d_4">
      <g>
       <use xlink:href="#m2cc674668b" x="320.450867" y="307.584" style="stroke: #000000; stroke-width: 0.8"/>
      </g>
     </g>
     <g id="text_4">
      <!-- 0 -->
      <g transform="translate(317.269617 322.182437) scale(0.1 -0.1)">
       <use xlink:href="#DejaVuSans-30"/>
      </g>
     </g>
    </g>
    <g id="xtick_5">
     <g id="line2d_5">
      <g>
       <use xlink:href="#m2cc674668b" x="398.818494" y="307.584" style="stroke: #000000; stroke-width: 0.8"/>
      </g>
     </g>
     <g id="text_5">
      <!-- 20 -->
      <g transform="translate(392.455994 322.182437) scale(0.1 -0.1)">
       <use xlink:href="#DejaVuSans-32"/>
       <use xlink:href="#DejaVuSans-30" transform="translate(63.623047 0)"/>
      </g>
     </g>
    </g>
    <g id="text_6">
     <!-- Position horizontale (en cm) -->
     <g transform="translate(166.1475 335.860562) scale(0.1 -0.1)">
      <defs>
       <path id="DejaVuSans-50" d="M 1259 4147 
L 1259 2394 
L 2053 2394 
Q 2494 2394 2734 2622 
Q 2975 2850 2975 3272 
Q 2975 3691 2734 3919 
Q 2494 4147 2053 4147 
L 1259 4147 
z
M 628 4666 
L 2053 4666 
Q 2838 4666 3239 4311 
Q 3641 3956 3641 3272 
Q 3641 2581 3239 2228 
Q 2838 1875 2053 1875 
L 1259 1875 
L 1259 0 
L 628 0 
L 628 4666 
z
" transform="scale(0.015625)"/>
       <path id="DejaVuSans-6f" d="M 1959 3097 
Q 1497 3097 1228 2736 
Q 959 2375 959 1747 
Q 959 1119 1226 758 
Q 1494 397 1959 397 
Q 2419 397 2687 759 
Q 2956 1122 2956 1747 
Q 2956 2369 2687 2733 
Q 2419 3097 1959 3097 
z
M 1959 3584 
Q 2709 3584 3137 3096 
Q 3566 2609 3566 1747 
Q 3566 888 3137 398 
Q 2709 -91 1959 -91 
Q 1206 -91 779 398 
Q 353 888 353 1747 
Q 353 2609 779 3096 
Q 1206 3584 1959 3584 
z
" transform="scale(0.015625)"/>
       <path id="DejaVuSans-73" d="M 2834 3397 
L 2834 2853 
Q 2591 2978 2328 3040 
Q 2066 3103 1784 3103 
Q 1356 3103 1142 2972 
Q 928 2841 928 2578 
Q 928 2378 1081 2264 
Q 1234 2150 1697 2047 
L 1894 2003 
Q 2506 1872 2764 1633 
Q 3022 1394 3022 966 
Q 3022 478 2636 193 
Q 2250 -91 1575 -91 
Q 1294 -91 989 -36 
Q 684 19 347 128 
L 347 722 
Q 666 556 975 473 
Q 1284 391 1588 391 
Q 1994 391 2212 530 
Q 2431 669 2431 922 
Q 2431 1156 2273 1281 
Q 2116 1406 1581 1522 
L 1381 1569 
Q 847 1681 609 1914 
Q 372 2147 372 2553 
Q 372 3047 722 3315 
Q 1072 3584 1716 3584 
Q 2034 3584 2315 3537 
Q 2597 3491 2834 3397 
z
" transform="scale(0.015625)"/>
       <path id="DejaVuSans-69" d="M 603 3500 
L 1178 3500 
L 1178 0 
L 603 0 
L 603 3500 
z
M 603 4863 
L 1178 4863 
L 1178 4134 
L 603 4134 
L 603 4863 
z
" transform="scale(0.015625)"/>
       <path id="DejaVuSans-74" d="M 1172 4494 
L 1172 3500 
L 2356 3500 
L 2356 3053 
L 1172 3053 
L 1172 1153 
Q 1172 725 1289 603 
Q 1406 481 1766 481 
L 2356 481 
L 2356 0 
L 1766 0 
Q 1100 0 847 248 
Q 594 497 594 1153 
L 594 3053 
L 172 3053 
L 172 3500 
L 594 3500 
L 594 4494 
L 1172 4494 
z
" transform="scale(0.015625)"/>
       <path id="DejaVuSans-6e" d="M 3513 2113 
L 3513 0 
L 2938 0 
L 2938 2094 
Q 2938 2591 2744 2837 
Q 2550 3084 2163 3084 
Q 1697 3084 1428 2787 
Q 1159 2491 1159 1978 
L 1159 0 
L 581 0 
L 581 3500 
L 1159 3500 
L 1159 2956 
Q 1366 3272 1645 3428 
Q 1925 3584 2291 3584 
Q 2894 3584 3203 3211 
Q 3513 2838 3513 2113 
z
" transform="scale(0.015625)"/>
       <path id="DejaVuSans-20" transform="scale(0.015625)"/>
       <path id="DejaVuSans-68" d="M 3513 2113 
L 3513 0 
L 2938 0 
L 2938 2094 
Q 2938 2591 2744 2837 
Q 2550 3084 2163 3084 
Q 1697 3084 1428 2787 
Q 1159 2491 1159 1978 
L 1159 0 
L 581 0 
L 581 4863 
L 1159 4863 
L 1159 2956 
Q 1366 3272 1645 3428 
Q 1925 3584 2291 3584 
Q 2894 3584 3203 3211 
Q 3513 2838 3513 2113 
z
" transform="scale(0.015625)"/>
       <path id="DejaVuSans-72" d="M 2631 2963 
Q 2534 3019 2420 3045 
Q 2306 3072 2169 3072 
Q 1681 3072 1420 2755 
Q 1159 2438 1159 1844 
L 1159 0 
L 581 0 
L 581 3500 
L 1159 3500 
L 1159 2956 
Q 1341 3275 1631 3429 
Q 1922 3584 2338 3584 
Q 2397 3584 2469 3576 
Q 2541 3569 2628 3553 
L 2631 2963 
z
" transform="scale(0.015625)"/>
       <path id="DejaVuSans-7a" d="M 353 3500 
L 3084 3500 
L 3084 2975 
L 922 459 
L 3084 459 
L 3084 0 
L 275 0 
L 275 525 
L 2438 3041 
L 353 3041 
L 353 3500 
z
" transform="scale(0.015625)"/>
       <path id="DejaVuSans-61" d="M 2194 1759 
Q 1497 1759 1228 1600 
Q 959 1441 959 1056 
Q 959 750 1161 570 
Q 1363 391 1709 391 
Q 2188 391 2477 730 
Q 2766 1069 2766 1631 
L 2766 1759 
L 2194 1759 
z
M 3341 1997 
L 3341 0 
L 2766 0 
L 2766 531 
Q 2569 213 2275 61 
Q 1981 -91 1556 -91 
Q 1019 -91 701 211 
Q 384 513 384 1019 
Q 384 1609 779 1909 
Q 1175 2209 1959 2209 
L 2766 2209 
L 2766 2266 
Q 2766 2663 2505 2880 
Q 2244 3097 1772 3097 
Q 1472 3097 1187 3025 
Q 903 2953 641 2809 
L 641 3341 
Q 956 3463 1253 3523 
Q 1550 3584 1831 3584 
Q 2591 3584 2966 3190 
Q 3341 2797 3341 1997 
z
" transform="scale(0.015625)"/>
       <path id="DejaVuSans-6c" d="M 603 4863 
L 1178 4863 
L 1178 0 
L 603 0 
L 603 4863 
z
" transform="scale(0.015625)"/>
       <path id="DejaVuSans-65" d="M 3597 1894 
L 3597 1613 
L 953 1613 
Q 991 1019 1311 708 
Q 1631 397 2203 397 
Q 2534 397 2845 478 
Q 3156 559 3463 722 
L 3463 178 
Q 3153 47 2828 -22 
Q 2503 -91 2169 -91 
Q 1331 -91 842 396 
Q 353 884 353 1716 
Q 353 2575 817 3079 
Q 1281 3584 2069 3584 
Q 2775 3584 3186 3129 
Q 3597 2675 3597 1894 
z
M 3022 2063 
Q 3016 2534 2758 2815 
Q 2500 3097 2075 3097 
Q 1594 3097 1305 2825 
Q 1016 2553 972 2059 
L 3022 2063 
z
" transform="scale(0.015625)"/>
       <path id="DejaVuSans-28" d="M 1984 4856 
Q 1566 4138 1362 3434 
Q 1159 2731 1159 2009 
Q 1159 1288 1364 580 
Q 1569 -128 1984 -844 
L 1484 -844 
Q 1016 -109 783 600 
Q 550 1309 550 2009 
Q 550 2706 781 3412 
Q 1013 4119 1484 4856 
L 1984 4856 
z
" transform="scale(0.015625)"/>
       <path id="DejaVuSans-63" d="M 3122 3366 
L 3122 2828 
Q 2878 2963 2633 3030 
Q 2388 3097 2138 3097 
Q 1578 3097 1268 2742 
Q 959 2388 959 1747 
Q 959 1106 1268 751 
Q 1578 397 2138 397 
Q 2388 397 2633 464 
Q 2878 531 3122 666 
L 3122 134 
Q 2881 22 2623 -34 
Q 2366 -91 2075 -91 
Q 1284 -91 818 406 
Q 353 903 353 1747 
Q 353 2603 823 3093 
Q 1294 3584 2113 3584 
Q 2378 3584 2631 3529 
Q 2884 3475 3122 3366 
z
" transform="scale(0.015625)"/>
       <path id="DejaVuSans-6d" d="M 3328 2828 
Q 3544 3216 3844 3400 
Q 4144 3584 4550 3584 
Q 5097 3584 5394 3201 
Q 5691 2819 5691 2113 
L 5691 0 
L 5113 0 
L 5113 2094 
Q 5113 2597 4934 2840 
Q 4756 3084 4391 3084 
Q 3944 3084 3684 2787 
Q 3425 2491 3425 1978 
L 3425 0 
L 2847 0 
L 2847 2094 
Q 2847 2600 2669 2842 
Q 2491 3084 2119 3084 
Q 1678 3084 1418 2786 
Q 1159 2488 1159 1978 
L 1159 0 
L 581 0 
L 581 3500 
L 1159 3500 
L 1159 2956 
Q 1356 3278 1631 3431 
Q 1906 3584 2284 3584 
Q 2666 3584 2933 3390 
Q 3200 3197 3328 2828 
z
" transform="scale(0.015625)"/>
       <path id="DejaVuSans-29" d="M 513 4856 
L 1013 4856 
Q 1481 4119 1714 3412 
Q 1947 2706 1947 2009 
Q 1947 1309 1714 600 
Q 1481 -109 1013 -844 
L 513 -844 
Q 928 -128 1133 580 
Q 1338 1288 1338 2009 
Q 1338 2731 1133 3434 
Q 928 4138 513 4856 
z
" transform="scale(0.015625)"/>
      </defs>
      <use xlink:href="#DejaVuSans-50"/>
      <use xlink:href="#DejaVuSans-6f" transform="translate(56.677734 0)"/>
      <use xlink:href="#DejaVuSans-73" transform="translate(117.859375 0)"/>
      <use xlink:href="#DejaVuSans-69" transform="translate(169.958984 0)"/>
      <use xlink:href="#DejaVuSans-74" transform="translate(197.742188 0)"/>
      <use xlink:href="#DejaVuSans-69" transform="translate(236.951172 0)"/>
      <use xlink:href="#DejaVuSans-6f" transform="translate(264.734375 0)"/>
      <use xlink:href="#DejaVuSans-6e" transform="translate(325.916016 0)"/>
      <use xlink:href="#DejaVuSans-20" transform="translate(389.294922 0)"/>
      <use xlink:href="#DejaVuSans-68" transform="translate(421.082031 0)"/>
      <use xlink:href="#DejaVuSans-6f" transform="translate(484.460938 0)"/>
      <use xlink:href="#DejaVuSans-72" transform="translate(545.642578 0)"/>
      <use xlink:href="#DejaVuSans-69" transform="translate(586.755859 0)"/>
      <use xlink:href="#DejaVuSans-7a" transform="translate(614.539062 0)"/>
      <use xlink:href="#DejaVuSans-6f" transform="translate(667.029297 0)"/>
      <use xlink:href="#DejaVuSans-6e" transform="translate(728.210938 0)"/>
      <use xlink:href="#DejaVuSans-74" transform="translate(791.589844 0)"/>
      <use xlink:href="#DejaVuSans-61" transform="translate(830.798828 0)"/>
      <use xlink:href="#DejaVuSans-6c" transform="translate(892.078125 0)"/>
      <use xlink:href="#DejaVuSans-65" transform="translate(919.861328 0)"/>
      <use xlink:href="#DejaVuSans-20" transform="translate(981.384766 0)"/>
      <use xlink:href="#DejaVuSans-28" transform="translate(1013.171875 0)"/>
      <use xlink:href="#DejaVuSans-65" transform="translate(1052.185547 0)"/>
      <use xlink:href="#DejaVuSans-6e" transform="translate(1113.708984 0)"/>
      <use xlink:href="#DejaVuSans-20" transform="translate(1177.087891 0)"/>
      <use xlink:href="#DejaVuSans-63" transform="translate(1208.875 0)"/>
      <use xlink:href="#DejaVuSans-6d" transform="translate(1263.855469 0)"/>
      <use xlink:href="#DejaVuSans-29" transform="translate(1361.267578 0)"/>
     </g>
    </g>
   </g>
   <g id="matplotlib.axis_2">
    <g id="ytick_1">
     <g id="line2d_6">
      <defs>
       <path id="m34dc9f6455" d="M 0 0 
L -3.5 0 
" style="stroke: #000000; stroke-width: 0.8"/>
      </defs>
      <g>
       <use xlink:href="#m34dc9f6455" x="57.6" y="294.349058" style="stroke: #000000; stroke-width: 0.8"/>
      </g>
     </g>
     <g id="text_7">
      <!-- 100 -->
      <g transform="translate(31.5125 298.148276) scale(0.1 -0.1)">
       <defs>
        <path id="DejaVuSans-31" d="M 794 531 
L 1825 531 
L 1825 4091 
L 703 3866 
L 703 4441 
L 1819 4666 
L 2450 4666 
L 2450 531 
L 3481 531 
L 3481 0 
L 794 0 
L 794 531 
z
" transform="scale(0.015625)"/>
       </defs>
       <use xlink:href="#DejaVuSans-31"/>
       <use xlink:href="#DejaVuSans-30" transform="translate(63.623047 0)"/>
       <use xlink:href="#DejaVuSans-30" transform="translate(127.246094 0)"/>
      </g>
     </g>
    </g>
    <g id="ytick_2">
     <g id="line2d_7">
      <g>
       <use xlink:href="#m34dc9f6455" x="57.6" y="264.478449" style="stroke: #000000; stroke-width: 0.8"/>
      </g>
     </g>
     <g id="text_8">
      <!-- 150 -->
      <g transform="translate(31.5125 268.277668) scale(0.1 -0.1)">
       <defs>
        <path id="DejaVuSans-35" d="M 691 4666 
L 3169 4666 
L 3169 4134 
L 1269 4134 
L 1269 2991 
Q 1406 3038 1543 3061 
Q 1681 3084 1819 3084 
Q 2600 3084 3056 2656 
Q 3513 2228 3513 1497 
Q 3513 744 3044 326 
Q 2575 -91 1722 -91 
Q 1428 -91 1123 -41 
Q 819 9 494 109 
L 494 744 
Q 775 591 1075 516 
Q 1375 441 1709 441 
Q 2250 441 2565 725 
Q 2881 1009 2881 1497 
Q 2881 1984 2565 2268 
Q 2250 2553 1709 2553 
Q 1456 2553 1204 2497 
Q 953 2441 691 2322 
L 691 4666 
z
" transform="scale(0.015625)"/>
       </defs>
       <use xlink:href="#DejaVuSans-31"/>
       <use xlink:href="#DejaVuSans-35" transform="translate(63.623047 0)"/>
       <use xlink:href="#DejaVuSans-30" transform="translate(127.246094 0)"/>
      </g>
     </g>
    </g>
    <g id="ytick_3">
     <g id="line2d_8">
      <g>
       <use xlink:href="#m34dc9f6455" x="57.6" y="234.607841" style="stroke: #000000; stroke-width: 0.8"/>
      </g>
     </g>
     <g id="text_9">
      <!-- 200 -->
      <g transform="translate(31.5125 238.40706) scale(0.1 -0.1)">
       <use xlink:href="#DejaVuSans-32"/>
       <use xlink:href="#DejaVuSans-30" transform="translate(63.623047 0)"/>
       <use xlink:href="#DejaVuSans-30" transform="translate(127.246094 0)"/>
      </g>
     </g>
    </g>
    <g id="ytick_4">
     <g id="line2d_9">
      <g>
       <use xlink:href="#m34dc9f6455" x="57.6" y="204.737233" style="stroke: #000000; stroke-width: 0.8"/>
      </g>
     </g>
     <g id="text_10">
      <!-- 250 -->
      <g transform="translate(31.5125 208.536452) scale(0.1 -0.1)">
       <use xlink:href="#DejaVuSans-32"/>
       <use xlink:href="#DejaVuSans-35" transform="translate(63.623047 0)"/>
       <use xlink:href="#DejaVuSans-30" transform="translate(127.246094 0)"/>
      </g>
     </g>
    </g>
    <g id="ytick_5">
     <g id="line2d_10">
      <g>
       <use xlink:href="#m34dc9f6455" x="57.6" y="174.866625" style="stroke: #000000; stroke-width: 0.8"/>
      </g>
     </g>
     <g id="text_11">
      <!-- 300 -->
      <g transform="translate(31.5125 178.665844) scale(0.1 -0.1)">
       <defs>
        <path id="DejaVuSans-33" d="M 2597 2516 
Q 3050 2419 3304 2112 
Q 3559 1806 3559 1356 
Q 3559 666 3084 287 
Q 2609 -91 1734 -91 
Q 1441 -91 1130 -33 
Q 819 25 488 141 
L 488 750 
Q 750 597 1062 519 
Q 1375 441 1716 441 
Q 2309 441 2620 675 
Q 2931 909 2931 1356 
Q 2931 1769 2642 2001 
Q 2353 2234 1838 2234 
L 1294 2234 
L 1294 2753 
L 1863 2753 
Q 2328 2753 2575 2939 
Q 2822 3125 2822 3475 
Q 2822 3834 2567 4026 
Q 2313 4219 1838 4219 
Q 1578 4219 1281 4162 
Q 984 4106 628 3988 
L 628 4550 
Q 988 4650 1302 4700 
Q 1616 4750 1894 4750 
Q 2613 4750 3031 4423 
Q 3450 4097 3450 3541 
Q 3450 3153 3228 2886 
Q 3006 2619 2597 2516 
z
" transform="scale(0.015625)"/>
       </defs>
       <use xlink:href="#DejaVuSans-33"/>
       <use xlink:href="#DejaVuSans-30" transform="translate(63.623047 0)"/>
       <use xlink:href="#DejaVuSans-30" transform="translate(127.246094 0)"/>
      </g>
     </g>
    </g>
    <g id="ytick_6">
     <g id="line2d_11">
      <g>
       <use xlink:href="#m34dc9f6455" x="57.6" y="144.996017" style="stroke: #000000; stroke-width: 0.8"/>
      </g>
     </g>
     <g id="text_12">
      <!-- 350 -->
      <g transform="translate(31.5125 148.795236) scale(0.1 -0.1)">
       <use xlink:href="#DejaVuSans-33"/>
       <use xlink:href="#DejaVuSans-35" transform="translate(63.623047 0)"/>
       <use xlink:href="#DejaVuSans-30" transform="translate(127.246094 0)"/>
      </g>
     </g>
    </g>
    <g id="ytick_7">
     <g id="line2d_12">
      <g>
       <use xlink:href="#m34dc9f6455" x="57.6" y="115.125409" style="stroke: #000000; stroke-width: 0.8"/>
      </g>
     </g>
     <g id="text_13">
      <!-- 400 -->
      <g transform="translate(31.5125 118.924628) scale(0.1 -0.1)">
       <use xlink:href="#DejaVuSans-34"/>
       <use xlink:href="#DejaVuSans-30" transform="translate(63.623047 0)"/>
       <use xlink:href="#DejaVuSans-30" transform="translate(127.246094 0)"/>
      </g>
     </g>
    </g>
    <g id="ytick_8">
     <g id="line2d_13">
      <g>
       <use xlink:href="#m34dc9f6455" x="57.6" y="85.254801" style="stroke: #000000; stroke-width: 0.8"/>
      </g>
     </g>
     <g id="text_14">
      <!-- 450 -->
      <g transform="translate(31.5125 89.05402) scale(0.1 -0.1)">
       <use xlink:href="#DejaVuSans-34"/>
       <use xlink:href="#DejaVuSans-35" transform="translate(63.623047 0)"/>
       <use xlink:href="#DejaVuSans-30" transform="translate(127.246094 0)"/>
      </g>
     </g>
    </g>
    <g id="ytick_9">
     <g id="line2d_14">
      <g>
       <use xlink:href="#m34dc9f6455" x="57.6" y="55.384193" style="stroke: #000000; stroke-width: 0.8"/>
      </g>
     </g>
     <g id="text_15">
      <!-- 500 -->
      <g transform="translate(31.5125 59.183411) scale(0.1 -0.1)">
       <use xlink:href="#DejaVuSans-35"/>
       <use xlink:href="#DejaVuSans-30" transform="translate(63.623047 0)"/>
       <use xlink:href="#DejaVuSans-30" transform="translate(127.246094 0)"/>
      </g>
     </g>
    </g>
    <g id="text_16">
     <!-- Position verticale (en cm) -->
     <g transform="translate(25.432812 238.245187) rotate(-90) scale(0.1 -0.1)">
      <defs>
       <path id="DejaVuSans-76" d="M 191 3500 
L 800 3500 
L 1894 563 
L 2988 3500 
L 3597 3500 
L 2284 0 
L 1503 0 
L 191 3500 
z
" transform="scale(0.015625)"/>
      </defs>
      <use xlink:href="#DejaVuSans-50"/>
      <use xlink:href="#DejaVuSans-6f" transform="translate(56.677734 0)"/>
      <use xlink:href="#DejaVuSans-73" transform="translate(117.859375 0)"/>
      <use xlink:href="#DejaVuSans-69" transform="translate(169.958984 0)"/>
      <use xlink:href="#DejaVuSans-74" transform="translate(197.742188 0)"/>
      <use xlink:href="#DejaVuSans-69" transform="translate(236.951172 0)"/>
      <use xlink:href="#DejaVuSans-6f" transform="translate(264.734375 0)"/>
      <use xlink:href="#DejaVuSans-6e" transform="translate(325.916016 0)"/>
      <use xlink:href="#DejaVuSans-20" transform="translate(389.294922 0)"/>
      <use xlink:href="#DejaVuSans-76" transform="translate(421.082031 0)"/>
      <use xlink:href="#DejaVuSans-65" transform="translate(480.261719 0)"/>
      <use xlink:href="#DejaVuSans-72" transform="translate(541.785156 0)"/>
      <use xlink:href="#DejaVuSans-74" transform="translate(582.898438 0)"/>
      <use xlink:href="#DejaVuSans-69" transform="translate(622.107422 0)"/>
      <use xlink:href="#DejaVuSans-63" transform="translate(649.890625 0)"/>
      <use xlink:href="#DejaVuSans-61" transform="translate(704.871094 0)"/>
      <use xlink:href="#DejaVuSans-6c" transform="translate(766.150391 0)"/>
      <use xlink:href="#DejaVuSans-65" transform="translate(793.933594 0)"/>
      <use xlink:href="#DejaVuSans-20" transform="translate(855.457031 0)"/>
      <use xlink:href="#DejaVuSans-28" transform="translate(887.244141 0)"/>
      <use xlink:href="#DejaVuSans-65" transform="translate(926.257812 0)"/>
      <use xlink:href="#DejaVuSans-6e" transform="translate(987.78125 0)"/>
      <use xlink:href="#DejaVuSans-20" transform="translate(1051.160156 0)"/>
      <use xlink:href="#DejaVuSans-63" transform="translate(1082.947266 0)"/>
      <use xlink:href="#DejaVuSans-6d" transform="translate(1137.927734 0)"/>
      <use xlink:href="#DejaVuSans-29" transform="translate(1235.339844 0)"/>
     </g>
    </g>
   </g>
   <g id="line2d_15">
    <path d="M 333.774845 294.497544 
L 291.506913 294.459686 
L 288.278758 293.966594 
L 285.029409 293.970358 
L 281.753811 294.455475 
L 272.060268 294.450367 
L 271.999259 294.942748 
L 265.469512 294.928153 
L 262.252717 294.434577 
L 252.469224 294.470464 
L 255.695854 294.479616 
L 255.650048 294.971896 
L 255.622424 294.476259 
L 252.373106 294.479043 
L 252.295757 294.972947 
L 249.066345 294.97002 
L 249.093303 294.976896 
L 249.056588 295.469827 
L 248.952202 295.462036 
L 248.921051 295.461756 
L 255.695815 295.4788 
L 255.812661 294.995326 
L 262.252952 295.052433 
L 262.20648 295.045138 
L 262.252834 294.559066 
L 262.305262 294.565154 
L 265.592549 294.55731 
L 268.853387 294.067617 
L 268.926347 293.584131 
L 272.171041 293.587536 
L 272.243531 293.101243 
L 278.719714 293.101183 
L 278.753687 292.61471 
L 278.801491 292.621401 
L 288.585665 292.649301 
L 282.042603 292.638846 
L 282.05638 292.152791 
L 282.066486 292.159064 
L 285.318727 292.151298 
L 285.406111 291.657477 
L 288.624054 291.650308 
L 288.547132 291.156666 
L 285.350626 291.152783 
L 285.385045 291.167121 
L 285.278242 291.656163 
L 282.057047 291.651383 
L 282.078888 291.632505 
L 282.081764 291.144001 
L 282.051251 291.148123 
L 275.600173 291.122614 
L 275.644294 291.112697 
L 275.85432 290.14471 
L 279.064689 290.145068 
L 279.113864 289.153065 
L 282.364205 288.652912 
L 282.449096 287.649678 
L 285.730749 286.670459 
L 285.782683 286.178431 
L 289.056392 285.685685 
L 289.114561 285.184516 
L 292.375559 284.685976 
L 292.692772 280.709899 
L 292.783674 279.723094 
L 292.808231 279.726499 
L 296.026366 279.734624 
L 296.008839 279.764255 
L 299.190506 280.255448 
L 295.98355 279.763479 
L 295.964628 280.252938 
L 295.93131 280.249832 
L 292.6728 280.248279 
L 289.410152 280.73272 
L 273.13943 280.712169 
L 253.664683 279.186797 
L 243.955796 278.186251 
L 237.446228 277.687113 
L 230.912602 277.670385 
L 217.990368 276.663507 
L 214.780156 276.169328 
L 211.542671 276.158156 
L 211.533894 275.655314 
L 208.303737 275.150979 
L 208.304521 274.653454 
L 205.095132 274.14876 
L 205.148422 273.649742 
L 208.429243 273.17689 
L 211.649878 273.6639 
L 218.155057 273.663482 
L 218.228841 273.169781 
L 221.484271 272.676796 
L 218.308305 271.686645 
L 218.46555 268.717089 
L 215.164314 268.213709 
L 211.99403 267.723772 
L 212.025847 267.76105 
L 211.967424 268.248299 
L 211.929847 268.23898 
L 208.715285 268.224881 
L 208.862459 267.7218 
L 209.134473 267.69874 
L 212.393391 267.703818 
L 212.406479 268.192441 
L 215.670725 268.202777 
L 218.890302 268.703647 
L 218.896258 269.19233 
L 222.149769 269.182951 
L 222.193263 268.691101 
L 231.95207 268.715774 
L 231.94678 268.729694 
L 231.961082 269.220229 
L 235.198723 269.229609 
L 235.223997 269.715365 
L 241.75296 269.733227 
L 244.962938 270.224061 
L 254.711635 270.244731 
L 257.901276 270.733534 
L 257.901589 270.727261 
L 267.64151 270.728994 
L 267.640256 271.21702 
L 277.384683 271.238885 
L 280.604142 271.729121 
L 290.267721 271.728225 
L 293.596946 270.74136 
L 303.397198 269.265394 
L 310.015085 267.781004 
L 336.168251 264.822798 
L 345.987346 263.353104 
L 355.773288 262.373468 
L 382.057421 258.439329 
L 388.588227 257.944612 
L 391.894479 256.956194 
L 395.165073 256.455264 
L 395.221459 255.466965 
L 398.480337 254.97876 
L 398.487273 254.486791 
L 398.458159 254.490674 
L 395.17244 254.975414 
L 391.924023 254.972786 
L 391.867481 255.467264 
L 385.2875 256.441105 
L 382.035439 256.44003 
L 378.766216 256.926682 
L 375.498874 256.926742 
L 372.207277 257.412139 
L 365.676472 257.385494 
L 365.670006 256.894661 
L 362.426135 256.887372 
L 362.447138 256.395463 
L 349.461034 256.37312 
L 346.199052 256.865686 
L 346.152427 257.356878 
L 336.395944 257.348873 
L 336.406465 257.341346 
L 336.476287 256.34534 
L 339.741364 255.850504 
L 339.781688 255.348677 
L 343.080953 254.363007 
L 346.332775 253.867095 
L 346.39128 252.876705 
L 349.668505 252.37936 
L 352.960431 251.391539 
L 352.989964 250.890967 
L 356.285287 249.904699 
L 356.314659 249.409146 
L 343.321781 248.896447 
L 343.3447 248.398862 
L 340.119284 247.896976 
L 343.396614 247.403394 
L 343.425034 246.905093 
L 346.67666 245.928204 
L 346.647828 245.919064 
L 346.672655 245.421121 
L 349.916856 244.93423 
L 349.888228 244.926942 
L 349.923587 243.944258 
L 353.138592 243.94378 
L 353.153086 243.457308 
L 353.171334 243.461729 
L 369.25368 243.419611 
L 369.250545 243.428632 
L 369.231541 243.915583 
L 375.72328 243.910027 
L 375.700749 244.400741 
L 378.94944 244.398172 
L 382.229007 243.916538 
L 385.480598 243.921079 
L 388.759499 243.436159 
L 388.788025 242.935349 
L 392.047256 242.942159 
L 392.079152 242.440034 
L 395.306448 242.445829 
L 388.816277 242.426712 
L 388.808949 241.936237 
L 382.27403 242.41572 
L 378.99266 242.409447 
L 365.914239 243.377852 
L 359.421199 243.375522 
L 356.145252 243.867431 
L 343.130376 243.874779 
L 343.143346 243.38514 
L 336.574516 244.362088 
L 333.340649 244.350857 
L 333.317421 244.842886 
L 326.878968 244.843782 
L 330.115386 245.334616 
L 330.115088 245.332644 
L 323.576673 245.334138 
L 323.516409 245.825868 
L 310.608634 245.806093 
L 310.600632 246.293761 
L 310.570073 246.287249 
L 304.035851 246.257677 
L 300.823002 245.764394 
L 297.610113 245.762363 
L 297.610215 245.760391 
L 294.380803 245.272365 
L 287.885807 245.252591 
L 287.899514 244.762175 
L 271.500802 244.761399 
L 271.483875 245.25062 
L 271.502369 245.244765 
L 274.734368 245.243869 
L 274.814264 244.268713 
L 274.791968 244.276599 
L 271.541749 244.278331 
L 271.497432 244.769105 
L 264.992527 244.763788 
L 264.957301 245.255459 
L 258.426496 245.254324 
L 258.373206 245.7491 
L 251.867204 245.745994 
L 248.600097 246.244116 
L 245.394508 245.748682 
L 245.475109 245.757464 
L 248.727248 245.763259 
L 245.48369 245.76069 
L 264.991195 246.284023 
L 264.984573 246.286891 
L 264.962748 246.777545 
L 264.956282 246.775275 
L 261.716369 246.773602 
L 261.730514 246.776709 
L 261.722285 247.268379 
L 261.728829 247.267184 
L 258.491541 247.264376 
L 258.497497 247.268379 
L 258.479041 247.76214 
L 258.470342 247.761483 
L 255.218752 247.752701 
L 226.174456 243.252097 
L 216.394842 243.256936 
L 216.411378 243.748427 
L 219.656346 243.760196 
L 219.647961 244.248042 
L 226.152435 244.260947 
L 232.633633 245.258027 
L 245.64693 245.261373 
L 239.159972 244.761458 
L 239.165888 244.760025 
L 239.2354 244.271819 
L 242.503605 244.268295 
L 242.551957 243.776625 
L 255.695619 243.797176 
L 255.726065 243.304131 
L 258.961629 243.307656 
L 258.98318 242.817061 
L 262.215649 242.819152 
L 262.271486 242.325988 
L 265.575622 241.836409 
L 272.088951 241.351609 
L 275.387484 240.859282 
L 281.928547 240.365819 
L 288.481746 239.383913 
L 294.991568 238.891705 
L 298.310434 237.905377 
L 304.821478 237.414543 
L 314.638779 235.941146 
L 314.595614 235.945985 
L 311.333111 235.939055 
L 308.093041 235.443979 
L 304.83439 235.439379 
L 295.155694 233.942623 
L 291.924091 233.93169 
L 291.943797 233.438646 
L 288.718079 233.438766 
L 288.718577 233.446412 
L 288.659319 233.937844 
L 285.409802 233.937306 
L 285.36715 234.428379 
L 282.115109 234.432381 
L 278.862422 234.922379 
L 278.88025 234.928532 
L 278.873628 235.428088 
L 282.067317 235.919281 
L 282.067019 235.913545 
L 285.285703 235.911096 
L 285.427693 234.923693 
L 285.431886 234.930982 
L 265.977687 234.911864 
L 262.734599 234.411591 
L 259.503463 234.403287 
L 259.570546 234.408186 
L 259.566157 234.90141 
L 262.792905 234.906129 
L 262.751644 235.393618 
L 262.764144 235.392184 
L 285.522941 235.447026 
L 272.389648 237.423624 
L 269.117407 237.430614 
L 262.594321 237.919655 
L 259.302411 237.916609 
L 252.787514 237.418666 
L 243.081644 236.423078 
L 243.086268 236.427977 
L 220.46173 233.430521 
L 201.045132 231.431401 
L 175.208501 227.424677 
L 175.194512 226.426222 
L 168.724324 226.418635 
L 168.764527 225.436489 
L 162.286385 224.449505 
L 159.018259 224.439588 
L 155.780814 223.943915 
L 152.525658 223.946543 
L 149.27395 224.434749 
L 149.300595 224.441679 
L 149.315014 224.930003 
L 152.509436 225.426393 
L 152.542037 226.418575 
L 158.952626 227.437701 
L 158.978997 227.940901 
L 165.526573 228.929319 
L 168.816054 228.936966 
L 172.066508 229.425649 
L 175.309674 229.422005 
L 175.425305 228.421758 
L 172.248556 227.433459 
L 156.167715 224.944401 
L 149.700466 224.433016 
L 133.616137 221.940553 
L 130.401967 220.951358 
L 123.967554 219.950872 
L 124.005484 219.459261 
L 127.258642 219.450658 
L 130.545615 218.966456 
L 120.853186 217.483679 
L 114.357606 217.488817 
L 114.210667 219.487459 
L 117.449915 219.488534 
L 110.955746 219.504724 
L 104.488301 218.518277 
L 104.502094 218.516963 
L 107.737149 218.518875 
L 107.614072 218.532197 
L 107.700943 217.0447 
L 104.48211 216.541859 
L 104.452801 216.051383 
L 101.254696 215.563238 
L 101.260652 215.55589 
L 101.357867 214.560362 
L 104.602248 214.558211 
L 104.655538 214.069229 
L 107.911908 214.069349 
L 111.187401 213.586759 
L 120.869094 213.592017 
L 124.135614 213.106141 
L 140.340942 213.171319 
L 130.500867 213.173768 
L 130.518735 212.195267 
L 120.75746 212.191682 
L 114.19135 213.167734 
L 107.703255 213.145332 
L 107.766811 212.153269 
L 110.986074 212.151058 
L 110.987994 211.662136 
L 110.952847 212.151895 
L 110.966561 212.144427 
L 114.19323 212.144905 
L 114.176068 212.131463 
L 114.241701 211.625933 
L 123.917634 211.599348 
L 123.91446 211.591821 
L 127.169812 211.105468 
L 127.168441 211.126975 
L 127.134821 211.625455 
L 123.897258 211.628263 
L 136.854562 211.620019 
L 140.142005 211.144061 
L 143.36989 211.630892 
L 153.127286 211.607891 
L 153.15303 211.119089 
L 153.167136 211.122554 
L 156.408186 211.133606 
L 156.397645 211.625575 
L 156.440317 211.625097 
L 159.656054 211.629398 
L 159.610992 211.619541 
L 159.637755 211.129424 
L 159.588579 211.129603 
L 146.552791 211.100091 
L 146.844788 211.211807 
L 146.936792 211.227161 
L 146.872374 211.711064 
L 143.265112 211.749478 
L 143.282118 211.740756 
L 143.5019 210.761 
L 143.565182 210.756878 
L 146.817948 210.27375 
L 146.807485 210.268732 
L 146.906229 209.775927 
L 153.458977 208.819649 
L 156.661744 208.823891 
L 156.578714 208.84253 
L 156.437299 209.838297 
L 156.477424 209.836027 
L 159.720864 209.858549 
L 159.748292 210.346695 
L 166.303235 210.360017 
L 166.324433 210.847744 
L 169.585467 210.852464 
L 172.78651 211.339534 
L 179.240437 211.348495 
L 189.04411 209.887105 
L 195.587806 208.396861 
L 202.245215 205.931819 
L 212.125727 203.961673 
L 228.487084 201.996366 
L 235.093044 200.516158 
L 248.263743 196.562783 
L 248.322283 195.082993 
L 232.035962 195.06059 
L 225.505079 195.551065 
L 218.927841 196.53333 
L 209.128361 197.511414 
L 205.811373 198.494276 
L 199.287973 198.983378 
L 196.00292 199.474988 
L 192.730875 199.477378 
L 189.440806 199.964328 
L 186.175306 199.947601 
L 186.215783 198.965814 
L 189.45358 198.964798 
L 189.483634 198.473367 
L 192.711793 198.469962 
L 192.775192 197.485068 
L 196.01346 197.482559 
L 196.117415 195.984727 
L 199.394592 195.488337 
L 199.432836 194.984719 
L 202.727019 194.003589 
L 202.76009 193.514965 
L 206.006116 193.51377 
L 206.042635 193.016485 
L 209.306294 192.529773 
L 209.300848 192.527562 
L 209.336975 192.037923 
L 212.577751 192.041926 
L 212.5754 192.037565 
L 212.630218 191.54016 
L 215.81739 191.53556 
L 215.769312 191.043531 
L 222.138719 191.000517 
L 222.100632 190.980623 
L 225.329731 190.501379 
L 225.330946 190.51058 
L 228.519529 190.515359 
L 228.492453 190.505621 
L 228.486889 189.024218 
L 225.266724 188.534699 
L 225.255478 188.048106 
L 222.021128 188.044582 
L 222.046637 187.559602 
L 218.888108 187.072532 
L 215.703365 187.060226 
L 215.760574 186.579966 
L 215.589693 187.08221 
L 209.100188 187.094457 
L 205.93441 186.603504 
L 202.715499 186.585223 
L 196.298797 185.582049 
L 193.077809 185.571176 
L 193.074517 185.07144 
L 186.63744 184.065219 
L 186.639752 183.562437 
L 183.491724 183.057026 
L 180.331393 182.053016 
L 180.310625 181.562122 
L 173.831503 181.567678 
L 173.762109 182.059408 
L 164.113918 182.039753 
L 164.151025 181.549935 
L 164.100282 181.549696 
L 160.841873 181.540436 
L 151.251047 180.05037 
L 148.047653 180.036033 
L 148.058938 179.540001 
L 144.860403 179.525843 
L 144.880426 178.541367 
L 141.65932 178.534736 
L 141.668528 178.037808 
L 135.217815 177.037561 
L 122.258631 177.08159 
L 122.260707 177.07239 
L 122.318503 176.579944 
L 128.864943 176.573193 
L 132.135459 176.087258 
L 154.862149 176.0774 
L 154.859837 176.072143 
L 154.947452 175.587343 
L 158.297943 175.516191 
L 161.540207 175.033721 
L 161.52759 175.045192 
L 161.506117 175.528618 
L 161.595182 175.52348 
L 161.690242 175.543135 
L 164.910525 175.559265 
L 164.856098 176.043826 
L 164.935446 175.524914 
L 165.005937 175.553111 
L 165.177602 175.594871 
L 165.14214 175.600785 
L 161.915588 175.603175 
L 165.265648 175.67821 
L 165.321406 175.192872 
L 165.152289 176.163249 
L 165.093905 176.166714 
L 165.069572 175.674685 
L 165.071061 175.697387 
L 171.581647 175.678568 
L 171.619577 175.180983 
L 171.644459 175.674565 
L 191.441845 175.658973 
L 181.930602 175.693623 
L 181.973547 175.202311 
L 182.063239 175.22555 
L 182.12127 175.193051 
L 182.087807 175.680958 
L 181.982246 175.651684 
L 181.952545 175.645949 
L 172.245695 175.673191 
L 172.188605 176.159246 
L 172.136294 176.150822 
L 168.839329 176.081104 
L 168.848145 176.073398 
L 168.897439 175.588239 
L 185.043834 175.671758 
L 188.236649 176.162113 
L 194.642497 176.150165 
L 194.694219 175.666142 
L 207.555483 175.684124 
L 210.799785 175.194007 
L 214.019441 175.191558 
L 210.738306 175.19329 
L 210.678237 175.686932 
L 187.754531 175.697566 
L 187.73251 175.206672 
L 161.682915 175.219098 
L 158.438926 175.703062 
L 135.571292 175.720745 
L 129.130923 175.218083 
L 125.912795 175.209659 
L 122.677937 174.713688 
L 119.4055 174.710282 
L 116.149365 174.21682 
L 112.865252 174.212638 
L 109.619343 173.717025 
L 106.396553 173.699282 
L 103.157344 173.192975 
L 99.878796 173.175949 
L 96.653537 172.684517 
L 80.392176 172.665102 
L 80.376542 173.154502 
L 80.316355 173.148528 
L 73.832727 173.152948 
L 73.919715 173.183775 
L 73.916032 173.674609 
L 73.989737 173.672577 
L 77.21241 173.67419 
L 77.194307 173.664214 
L 77.276201 173.171528 
L 80.540212 172.683801 
L 80.539194 172.678304 
L 80.625241 172.187769 
L 83.864841 172.195834 
L 83.851989 172.682785 
L 90.388946 172.715643 
L 90.391611 173.204206 
L 100.138937 173.201399 
L 100.204923 172.712118 
L 106.71257 172.808003 
L 106.678872 173.294714 
L 106.587535 173.235989 
L 106.510343 173.236885 
L 103.28046 173.242142 
L 103.304636 173.253373 
L 103.294449 173.744506 
L 103.308751 173.744745 
L 106.539221 173.754005 
L 103.271369 174.239641 
L 106.572645 173.736023 
L 109.80574 173.739368 
L 103.227954 173.758844 
L 103.229051 173.751077 
L 103.238337 173.263828 
L 99.996465 173.249968 
L 100.013784 172.763854 
L 100.051949 172.805732 
L 103.273446 172.812782 
L 103.264826 172.821205 
L 103.240493 173.310128 
L 103.2747 173.303616 
L 113.05976 173.317954 
L 113.049847 173.804247 
L 119.570033 173.80347 
L 116.175618 173.823305 
L 112.884178 174.300039 
L 109.653002 174.292154 
L 109.668049 174.285821 
L 109.667618 173.314608 
L 106.431936 173.311621 
L 109.833287 173.340416 
L 109.830661 174.326146 
L 113.080175 174.338274 
L 113.142556 173.84965 
L 116.392657 173.354336 
L 116.564909 169.386265 
L 119.888167 167.90761 
L 126.471204 165.92689 
L 126.538914 164.928973 
L 133.138996 162.952972 
L 129.914325 162.45019 
L 139.698954 161.468642 
L 139.712864 160.969086 
L 123.439552 160.953673 
L 123.361224 160.462241 
L 120.146701 159.957189 
L 120.123152 158.484449 
L 123.363849 157.999768 
L 123.417805 157.505051 
L 136.635093 153.563445 
L 139.840329 153.061619 
L 139.87916 152.067943 
L 139.835314 152.066868 
L 136.596066 152.063104 
L 133.318027 152.545276 
L 126.815199 152.531117 
L 126.858301 151.542878 
L 130.111184 151.051566 
L 133.333387 151.049654 
L 133.382798 150.554639 
L 136.646809 150.552309 
L 143.23882 149.572134 
L 146.51584 149.575181 
L 149.840783 149.086976 
L 156.385107 149.084706 
L 159.680779 148.595007 
L 166.110842 148.580132 
L 166.320437 147.581557 
L 166.442377 147.59243 
L 166.480934 148.078724 
L 166.546527 147.591414 
L 166.567373 147.603482 
L 166.535203 147.596851 
L 163.365664 147.103687 
L 163.418914 147.10542 
L 166.640451 147.105539 
L 166.631439 147.097056 
L 166.678146 146.610284 
L 169.919862 146.615661 
L 173.191553 146.131459 
L 176.449609 146.128591 
L 179.738698 145.639549 
L 186.221504 145.637817 
L 186.280593 145.145968 
L 189.554361 145.148477 
L 192.835535 144.662661 
L 196.103465 144.664573 
L 199.411676 144.178996 
L 205.953336 144.184194 
L 206.004706 143.689716 
L 209.263937 143.688461 
L 209.311545 143.192191 
L 212.560353 143.190996 
L 212.627906 142.201801 
L 215.878125 142.200845 
L 215.913234 141.705411 
L 219.152834 141.708219 
L 219.117569 141.709772 
L 219.131126 142.2205 
L 219.119449 141.221268 
L 219.088337 141.225868 
L 215.84619 141.228616 
L 215.796701 141.719211 
L 212.54515 141.721302 
L 206.040206 142.702313 
L 206.044673 141.719331 
L 206.001767 141.723154 
L 202.794493 141.713954 
L 202.872743 141.220671 
L 206.089382 141.221268 
L 202.877485 141.211172 
L 202.945233 140.720517 
L 219.308159 140.728045 
L 222.572092 141.214995 
L 229.090711 141.231365 
L 229.069121 141.722497 
L 229.11187 141.231424 
L 229.142042 141.233336 
L 232.377449 141.240027 
L 216.182623 141.255321 
L 216.189401 141.251438 
L 209.744291 140.269412 
L 206.521814 140.268695 
L 206.571539 140.277238 
L 213.173463 141.267269 
L 216.413376 141.275035 
L 216.408909 141.286267 
L 216.407263 141.776204 
L 216.479558 141.776324 
L 219.722919 142.271041 
L 219.777973 141.780685 
L 229.552532 141.809002 
L 232.788958 142.305691 
L 232.823988 141.81187 
L 236.088117 141.826208 
L 236.145757 142.321642 
L 239.373014 142.818629 
L 239.349935 142.82532 
L 239.316472 143.319559 
L 236.078086 143.312928 
L 236.07887 143.309463 
L 229.637443 142.313636 
L 229.675255 141.326174 
L 226.471783 140.822257 
L 226.616684 137.343466 
L 223.430766 136.342741 
L 223.558192 133.363446 
L 220.350644 132.864129 
L 220.407421 131.37257 
L 217.19478 130.874747 
L 217.233337 130.382599 
L 220.488062 129.893438 
L 217.273265 129.393941 
L 217.331649 127.909312 
L 214.126491 127.405694 
L 214.167791 126.415603 
L 210.967649 125.915389 
L 211.004207 124.922789 
L 204.526144 124.41935 
L 204.528064 124.418693 
L 201.28717 124.410807 
L 201.312718 123.917942 
L 201.311974 123.918659 
L 194.849152 123.416713 
L 194.864199 123.415459 
L 204.633194 123.427765 
L 194.893743 122.920204 
L 207.900262 122.936394 
L 194.921094 122.425128 
L 198.172527 122.425726 
L 198.252306 120.942232 
L 195.040565 120.447336 
L 195.052281 120.447276 
L 195.138642 118.963663 
L 191.908916 118.958883 
L 191.953821 118.464584 
L 195.203178 118.466018 
L 195.253804 117.476286 
L 208.293667 117.485306 
L 227.79839 118.005175 
L 250.535385 118.072443 
L 247.302015 118.069277 
L 247.353816 117.579817 
L 253.793754 117.588659 
L 253.798456 117.095555 
L 257.080297 116.608425 
L 263.56365 116.615056 
L 263.585593 116.123147 
L 263.578658 116.12476 
L 257.060078 116.119204 
L 257.064976 116.120817 
L 257.035862 116.618581 
L 253.750574 117.108997 
L 253.713271 117.601862 
L 250.446203 117.601085 
L 250.405922 118.096041 
L 247.146573 118.09162 
L 243.916808 117.59308 
L 243.97143 116.601136 
L 247.269885 115.613554 
L 247.322273 114.622388 
L 250.598589 114.129224 
L 247.39782 113.133039 
L 250.676721 112.641489 
L 247.478695 111.647634 
L 250.714573 111.158891 
L 250.791216 110.659634 
L 260.666438 109.174706 
L 263.903492 109.181636 
L 263.890169 109.670438 
L 267.142935 109.67701 
L 273.560891 110.673195 
L 273.559519 110.669132 
L 273.598586 110.180091 
L 276.857033 110.18254 
L 280.118263 109.696844 
L 276.878428 109.69326 
L 276.885246 109.68848 
L 276.90762 109.199319 
L 276.873608 109.202366 
L 273.627347 109.190537 
L 273.627817 108.698389 
L 267.118288 108.677241 
L 260.63662 107.684103 
L 250.854381 107.6709 
L 250.793881 108.165378 
L 247.552361 108.162152 
L 247.562313 108.159583 
L 247.579593 107.669167 
L 244.334586 107.663671 
L 244.347086 107.171762 
L 241.10486 107.164294 
L 241.119123 106.66892 
L 237.875173 106.16118 
L 237.960085 105.176764 
L 244.474511 105.19158 
L 224.93613 105.144384 
L 221.705228 104.648891 
L 215.199814 104.639929 
L 211.968521 104.144197 
L 208.719674 104.138581 
L 211.983528 104.138641 
L 212.00841 103.644999 
L 212.005785 103.645895 
L 208.764186 103.632215 
L 202.228287 102.636627 
L 195.633573 102.626471 
L 185.892516 101.138975 
L 179.449718 100.633504 
L 150.452795 96.14443 
L 147.236313 96.142578 
L 147.252653 96.13977 
L 147.266132 95.146393 
L 150.508593 94.660099 
L 160.26736 94.6739 
L 166.83445 94.196149 
L 173.312553 94.203139 
L 173.392214 93.206596 
L 170.163154 92.705905 
L 166.949964 92.696346 
L 166.971358 92.206946 
L 160.431776 92.194639 
L 157.20444 91.697294 
L 147.393597 91.690184 
L 153.86449 91.722564 
L 153.951322 90.248748 
L 153.939684 90.260577 
L 150.676143 90.745138 
L 147.45488 90.747468 
L 147.405666 91.236629 
L 134.438135 91.221873 
L 134.398324 91.713782 
L 134.416075 91.699265 
L 131.172204 91.691439 
L 131.183841 91.196782 
L 124.640732 91.181368 
L 121.391728 90.681872 
L 118.139001 90.676316 
L 111.750629 89.686285 
L 108.579483 89.674396 
L 108.575055 89.183204 
L 105.327971 89.168149 
L 98.845283 88.163959 
L 98.861545 87.171598 
L 102.097932 87.172793 
L 108.678226 86.189392 
L 115.168947 86.172665 
L 115.104019 86.181865 
L 114.997243 86.683512 
L 111.761875 87.170522 
L 121.445919 87.152301 
L 111.696007 87.128584 
L 111.697104 87.133782 
L 108.433602 87.617924 
L 108.50809 87.62348 
L 114.970676 87.63501 
L 118.225872 87.153855 
L 121.447251 87.15732 
L 124.697705 86.692891 
L 124.703348 87.18026 
L 127.914265 87.176377 
L 128.025312 86.208689 
L 131.33368 85.731834 
L 134.561447 85.743603 
L 134.536918 86.234437 
L 137.744348 86.23605 
L 137.736864 86.242622 
L 137.603012 86.739609 
L 134.214121 87.270111 
L 134.169609 87.761901 
L 134.067143 87.749833 
L 130.629625 87.790576 
L 130.646083 87.298847 
L 130.53194 88.276392 
L 130.504198 88.26534 
L 130.497341 88.259187 
L 130.563601 87.301654 
L 130.495773 88.281649 
L 133.703635 88.281351 
L 133.650932 88.268566 
L 133.689528 87.781018 
L 136.90652 87.792548 
L 136.88826 87.799836 
L 136.911692 87.309182 
L 136.918157 87.310914 
L 140.136951 87.312468 
L 140.106152 87.304761 
L 143.393517 86.83639 
L 143.302807 86.822888 
L 140.121904 86.811657 
L 140.156974 86.802098 
L 140.122531 87.28421 
L 140.021084 87.255833 
L 136.841396 87.239703 
L 136.9209 87.214372 
L 136.96365 86.728915 
L 136.89257 86.731604 
L 136.725138 86.726884 
L 133.529502 86.723837 
L 133.558929 86.735009 
L 133.437498 87.218495 
L 130.230734 87.216762 
L 130.604077 87.293231 
L 130.594556 86.804428 
L 130.543029 86.81315 
L 124.190745 86.853356 
L 127.425056 86.87552 
L 127.424664 87.365697 
L 127.47909 87.363427 
L 137.399609 87.359603 
L 137.364853 87.414924 
L 137.35584 87.903189 
L 137.265718 87.884251 
L 137.129515 87.861728 
L 133.938228 87.850676 
L 137.18445 87.367668 
L 137.136607 87.857427 
L 137.188251 87.840042 
L 140.415743 87.35351 
L 140.353167 87.349507 
L 140.505396 85.869478 
L 143.764235 85.374343 
L 143.799462 84.884883 
L 143.845777 84.893844 
L 147.032244 85.388024 
L 146.980443 85.400569 
L 147.069978 84.917024 
L 146.93115 85.917988 
L 143.684379 85.930056 
L 143.629992 86.419038 
L 143.590925 86.414079 
L 140.372876 86.423279 
L 140.311279 86.908557 
L 137.097932 86.893622 
L 137.136568 86.407747 
L 137.094171 86.428537 
L 133.805748 86.890754 
L 130.632211 86.888185 
L 130.759598 86.904614 
L 130.659366 87.398973 
L 130.619398 87.405007 
L 130.556156 87.896856 
L 127.337989 87.889627 
L 127.691858 88.000388 
L 127.5372 88.032289 
L 127.585004 88.028227 
L 130.796548 88.025479 
L 130.796627 87.538887 
L 130.819902 87.566905 
L 134.025295 87.57043 
L 133.980312 87.560035 
L 134.061696 86.580757 
L 137.313287 86.087354 
L 137.367674 85.088601 
L 144.011916 81.126324 
L 144.093889 79.639127 
L 150.710115 76.6673 
L 150.839892 75.181775 
L 154.178117 73.701925 
L 154.280152 72.706995 
L 157.594672 71.227742 
L 157.757285 69.239017 
L 161.042024 68.246238 
L 161.19872 66.252733 
L 164.496234 64.774138 
L 164.477504 64.275358 
L 161.3149 63.284371 
L 161.311021 62.303779 
L 158.152297 61.802789 
L 158.156097 60.819389 
L 151.76459 59.820994 
L 151.741746 59.319287 
L 145.304982 58.308346 
L 145.340796 57.812852 
L 145.376845 58.317427 
L 142.090538 58.813398 
L 141.945636 60.791669 
L 141.784356 61.272168 
L 141.811393 61.266193 
L 167.842532 61.249824 
L 171.088049 60.762396 
L 174.355391 60.761619 
L 177.65796 60.277596 
L 180.91292 60.278791 
L 184.17893 59.785448 
L 184.246561 59.297003 
L 187.483614 59.298796 
L 187.479539 59.294614 
L 187.516646 58.804975 
L 187.547993 58.810053 
L 190.784929 58.819014 
L 190.73348 59.30931 
L 187.499875 59.30483 
L 187.504342 59.312237 
L 187.460574 59.803848 
L 184.235981 59.801279 
L 184.253144 59.809882 
L 184.128696 60.313142 
L 184.072977 60.315352 
L 184.116784 60.317025 
L 197.172361 60.36195 
L 200.456826 59.880137 
L 203.70105 59.881452 
L 206.961065 59.390259 
L 207.080732 58.394553 
L 210.355598 57.904436 
L 210.352777 57.90342 
L 210.396114 57.412228 
L 213.634891 57.416529 
L 213.589673 57.417545 
L 213.550842 57.91501 
L 210.276799 58.406381 
L 210.283931 58.4068 
L 210.30458 57.909275 
L 207.054479 57.902524 
L 207.099031 57.407269 
L 213.686339 56.430261 
L 216.935069 56.432412 
L 216.934247 56.429485 
L 216.969199 55.937337 
L 220.20825 55.944386 
L 220.167577 55.951256 
L 220.138033 56.444181 
L 220.154059 56.443823 
L 223.472614 56.455592 
L 223.407334 56.471722 
L 220.160916 56.959031 
L 220.239754 56.963571 
L 220.220515 57.453449 
L 220.202764 57.444846 
L 207.260586 57.443174 
L 213.765961 57.456496 
L 213.645588 58.931088 
L 213.773837 58.936525 
L 213.774111 59.42718 
L 213.749582 59.4178 
L 210.526478 59.411886 
L 210.53024 59.408182 
L 210.532238 58.917229 
L 207.241895 58.914361 
L 207.244521 58.423467 
L 204.021417 58.42275 
L 204.082113 58.421197 
L 204.126429 57.434272 
L 204.100176 57.432958 
L 200.869549 57.425909 
L 200.924955 56.434503 
L 200.898036 56.934179 
L 204.126351 56.939376 
L 204.114439 56.943498 
L 204.085208 57.437857 
L 204.101509 57.437678 
L 207.338209 57.440366 
L 203.991284 57.448371 
L 200.693261 57.933052 
L 197.472822 57.931379 
L 200.699139 57.938787 
L 200.673944 57.941834 
L 200.629157 58.433862 
L 200.741614 56.447228 
L 200.761284 56.450992 
L 203.978197 56.9478 
L 220.188658 56.975579 
L 220.188305 56.982091 
L 220.152923 57.971047 
L 229.887827 57.981562 
L 229.880618 57.98891 
L 229.868 58.490557 
L 233.081857 58.989396 
L 233.077468 58.991786 
L 233.051999 59.482619 
L 239.527045 59.493074 
L 242.739374 59.988568 
L 242.772053 59.497734 
L 242.732321 59.509742 
L 239.444759 59.993228 
L 219.958963 59.980144 
L 216.748829 59.484412 
L 216.752355 59.485188 
L 226.534869 58.999313 
L 223.282494 58.992263 
L 223.298873 58.500235 
L 216.796633 58.506687 
L 213.503038 58.994115 
L 206.990845 58.997461 
L 206.861499 59.482858 
L 206.803037 59.487219 
L 203.611006 59.489131 
L 203.642705 59.977934 
L 206.867494 59.493313 
L 206.821296 59.982116 
L 206.852604 59.974409 
L 210.154546 59.490207 
L 219.946737 59.518823 
L 213.411857 60.005534 
L 213.390149 60.498877 
L 216.674693 60.011568 
L 219.896112 60.508735 
L 242.627034 60.54213 
L 242.678756 60.053925 
L 245.93164 60.062766 
L 245.906876 60.553122 
L 245.919062 60.544519 
L 242.691452 60.536932 
L 242.728637 60.046337 
L 242.713042 60.046158 
L 219.942035 59.986775 
L 216.660783 60.473846 
L 216.683431 59.98116 
L 216.668972 59.9903 
L 213.397633 60.479282 
L 213.409976 60.480895 
L 216.660704 60.488482 
L 216.626732 60.979376 
L 216.63837 60.974716 
L 223.142569 60.98774 
L 223.116355 61.479947 
L 232.960975 61.497033 
L 236.232862 61.020478 
L 236.228395 61.018506 
L 236.407896 58.535542 
L 230.041193 56.550879 
L 230.02646 56.0613 
L 226.761233 56.554941 
L 223.487739 57.537804 
L 223.419951 58.51971 
L 213.620197 59.99717 
L 210.44431 60.004041 
L 210.400659 60.495173 
L 207.221324 60.497742 
L 207.123795 60.985708 
L 203.89885 60.987859 
L 203.818876 61.476662 
L 200.611916 61.473615 
L 200.618146 61.477737 
L 200.550946 61.970841 
L 197.357778 61.969766 
L 200.561094 61.974844 
L 193.936796 62.943129 
L 190.720236 62.942532 
L 197.270555 62.95454 
L 197.308916 62.460301 
L 200.542364 62.461974 
L 200.542051 62.462272 
L 203.752577 62.95687 
L 203.731339 62.958543 
L 200.431984 63.449317 
L 197.160174 63.434262 
L 193.911993 62.93835 
L 177.660977 62.918874 
L 187.450778 62.435568 
L 187.438631 62.438077 
L 184.145702 62.929688 
L 180.893054 62.928493 
L 177.611527 63.420581 
L 171.061365 63.422612 
L 164.577149 63.911415 
L 161.323599 64.396454 
L 158.10555 64.400158 
L 148.366257 65.880306 
L 148.32531 67.361948 
L 148.380128 67.358364 
L 151.611382 67.358782 
L 151.607385 67.353047 
L 154.86932 66.868964 
L 154.860895 67.357468 
L 158.141051 66.872787 
L 167.858205 66.874759 
L 174.436071 65.892374 
L 171.187654 66.393424 
L 164.702811 66.395813 
L 167.9881 65.906055 
L 164.744738 65.901455 
L 164.78451 65.410442 
L 164.766642 65.409784 
L 161.524651 65.404288 
L 161.524887 65.399449 
L 161.55592 64.908317 
L 161.541383 64.911005 
L 158.303899 64.912319 
L 158.315301 64.917995 
L 158.260875 65.410501 
L 155.034597 65.407514 
L 158.299706 65.420179 
L 158.250648 65.919735 
L 154.977075 66.409554 
L 154.982404 66.400772 
L 155.083538 65.914299 
L 158.417884 65.432187 
L 164.936464 64.941473 
L 168.208861 64.449146 
L 168.29342 63.960403 
L 171.549712 63.960164 
L 171.628864 63.465029 
L 181.509493 61.993662 
L 181.626339 61.510834 
L 184.839843 61.514597 
L 152.423545 61.507548 
L 152.40603 62.00806 
L 152.464884 61.518779 
L 155.76753 61.041088 
L 158.995846 61.046644 
L 162.309346 60.571164 
L 165.601257 60.568834 
L 168.869657 60.078598 
L 168.918872 59.595291 
L 168.915424 60.100762 
L 168.877847 60.091323 
L 165.687422 60.081764 
L 165.715164 60.072863 
L 165.774058 59.590213 
L 165.855717 59.604312 
L 169.055349 59.605328 
L 168.992459 59.587883 
L 169.042105 59.10165 
L 169.123372 59.114733 
L 169.193668 59.121125 
L 172.394711 59.127398 
L 172.386052 59.112523 
L 175.622165 58.628619 
L 175.611781 58.640866 
L 178.815802 58.640029 
L 178.796994 58.630471 
L 178.839822 58.14358 
L 178.890721 58.148717 
L 182.114687 58.150211 
L 182.100659 58.144954 
L 182.138002 57.65645 
L 182.173502 57.662962 
L 188.64224 57.687635 
L 188.665241 58.178469 
L 201.77109 58.200633 
L 201.739195 58.212461 
L 201.732612 58.703056 
L 201.834686 58.688838 
L 198.599827 58.68131 
L 205.330979 58.679518 
L 205.256177 58.690989 
L 205.173656 59.179074 
L 201.967636 59.169038 
L 205.680459 59.140541 
L 205.850478 58.654965 
L 209.128674 58.654307 
L 209.11014 58.647318 
L 209.14854 58.157619 
L 209.22491 58.171598 
L 212.424738 58.182292 
L 208.885068 58.191253 
L 208.971273 58.199378 
L 208.979972 58.690391 
L 209.089608 58.679578 
L 209.21719 58.698157 
L 209.243209 59.188573 
L 209.300652 59.184152 
L 209.545394 59.211275 
L 209.53262 59.217846 
L 209.406252 59.709278 
L 206.188086 59.708859 
L 206.221314 59.714117 
L 206.155994 60.207221 
L 202.945312 60.207041 
L 203.096953 60.238405 
L 203.115487 60.729359 
L 206.332439 60.728224 
L 206.316844 60.722489 
L 206.348661 60.23279 
L 206.410885 60.238107 
L 209.62 60.238525 
L 209.61522 59.747631 
L 209.681519 59.748707 
L 212.905798 59.752112 
L 212.865595 59.74339 
L 212.88891 59.249987 
L 212.810738 59.751813 
L 212.774454 59.748348 
L 209.543161 59.750738 
L 206.290316 60.241632 
L 206.212811 60.732406 
L 202.985867 60.731151 
L 202.921645 61.222463 
L 199.692507 61.708637 
L 199.695641 61.711086 
L 199.61555 62.199769 
L 196.415917 62.193616 
L 196.446637 62.196663 
L 196.325128 62.681941 
L 193.137799 62.683255 
L 193.175572 62.688393 
L 193.151592 63.177434 
L 193.042661 63.150133 
L 192.993407 61.651405 
L 189.778963 61.641368 
L 189.877236 61.152207 
L 189.848945 61.151431 
L 180.115059 61.12162 
L 180.18414 61.113077 
L 180.248323 60.622601 
L 183.473347 60.629591 
L 183.465824 60.623975 
L 183.534513 60.133858 
L 186.749074 60.142461 
L 180.129283 60.130991 
L 180.210628 60.144313 
L 180.190449 60.635207 
L 180.325633 59.633526 
L 183.707979 59.173877 
L 183.893084 59.20769 
L 183.873884 59.698703 
L 183.854253 59.693566 
L 174.24548 59.642128 
L 174.346849 59.627313 
L 174.393086 59.138152 
L 174.493005 59.155536 
L 174.643196 59.191859 
L 174.678775 59.691953 
L 174.735435 59.680004 
L 174.841466 59.675046 
L 174.813802 59.687771 
L 171.608958 59.691056 
L 171.697044 59.706888 
L 171.701511 60.197124 
L 171.791594 59.716805 
L 171.827918 59.725049 
L 175.067087 59.735862 
L 175.025356 60.226577 
L 175.057643 60.218631 
L 188.174777 60.217855 
L 188.159848 60.229922 
L 188.134026 60.720577 
L 188.170154 60.213254 
L 188.241507 60.230161 
L 188.57265 60.248323 
L 188.419049 60.277178 
L 185.21252 60.279149 
L 191.868361 60.265707 
L 191.831959 60.259195 
L 191.833919 59.769317 
L 191.926001 59.782162 
L 191.985286 59.787001 
L 195.238953 59.813108 
L 195.252824 60.305555 
L 192.036577 60.297788 
L 198.438076 60.294921 
L 198.363705 60.422707 
L 198.209713 60.44983 
L 198.342115 60.469783 
L 201.557539 60.474144 
L 198.007328 60.52367 
L 198.355829 60.557483 
L 198.355751 61.04766 
L 198.443013 61.0292 
L 195.206352 61.020358 
L 195.334287 60.993594 
L 195.377664 60.503895 
L 195.472998 60.523072 
L 195.905156 60.557244 
L 199.119169 60.562442 
L 195.881136 60.567878 
L 195.929568 60.574629 
L 195.984542 60.08511 
L 195.969849 60.117489 
L 192.718415 60.607785 
L 196.451574 60.080629 
L 196.416622 60.076626 
L 196.508587 59.088447 
L 199.730084 59.09472 
L 199.697992 59.098663 
L 196.452867 59.591767 
L 199.673659 59.598517 
L 196.426144 60.088395 
L 196.46043 60.091263 
L 196.528061 60.590341 
L 196.465054 60.573554 
L 193.245476 60.568058 
L 196.437194 61.068569 
L 193.24242 60.571164 
L 193.268556 60.583112 
L 193.219654 61.073707 
L 189.991104 61.065403 
L 189.999058 61.061221 
L 190.032364 60.570089 
L 189.974216 60.586518 
L 186.741159 60.584247 
L 186.750015 60.570746 
L 186.764043 60.079374 
L 186.720901 60.084213 
L 170.622937 60.095803 
L 170.6631 60.093175 
L 173.93295 59.605746 
L 173.90321 59.614827 
L 167.642969 59.635856 
L 167.673415 59.63944 
L 167.677568 60.131648 
L 167.773412 60.114801 
L 168.094915 60.098611 
L 168.081671 60.08965 
L 171.762559 60.056195 
L 171.818278 59.566436 
L 178.349907 59.569125 
L 178.420908 59.079127 
L 181.761563 59.084325 
L 181.740717 59.57492 
L 181.661448 59.56554 
L 178.444927 59.564047 
L 178.582815 59.554249 
L 178.587674 60.045023 
L 178.67956 59.565958 
L 178.728383 59.553831 
L 178.723172 60.043111 
L 178.63011 59.985401 
L 172.492357 59.979726 
L 175.798727 59.945554 
L 175.82208 59.45699 
L 175.887243 59.981877 
L 175.944647 59.491222 
L 176.014669 59.503111 
L 182.219034 59.454063 
L 181.988476 59.411826 
L 181.990514 58.920514 
L 181.915712 59.414395 
L 181.889067 59.407405 
L 181.86011 59.400774 
L 181.857877 58.909044 
L 181.794634 58.918364 
L 175.323819 58.933837 
L 181.925312 58.958868 
L 181.943689 58.46672 
L 181.957599 58.468393 
L 185.206564 58.46672 
L 188.495379 57.977738 
L 191.741915 57.978276 
L 191.782431 57.484216 
L 198.281615 57.486725 
L 208.08227 56.008608 
L 211.274106 56.002873 
L 211.30032 55.510665 
L 214.525735 55.502839 
L 217.792764 55.027717 
L 224.234622 55.030465 
L 224.220986 54.545844 
L 224.130197 55.072403 
L 224.0907 55.068162 
L 214.20192 55.069715 
L 214.336321 55.138537 
L 214.374015 54.65075 
L 214.450306 54.691075 
L 214.395919 55.653805 
L 214.356853 55.646457 
L 214.316337 55.642573 
L 211.08524 55.633254 
L 211.126187 55.623516 
L 211.118272 56.115365 
L 211.09386 56.065063 
L 207.869032 56.059746 
L 207.870051 56.064824 
L 207.82546 56.554762 
L 204.539584 56.565934 
L 201.321025 56.069544 
L 201.312287 55.579188 
L 198.087851 55.573931 
L 198.083149 55.080229 
L 194.839317 54.588738 
L 191.635335 54.577686 
L 191.640978 53.583294 
L 191.58518 53.579172 
L 188.372303 53.571465 
L 188.413093 53.568 
" clip-path="url(#pe1e55bd72e)" style="fill: none; stroke: #1f77b4; stroke-width: 1.5; stroke-linecap: square"/>
   </g>
   <g id="patch_3">
    <path d="M 57.6 307.584 
L 57.6 41.472 
" style="fill: none; stroke: #000000; stroke-width: 0.8; stroke-linejoin: miter; stroke-linecap: square"/>
   </g>
   <g id="patch_4">
    <path d="M 414.72 307.584 
L 414.72 41.472 
" style="fill: none; stroke: #000000; stroke-width: 0.8; stroke-linejoin: miter; stroke-linecap: square"/>
   </g>
   <g id="patch_5">
    <path d="M 57.6 307.584 
L 414.72 307.584 
" style="fill: none; stroke: #000000; stroke-width: 0.8; stroke-linejoin: miter; stroke-linecap: square"/>
   </g>
   <g id="patch_6">
    <path d="M 57.6 41.472 
L 414.72 41.472 
" style="fill: none; stroke: #000000; stroke-width: 0.8; stroke-linejoin: miter; stroke-linecap: square"/>
   </g>
  </g>
 </g>
 <defs>
  <clipPath id="pe1e55bd72e">
   <rect x="57.6" y="41.472" width="357.12" height="266.112"/>
  </clipPath>
 </defs>
</svg>
