<?xml version="1.0" encoding="utf-8" standalone="no"?>
<!DOCTYPE svg PUBLIC "-//W3C//DTD SVG 1.1//EN"
  "http://www.w3.org/Graphics/SVG/1.1/DTD/svg11.dtd">
<svg xmlns:xlink="http://www.w3.org/1999/xlink" width="460.8pt" height="345.6pt" viewBox="0 0 460.8 345.6" xmlns="http://www.w3.org/2000/svg" version="1.1">
 <metadata>
  <rdf:RDF xmlns:dc="http://purl.org/dc/elements/1.1/" xmlns:cc="http://creativecommons.org/ns#" xmlns:rdf="http://www.w3.org/1999/02/22-rdf-syntax-ns#">
   <cc:Work>
    <dc:type rdf:resource="http://purl.org/dc/dcmitype/StillImage"/>
    <dc:date>2025-04-03T00:46:42.394052</dc:date>
    <dc:format>image/svg+xml</dc:format>
    <dc:creator>
     <cc:Agent>
      <dc:title>Matplotlib v3.10.1, https://matplotlib.org/</dc:title>
     </cc:Agent>
    </dc:creator>
   </cc:Work>
  </rdf:RDF>
 </metadata>
 <defs>
  <style type="text/css">*{stroke-linejoin: round; stroke-linecap: butt}</style>
 </defs>
 <g id="figure_1">
  <g id="patch_1">
   <path d="M 0 345.6 
L 460.8 345.6 
L 460.8 0 
L 0 0 
z
" style="fill: #ffffff"/>
  </g>
  <g id="axes_1">
   <g id="patch_2">
    <path d="M 57.6 307.584 
L 414.72 307.584 
L 414.72 41.472 
L 57.6 41.472 
z
" style="fill: #ffffff"/>
   </g>
   <g id="matplotlib.axis_1">
    <g id="xtick_1">
     <g id="line2d_1">
      <defs>
       <path id="mf391650bac" d="M 0 0 
L 0 3.5 
" style="stroke: #000000; stroke-width: 0.8"/>
      </defs>
      <g>
       <use xlink:href="#mf391650bac" x="79.575188" y="307.584" style="stroke: #000000; stroke-width: 0.8"/>
      </g>
     </g>
     <g id="text_1">
      <!-- −45 -->
      <g transform="translate(69.022844 322.182437) scale(0.1 -0.1)">
       <defs>
        <path id="DejaVuSans-2212" d="M 678 2272 
L 4684 2272 
L 4684 1741 
L 678 1741 
L 678 2272 
z
" transform="scale(0.015625)"/>
        <path id="DejaVuSans-34" d="M 2419 4116 
L 825 1625 
L 2419 1625 
L 2419 4116 
z
M 2253 4666 
L 3047 4666 
L 3047 1625 
L 3713 1625 
L 3713 1100 
L 3047 1100 
L 3047 0 
L 2419 0 
L 2419 1100 
L 313 1100 
L 313 1709 
L 2253 4666 
z
" transform="scale(0.015625)"/>
        <path id="DejaVuSans-35" d="M 691 4666 
L 3169 4666 
L 3169 4134 
L 1269 4134 
L 1269 2991 
Q 1406 3038 1543 3061 
Q 1681 3084 1819 3084 
Q 2600 3084 3056 2656 
Q 3513 2228 3513 1497 
Q 3513 744 3044 326 
Q 2575 -91 1722 -91 
Q 1428 -91 1123 -41 
Q 819 9 494 109 
L 494 744 
Q 775 591 1075 516 
Q 1375 441 1709 441 
Q 2250 441 2565 725 
Q 2881 1009 2881 1497 
Q 2881 1984 2565 2268 
Q 2250 2553 1709 2553 
Q 1456 2553 1204 2497 
Q 953 2441 691 2322 
L 691 4666 
z
" transform="scale(0.015625)"/>
       </defs>
       <use xlink:href="#DejaVuSans-2212"/>
       <use xlink:href="#DejaVuSans-34" transform="translate(83.789062 0)"/>
       <use xlink:href="#DejaVuSans-35" transform="translate(147.412109 0)"/>
      </g>
     </g>
    </g>
    <g id="xtick_2">
     <g id="line2d_2">
      <g>
       <use xlink:href="#mf391650bac" x="128.420584" y="307.584" style="stroke: #000000; stroke-width: 0.8"/>
      </g>
     </g>
     <g id="text_2">
      <!-- −40 -->
      <g transform="translate(117.868241 322.182437) scale(0.1 -0.1)">
       <defs>
        <path id="DejaVuSans-30" d="M 2034 4250 
Q 1547 4250 1301 3770 
Q 1056 3291 1056 2328 
Q 1056 1369 1301 889 
Q 1547 409 2034 409 
Q 2525 409 2770 889 
Q 3016 1369 3016 2328 
Q 3016 3291 2770 3770 
Q 2525 4250 2034 4250 
z
M 2034 4750 
Q 2819 4750 3233 4129 
Q 3647 3509 3647 2328 
Q 3647 1150 3233 529 
Q 2819 -91 2034 -91 
Q 1250 -91 836 529 
Q 422 1150 422 2328 
Q 422 3509 836 4129 
Q 1250 4750 2034 4750 
z
" transform="scale(0.015625)"/>
       </defs>
       <use xlink:href="#DejaVuSans-2212"/>
       <use xlink:href="#DejaVuSans-34" transform="translate(83.789062 0)"/>
       <use xlink:href="#DejaVuSans-30" transform="translate(147.412109 0)"/>
      </g>
     </g>
    </g>
    <g id="xtick_3">
     <g id="line2d_3">
      <g>
       <use xlink:href="#mf391650bac" x="177.265981" y="307.584" style="stroke: #000000; stroke-width: 0.8"/>
      </g>
     </g>
     <g id="text_3">
      <!-- −35 -->
      <g transform="translate(166.713638 322.182437) scale(0.1 -0.1)">
       <defs>
        <path id="DejaVuSans-33" d="M 2597 2516 
Q 3050 2419 3304 2112 
Q 3559 1806 3559 1356 
Q 3559 666 3084 287 
Q 2609 -91 1734 -91 
Q 1441 -91 1130 -33 
Q 819 25 488 141 
L 488 750 
Q 750 597 1062 519 
Q 1375 441 1716 441 
Q 2309 441 2620 675 
Q 2931 909 2931 1356 
Q 2931 1769 2642 2001 
Q 2353 2234 1838 2234 
L 1294 2234 
L 1294 2753 
L 1863 2753 
Q 2328 2753 2575 2939 
Q 2822 3125 2822 3475 
Q 2822 3834 2567 4026 
Q 2313 4219 1838 4219 
Q 1578 4219 1281 4162 
Q 984 4106 628 3988 
L 628 4550 
Q 988 4650 1302 4700 
Q 1616 4750 1894 4750 
Q 2613 4750 3031 4423 
Q 3450 4097 3450 3541 
Q 3450 3153 3228 2886 
Q 3006 2619 2597 2516 
z
" transform="scale(0.015625)"/>
       </defs>
       <use xlink:href="#DejaVuSans-2212"/>
       <use xlink:href="#DejaVuSans-33" transform="translate(83.789062 0)"/>
       <use xlink:href="#DejaVuSans-35" transform="translate(147.412109 0)"/>
      </g>
     </g>
    </g>
    <g id="xtick_4">
     <g id="line2d_4">
      <g>
       <use xlink:href="#mf391650bac" x="226.111378" y="307.584" style="stroke: #000000; stroke-width: 0.8"/>
      </g>
     </g>
     <g id="text_4">
      <!-- −30 -->
      <g transform="translate(215.559035 322.182437) scale(0.1 -0.1)">
       <use xlink:href="#DejaVuSans-2212"/>
       <use xlink:href="#DejaVuSans-33" transform="translate(83.789062 0)"/>
       <use xlink:href="#DejaVuSans-30" transform="translate(147.412109 0)"/>
      </g>
     </g>
    </g>
    <g id="xtick_5">
     <g id="line2d_5">
      <g>
       <use xlink:href="#mf391650bac" x="274.956775" y="307.584" style="stroke: #000000; stroke-width: 0.8"/>
      </g>
     </g>
     <g id="text_5">
      <!-- −25 -->
      <g transform="translate(264.404432 322.182437) scale(0.1 -0.1)">
       <defs>
        <path id="DejaVuSans-32" d="M 1228 531 
L 3431 531 
L 3431 0 
L 469 0 
L 469 531 
Q 828 903 1448 1529 
Q 2069 2156 2228 2338 
Q 2531 2678 2651 2914 
Q 2772 3150 2772 3378 
Q 2772 3750 2511 3984 
Q 2250 4219 1831 4219 
Q 1534 4219 1204 4116 
Q 875 4013 500 3803 
L 500 4441 
Q 881 4594 1212 4672 
Q 1544 4750 1819 4750 
Q 2544 4750 2975 4387 
Q 3406 4025 3406 3419 
Q 3406 3131 3298 2873 
Q 3191 2616 2906 2266 
Q 2828 2175 2409 1742 
Q 1991 1309 1228 531 
z
" transform="scale(0.015625)"/>
       </defs>
       <use xlink:href="#DejaVuSans-2212"/>
       <use xlink:href="#DejaVuSans-32" transform="translate(83.789062 0)"/>
       <use xlink:href="#DejaVuSans-35" transform="translate(147.412109 0)"/>
      </g>
     </g>
    </g>
    <g id="xtick_6">
     <g id="line2d_6">
      <g>
       <use xlink:href="#mf391650bac" x="323.802172" y="307.584" style="stroke: #000000; stroke-width: 0.8"/>
      </g>
     </g>
     <g id="text_6">
      <!-- −20 -->
      <g transform="translate(313.249829 322.182437) scale(0.1 -0.1)">
       <use xlink:href="#DejaVuSans-2212"/>
       <use xlink:href="#DejaVuSans-32" transform="translate(83.789062 0)"/>
       <use xlink:href="#DejaVuSans-30" transform="translate(147.412109 0)"/>
      </g>
     </g>
    </g>
    <g id="xtick_7">
     <g id="line2d_7">
      <g>
       <use xlink:href="#mf391650bac" x="372.647569" y="307.584" style="stroke: #000000; stroke-width: 0.8"/>
      </g>
     </g>
     <g id="text_7">
      <!-- −15 -->
      <g transform="translate(362.095226 322.182437) scale(0.1 -0.1)">
       <defs>
        <path id="DejaVuSans-31" d="M 794 531 
L 1825 531 
L 1825 4091 
L 703 3866 
L 703 4441 
L 1819 4666 
L 2450 4666 
L 2450 531 
L 3481 531 
L 3481 0 
L 794 0 
L 794 531 
z
" transform="scale(0.015625)"/>
       </defs>
       <use xlink:href="#DejaVuSans-2212"/>
       <use xlink:href="#DejaVuSans-31" transform="translate(83.789062 0)"/>
       <use xlink:href="#DejaVuSans-35" transform="translate(147.412109 0)"/>
      </g>
     </g>
    </g>
    <g id="text_8">
     <!-- Position horizontale (en cm) -->
     <g transform="translate(166.1475 335.860562) scale(0.1 -0.1)">
      <defs>
       <path id="DejaVuSans-50" d="M 1259 4147 
L 1259 2394 
L 2053 2394 
Q 2494 2394 2734 2622 
Q 2975 2850 2975 3272 
Q 2975 3691 2734 3919 
Q 2494 4147 2053 4147 
L 1259 4147 
z
M 628 4666 
L 2053 4666 
Q 2838 4666 3239 4311 
Q 3641 3956 3641 3272 
Q 3641 2581 3239 2228 
Q 2838 1875 2053 1875 
L 1259 1875 
L 1259 0 
L 628 0 
L 628 4666 
z
" transform="scale(0.015625)"/>
       <path id="DejaVuSans-6f" d="M 1959 3097 
Q 1497 3097 1228 2736 
Q 959 2375 959 1747 
Q 959 1119 1226 758 
Q 1494 397 1959 397 
Q 2419 397 2687 759 
Q 2956 1122 2956 1747 
Q 2956 2369 2687 2733 
Q 2419 3097 1959 3097 
z
M 1959 3584 
Q 2709 3584 3137 3096 
Q 3566 2609 3566 1747 
Q 3566 888 3137 398 
Q 2709 -91 1959 -91 
Q 1206 -91 779 398 
Q 353 888 353 1747 
Q 353 2609 779 3096 
Q 1206 3584 1959 3584 
z
" transform="scale(0.015625)"/>
       <path id="DejaVuSans-73" d="M 2834 3397 
L 2834 2853 
Q 2591 2978 2328 3040 
Q 2066 3103 1784 3103 
Q 1356 3103 1142 2972 
Q 928 2841 928 2578 
Q 928 2378 1081 2264 
Q 1234 2150 1697 2047 
L 1894 2003 
Q 2506 1872 2764 1633 
Q 3022 1394 3022 966 
Q 3022 478 2636 193 
Q 2250 -91 1575 -91 
Q 1294 -91 989 -36 
Q 684 19 347 128 
L 347 722 
Q 666 556 975 473 
Q 1284 391 1588 391 
Q 1994 391 2212 530 
Q 2431 669 2431 922 
Q 2431 1156 2273 1281 
Q 2116 1406 1581 1522 
L 1381 1569 
Q 847 1681 609 1914 
Q 372 2147 372 2553 
Q 372 3047 722 3315 
Q 1072 3584 1716 3584 
Q 2034 3584 2315 3537 
Q 2597 3491 2834 3397 
z
" transform="scale(0.015625)"/>
       <path id="DejaVuSans-69" d="M 603 3500 
L 1178 3500 
L 1178 0 
L 603 0 
L 603 3500 
z
M 603 4863 
L 1178 4863 
L 1178 4134 
L 603 4134 
L 603 4863 
z
" transform="scale(0.015625)"/>
       <path id="DejaVuSans-74" d="M 1172 4494 
L 1172 3500 
L 2356 3500 
L 2356 3053 
L 1172 3053 
L 1172 1153 
Q 1172 725 1289 603 
Q 1406 481 1766 481 
L 2356 481 
L 2356 0 
L 1766 0 
Q 1100 0 847 248 
Q 594 497 594 1153 
L 594 3053 
L 172 3053 
L 172 3500 
L 594 3500 
L 594 4494 
L 1172 4494 
z
" transform="scale(0.015625)"/>
       <path id="DejaVuSans-6e" d="M 3513 2113 
L 3513 0 
L 2938 0 
L 2938 2094 
Q 2938 2591 2744 2837 
Q 2550 3084 2163 3084 
Q 1697 3084 1428 2787 
Q 1159 2491 1159 1978 
L 1159 0 
L 581 0 
L 581 3500 
L 1159 3500 
L 1159 2956 
Q 1366 3272 1645 3428 
Q 1925 3584 2291 3584 
Q 2894 3584 3203 3211 
Q 3513 2838 3513 2113 
z
" transform="scale(0.015625)"/>
       <path id="DejaVuSans-20" transform="scale(0.015625)"/>
       <path id="DejaVuSans-68" d="M 3513 2113 
L 3513 0 
L 2938 0 
L 2938 2094 
Q 2938 2591 2744 2837 
Q 2550 3084 2163 3084 
Q 1697 3084 1428 2787 
Q 1159 2491 1159 1978 
L 1159 0 
L 581 0 
L 581 4863 
L 1159 4863 
L 1159 2956 
Q 1366 3272 1645 3428 
Q 1925 3584 2291 3584 
Q 2894 3584 3203 3211 
Q 3513 2838 3513 2113 
z
" transform="scale(0.015625)"/>
       <path id="DejaVuSans-72" d="M 2631 2963 
Q 2534 3019 2420 3045 
Q 2306 3072 2169 3072 
Q 1681 3072 1420 2755 
Q 1159 2438 1159 1844 
L 1159 0 
L 581 0 
L 581 3500 
L 1159 3500 
L 1159 2956 
Q 1341 3275 1631 3429 
Q 1922 3584 2338 3584 
Q 2397 3584 2469 3576 
Q 2541 3569 2628 3553 
L 2631 2963 
z
" transform="scale(0.015625)"/>
       <path id="DejaVuSans-7a" d="M 353 3500 
L 3084 3500 
L 3084 2975 
L 922 459 
L 3084 459 
L 3084 0 
L 275 0 
L 275 525 
L 2438 3041 
L 353 3041 
L 353 3500 
z
" transform="scale(0.015625)"/>
       <path id="DejaVuSans-61" d="M 2194 1759 
Q 1497 1759 1228 1600 
Q 959 1441 959 1056 
Q 959 750 1161 570 
Q 1363 391 1709 391 
Q 2188 391 2477 730 
Q 2766 1069 2766 1631 
L 2766 1759 
L 2194 1759 
z
M 3341 1997 
L 3341 0 
L 2766 0 
L 2766 531 
Q 2569 213 2275 61 
Q 1981 -91 1556 -91 
Q 1019 -91 701 211 
Q 384 513 384 1019 
Q 384 1609 779 1909 
Q 1175 2209 1959 2209 
L 2766 2209 
L 2766 2266 
Q 2766 2663 2505 2880 
Q 2244 3097 1772 3097 
Q 1472 3097 1187 3025 
Q 903 2953 641 2809 
L 641 3341 
Q 956 3463 1253 3523 
Q 1550 3584 1831 3584 
Q 2591 3584 2966 3190 
Q 3341 2797 3341 1997 
z
" transform="scale(0.015625)"/>
       <path id="DejaVuSans-6c" d="M 603 4863 
L 1178 4863 
L 1178 0 
L 603 0 
L 603 4863 
z
" transform="scale(0.015625)"/>
       <path id="DejaVuSans-65" d="M 3597 1894 
L 3597 1613 
L 953 1613 
Q 991 1019 1311 708 
Q 1631 397 2203 397 
Q 2534 397 2845 478 
Q 3156 559 3463 722 
L 3463 178 
Q 3153 47 2828 -22 
Q 2503 -91 2169 -91 
Q 1331 -91 842 396 
Q 353 884 353 1716 
Q 353 2575 817 3079 
Q 1281 3584 2069 3584 
Q 2775 3584 3186 3129 
Q 3597 2675 3597 1894 
z
M 3022 2063 
Q 3016 2534 2758 2815 
Q 2500 3097 2075 3097 
Q 1594 3097 1305 2825 
Q 1016 2553 972 2059 
L 3022 2063 
z
" transform="scale(0.015625)"/>
       <path id="DejaVuSans-28" d="M 1984 4856 
Q 1566 4138 1362 3434 
Q 1159 2731 1159 2009 
Q 1159 1288 1364 580 
Q 1569 -128 1984 -844 
L 1484 -844 
Q 1016 -109 783 600 
Q 550 1309 550 2009 
Q 550 2706 781 3412 
Q 1013 4119 1484 4856 
L 1984 4856 
z
" transform="scale(0.015625)"/>
       <path id="DejaVuSans-63" d="M 3122 3366 
L 3122 2828 
Q 2878 2963 2633 3030 
Q 2388 3097 2138 3097 
Q 1578 3097 1268 2742 
Q 959 2388 959 1747 
Q 959 1106 1268 751 
Q 1578 397 2138 397 
Q 2388 397 2633 464 
Q 2878 531 3122 666 
L 3122 134 
Q 2881 22 2623 -34 
Q 2366 -91 2075 -91 
Q 1284 -91 818 406 
Q 353 903 353 1747 
Q 353 2603 823 3093 
Q 1294 3584 2113 3584 
Q 2378 3584 2631 3529 
Q 2884 3475 3122 3366 
z
" transform="scale(0.015625)"/>
       <path id="DejaVuSans-6d" d="M 3328 2828 
Q 3544 3216 3844 3400 
Q 4144 3584 4550 3584 
Q 5097 3584 5394 3201 
Q 5691 2819 5691 2113 
L 5691 0 
L 5113 0 
L 5113 2094 
Q 5113 2597 4934 2840 
Q 4756 3084 4391 3084 
Q 3944 3084 3684 2787 
Q 3425 2491 3425 1978 
L 3425 0 
L 2847 0 
L 2847 2094 
Q 2847 2600 2669 2842 
Q 2491 3084 2119 3084 
Q 1678 3084 1418 2786 
Q 1159 2488 1159 1978 
L 1159 0 
L 581 0 
L 581 3500 
L 1159 3500 
L 1159 2956 
Q 1356 3278 1631 3431 
Q 1906 3584 2284 3584 
Q 2666 3584 2933 3390 
Q 3200 3197 3328 2828 
z
" transform="scale(0.015625)"/>
       <path id="DejaVuSans-29" d="M 513 4856 
L 1013 4856 
Q 1481 4119 1714 3412 
Q 1947 2706 1947 2009 
Q 1947 1309 1714 600 
Q 1481 -109 1013 -844 
L 513 -844 
Q 928 -128 1133 580 
Q 1338 1288 1338 2009 
Q 1338 2731 1133 3434 
Q 928 4138 513 4856 
z
" transform="scale(0.015625)"/>
      </defs>
      <use xlink:href="#DejaVuSans-50"/>
      <use xlink:href="#DejaVuSans-6f" transform="translate(56.677734 0)"/>
      <use xlink:href="#DejaVuSans-73" transform="translate(117.859375 0)"/>
      <use xlink:href="#DejaVuSans-69" transform="translate(169.958984 0)"/>
      <use xlink:href="#DejaVuSans-74" transform="translate(197.742188 0)"/>
      <use xlink:href="#DejaVuSans-69" transform="translate(236.951172 0)"/>
      <use xlink:href="#DejaVuSans-6f" transform="translate(264.734375 0)"/>
      <use xlink:href="#DejaVuSans-6e" transform="translate(325.916016 0)"/>
      <use xlink:href="#DejaVuSans-20" transform="translate(389.294922 0)"/>
      <use xlink:href="#DejaVuSans-68" transform="translate(421.082031 0)"/>
      <use xlink:href="#DejaVuSans-6f" transform="translate(484.460938 0)"/>
      <use xlink:href="#DejaVuSans-72" transform="translate(545.642578 0)"/>
      <use xlink:href="#DejaVuSans-69" transform="translate(586.755859 0)"/>
      <use xlink:href="#DejaVuSans-7a" transform="translate(614.539062 0)"/>
      <use xlink:href="#DejaVuSans-6f" transform="translate(667.029297 0)"/>
      <use xlink:href="#DejaVuSans-6e" transform="translate(728.210938 0)"/>
      <use xlink:href="#DejaVuSans-74" transform="translate(791.589844 0)"/>
      <use xlink:href="#DejaVuSans-61" transform="translate(830.798828 0)"/>
      <use xlink:href="#DejaVuSans-6c" transform="translate(892.078125 0)"/>
      <use xlink:href="#DejaVuSans-65" transform="translate(919.861328 0)"/>
      <use xlink:href="#DejaVuSans-20" transform="translate(981.384766 0)"/>
      <use xlink:href="#DejaVuSans-28" transform="translate(1013.171875 0)"/>
      <use xlink:href="#DejaVuSans-65" transform="translate(1052.185547 0)"/>
      <use xlink:href="#DejaVuSans-6e" transform="translate(1113.708984 0)"/>
      <use xlink:href="#DejaVuSans-20" transform="translate(1177.087891 0)"/>
      <use xlink:href="#DejaVuSans-63" transform="translate(1208.875 0)"/>
      <use xlink:href="#DejaVuSans-6d" transform="translate(1263.855469 0)"/>
      <use xlink:href="#DejaVuSans-29" transform="translate(1361.267578 0)"/>
     </g>
    </g>
   </g>
   <g id="matplotlib.axis_2">
    <g id="ytick_1">
     <g id="line2d_8">
      <defs>
       <path id="md9aa47636f" d="M 0 0 
L -3.5 0 
" style="stroke: #000000; stroke-width: 0.8"/>
      </defs>
      <g>
       <use xlink:href="#md9aa47636f" x="57.6" y="281.871775" style="stroke: #000000; stroke-width: 0.8"/>
      </g>
     </g>
     <g id="text_9">
      <!-- 100 -->
      <g transform="translate(31.5125 285.670994) scale(0.1 -0.1)">
       <use xlink:href="#DejaVuSans-31"/>
       <use xlink:href="#DejaVuSans-30" transform="translate(63.623047 0)"/>
       <use xlink:href="#DejaVuSans-30" transform="translate(127.246094 0)"/>
      </g>
     </g>
    </g>
    <g id="ytick_2">
     <g id="line2d_9">
      <g>
       <use xlink:href="#md9aa47636f" x="57.6" y="225.226674" style="stroke: #000000; stroke-width: 0.8"/>
      </g>
     </g>
     <g id="text_10">
      <!-- 200 -->
      <g transform="translate(31.5125 229.025893) scale(0.1 -0.1)">
       <use xlink:href="#DejaVuSans-32"/>
       <use xlink:href="#DejaVuSans-30" transform="translate(63.623047 0)"/>
       <use xlink:href="#DejaVuSans-30" transform="translate(127.246094 0)"/>
      </g>
     </g>
    </g>
    <g id="ytick_3">
     <g id="line2d_10">
      <g>
       <use xlink:href="#md9aa47636f" x="57.6" y="168.581573" style="stroke: #000000; stroke-width: 0.8"/>
      </g>
     </g>
     <g id="text_11">
      <!-- 300 -->
      <g transform="translate(31.5125 172.380792) scale(0.1 -0.1)">
       <use xlink:href="#DejaVuSans-33"/>
       <use xlink:href="#DejaVuSans-30" transform="translate(63.623047 0)"/>
       <use xlink:href="#DejaVuSans-30" transform="translate(127.246094 0)"/>
      </g>
     </g>
    </g>
    <g id="ytick_4">
     <g id="line2d_11">
      <g>
       <use xlink:href="#md9aa47636f" x="57.6" y="111.936472" style="stroke: #000000; stroke-width: 0.8"/>
      </g>
     </g>
     <g id="text_12">
      <!-- 400 -->
      <g transform="translate(31.5125 115.73569) scale(0.1 -0.1)">
       <use xlink:href="#DejaVuSans-34"/>
       <use xlink:href="#DejaVuSans-30" transform="translate(63.623047 0)"/>
       <use xlink:href="#DejaVuSans-30" transform="translate(127.246094 0)"/>
      </g>
     </g>
    </g>
    <g id="ytick_5">
     <g id="line2d_12">
      <g>
       <use xlink:href="#md9aa47636f" x="57.6" y="55.291371" style="stroke: #000000; stroke-width: 0.8"/>
      </g>
     </g>
     <g id="text_13">
      <!-- 500 -->
      <g transform="translate(31.5125 59.090589) scale(0.1 -0.1)">
       <use xlink:href="#DejaVuSans-35"/>
       <use xlink:href="#DejaVuSans-30" transform="translate(63.623047 0)"/>
       <use xlink:href="#DejaVuSans-30" transform="translate(127.246094 0)"/>
      </g>
     </g>
    </g>
    <g id="text_14">
     <!-- Position verticale (en cm) -->
     <g transform="translate(25.432812 238.245187) rotate(-90) scale(0.1 -0.1)">
      <defs>
       <path id="DejaVuSans-76" d="M 191 3500 
L 800 3500 
L 1894 563 
L 2988 3500 
L 3597 3500 
L 2284 0 
L 1503 0 
L 191 3500 
z
" transform="scale(0.015625)"/>
      </defs>
      <use xlink:href="#DejaVuSans-50"/>
      <use xlink:href="#DejaVuSans-6f" transform="translate(56.677734 0)"/>
      <use xlink:href="#DejaVuSans-73" transform="translate(117.859375 0)"/>
      <use xlink:href="#DejaVuSans-69" transform="translate(169.958984 0)"/>
      <use xlink:href="#DejaVuSans-74" transform="translate(197.742188 0)"/>
      <use xlink:href="#DejaVuSans-69" transform="translate(236.951172 0)"/>
      <use xlink:href="#DejaVuSans-6f" transform="translate(264.734375 0)"/>
      <use xlink:href="#DejaVuSans-6e" transform="translate(325.916016 0)"/>
      <use xlink:href="#DejaVuSans-20" transform="translate(389.294922 0)"/>
      <use xlink:href="#DejaVuSans-76" transform="translate(421.082031 0)"/>
      <use xlink:href="#DejaVuSans-65" transform="translate(480.261719 0)"/>
      <use xlink:href="#DejaVuSans-72" transform="translate(541.785156 0)"/>
      <use xlink:href="#DejaVuSans-74" transform="translate(582.898438 0)"/>
      <use xlink:href="#DejaVuSans-69" transform="translate(622.107422 0)"/>
      <use xlink:href="#DejaVuSans-63" transform="translate(649.890625 0)"/>
      <use xlink:href="#DejaVuSans-61" transform="translate(704.871094 0)"/>
      <use xlink:href="#DejaVuSans-6c" transform="translate(766.150391 0)"/>
      <use xlink:href="#DejaVuSans-65" transform="translate(793.933594 0)"/>
      <use xlink:href="#DejaVuSans-20" transform="translate(855.457031 0)"/>
      <use xlink:href="#DejaVuSans-28" transform="translate(887.244141 0)"/>
      <use xlink:href="#DejaVuSans-65" transform="translate(926.257812 0)"/>
      <use xlink:href="#DejaVuSans-6e" transform="translate(987.78125 0)"/>
      <use xlink:href="#DejaVuSans-20" transform="translate(1051.160156 0)"/>
      <use xlink:href="#DejaVuSans-63" transform="translate(1082.947266 0)"/>
      <use xlink:href="#DejaVuSans-6d" transform="translate(1137.927734 0)"/>
      <use xlink:href="#DejaVuSans-29" transform="translate(1235.339844 0)"/>
     </g>
    </g>
   </g>
   <g id="line2d_13">
    <path d="M 190.060935 53.568 
L 190.106264 53.575137 
L 190.102943 53.581878 
L 189.987081 54.044669 
L 189.892614 54.046708 
L 181.861356 54.048917 
L 181.883044 54.05713 
L 181.699971 54.51352 
L 173.624264 54.503607 
L 173.681706 54.04042 
L 173.575614 54.515163 
L 173.499611 54.518448 
L 172.750322 56.866614 
L 172.668457 56.871316 
L 172.559727 57.341243 
L 172.662107 57.811398 
L 180.890408 58.279116 
L 213.197144 58.301208 
L 213.115865 58.766661 
L 213.165297 58.762129 
L 213.276273 58.758051 
L 221.257904 58.760656 
L 221.196066 58.761563 
L 221.105995 59.226449 
L 221.198704 59.225316 
L 229.11117 59.230528 
L 228.773746 59.68703 
L 228.621446 59.685501 
L 228.597707 60.150217 
L 228.642645 60.149311 
L 228.736428 60.151577 
L 228.772866 60.61618 
L 236.709071 60.614424 
L 236.274152 60.625753 
L 236.10671 61.09806 
L 236.017518 61.101912 
L 235.748478 61.563569 
L 235.629979 61.564702 
L 235.388292 62.033554 
L 227.367682 62.035253 
L 235.230912 62.509996 
L 235.017164 62.975392 
L 226.934716 63.432631 
L 226.751155 63.897461 
L 218.765226 64.353907 
L 218.738166 64.813639 
L 210.427512 65.295858 
L 210.147433 65.766013 
L 193.566863 66.692103 
L 177.407438 66.707341 
L 169.196331 67.165317 
L 152.933549 67.164864 
L 136.668521 68.097865 
L 136.516416 68.559466 
L 128.517494 68.556464 
L 128.550513 68.565187 
L 128.547778 69.971402 
L 136.510359 69.977463 
L 136.291532 70.4398 
L 136.163166 70.442066 
L 135.68409 71.370876 
L 135.599295 71.375577 
L 135.487927 71.840067 
L 135.527004 71.846185 
L 143.494762 72.320814 
L 143.472098 72.784964 
L 151.541651 72.798389 
L 151.578578 73.275907 
L 159.60925 74.211741 
L 175.601819 75.158847 
L 175.65086 75.638404 
L 191.65437 77.059403 
L 191.682896 77.535562 
L 199.628479 78.474398 
L 207.543875 78.946478 
L 207.456051 79.882765 
L 215.34302 80.354279 
L 215.133375 81.285354 
L 215.175187 81.292718 
L 215.288508 82.229458 
L 223.217582 82.237445 
L 222.879376 82.701765 
L 222.763808 82.710205 
L 222.497796 83.179113 
L 222.38213 83.188573 
L 222.11729 83.654422 
L 214.095704 83.652157 
L 213.986779 84.111775 
L 205.753301 84.586744 
L 205.590157 85.051121 
L 197.568961 85.05197 
L 197.521777 85.51629 
L 197.375924 85.521105 
L 189.263779 85.985878 
L 189.134241 86.449178 
L 181.099271 86.449348 
L 180.972956 86.9182 
L 164.554553 87.86236 
L 164.334651 88.338293 
L 156.097656 88.813828 
L 147.788957 89.751588 
L 139.56007 90.227293 
L 131.3305 91.157066 
L 123.243656 91.621273 
L 123.035282 92.090747 
L 106.620493 93.030489 
L 90.19193 94.895983 
L 82.249961 95.362002 
L 82.124624 95.841446 
L 81.87561 96.316642 
L 73.832727 96.779602 
L 73.995969 96.790365 
L 74.089849 97.25695 
L 82.054384 97.261879 
L 81.989909 97.276606 
L 81.880104 97.753331 
L 81.884012 98.218728 
L 89.852747 98.228584 
L 89.721353 99.150483 
L 97.746847 99.159886 
L 97.782993 99.632646 
L 113.732969 100.59431 
L 113.689301 101.528331 
L 121.763445 102.007718 
L 129.714792 102.941116 
L 137.651876 103.415689 
L 145.478765 104.345858 
L 169.24293 105.771445 
L 177.065422 106.703994 
L 184.948874 107.172279 
L 184.971929 107.638128 
L 200.924738 108.573792 
L 200.905004 109.034883 
L 208.960392 109.044739 
L 209.002399 109.510645 
L 217.079474 109.523164 
L 217.130371 109.989523 
L 225.199044 109.99615 
L 225.202463 110.45254 
L 233.341572 110.46251 
L 241.294384 110.934646 
L 241.305618 111.398966 
L 249.328768 111.40752 
L 249.248759 111.869177 
L 257.209777 111.881243 
L 257.168747 112.837582 
L 257.211047 113.301335 
L 265.164446 113.314874 
L 264.844899 114.272629 
L 264.662901 115.665872 
L 272.537756 116.14424 
L 272.163796 117.559291 
L 272.003094 118.505887 
L 279.94008 119.455203 
L 279.35462 121.814811 
L 271.213948 122.759198 
L 270.817519 125.11841 
L 269.04404 130.805691 
L 261.003013 130.808297 
L 260.897996 132.674017 
L 268.865461 132.675093 
L 268.857158 132.681381 
L 268.861261 133.145757 
L 276.877572 133.162128 
L 276.875032 133.628203 
L 284.87327 133.633755 
L 284.818466 133.643498 
L 284.755064 134.108611 
L 284.819638 134.110933 
L 292.810549 134.123452 
L 292.761509 134.597854 
L 292.849235 134.589697 
L 300.841221 135.06546 
L 300.849134 135.526551 
L 308.893776 135.531819 
L 308.895046 135.998801 
L 324.893183 136.939393 
L 324.805945 137.413965 
L 324.766185 138.34861 
L 332.788065 138.829583 
L 332.730232 139.766323 
L 340.678257 140.247807 
L 340.524003 141.659176 
L 348.398174 142.600334 
L 348.252615 143.077569 
L 348.08869 144.483331 
L 356.059868 144.962662 
L 355.984548 145.914413 
L 363.927689 146.390061 
L 363.643995 147.793387 
L 363.719315 147.800411 
L 363.66705 148.265298 
L 363.622601 148.253402 
L 363.516313 148.24145 
L 363.431224 147.781039 
L 347.248842 147.791914 
L 347.124872 148.737831 
L 347.036365 148.738511 
L 346.86267 149.215179 
L 338.695818 150.145405 
L 338.662017 150.620488 
L 338.231298 152.506769 
L 330.071967 152.979076 
L 321.789351 154.855275 
L 321.5969 155.784368 
L 313.532428 156.251407 
L 313.48114 156.723261 
L 313.265829 157.194945 
L 305.068986 157.662776 
L 304.877902 158.124887 
L 272.298511 159.999557 
L 272.312774 160.009413 
L 272.199746 160.480191 
L 264.09903 160.939129 
L 264.122964 160.948759 
L 263.991081 161.422085 
L 255.878936 161.880344 
L 255.907168 161.88261 
L 255.727808 162.345797 
L 247.629046 162.803036 
L 247.571701 163.283783 
L 247.513282 163.277779 
L 247.358833 163.755184 
L 239.359911 163.748726 
L 239.468641 163.759319 
L 239.616349 164.706765 
L 239.679457 165.18298 
L 247.590262 165.654437 
L 247.431515 166.121646 
L 247.462288 166.593217 
L 263.420079 167.532109 
L 263.42594 167.990028 
L 271.469409 168.46715 
L 279.45446 168.464941 
L 279.397603 169.39409 
L 287.525282 169.402927 
L 295.496265 169.877896 
L 295.542961 170.350939 
L 303.558979 171.757664 
L 311.460504 172.24062 
L 311.412733 173.181495 
L 319.409799 173.666094 
L 319.466655 174.136022 
L 327.513348 174.620111 
L 335.371498 175.559173 
L 335.339162 176.034822 
L 343.217631 176.973545 
L 343.210207 177.451403 
L 351.152078 178.395507 
L 351.095808 179.326242 
L 359.091213 179.805516 
L 359.02957 181.221984 
L 366.964212 182.164615 
L 366.862614 183.577174 
L 374.83809 184.049934 
L 374.78817 184.993585 
L 382.757101 185.470197 
L 382.025592 188.781726 
L 373.935232 189.249388 
L 381.893319 189.728095 
L 373.749815 190.656792 
L 373.59898 193.012832 
L 373.188874 194.901946 
L 365.027492 195.836533 
L 365.02251 196.312635 
L 364.793816 197.72848 
L 356.633313 198.667372 
L 356.412043 200.070585 
L 348.30234 200.542325 
L 348.151505 201.476289 
L 339.905816 202.407988 
L 331.824247 202.869476 
L 331.681619 203.340027 
L 323.533425 203.812277 
L 323.557945 203.817885 
L 315.312842 204.75774 
L 307.211931 205.225572 
L 307.122055 205.693461 
L 290.850677 206.624366 
L 290.773306 207.092141 
L 282.642208 207.554196 
L 282.64465 207.55918 
L 282.532599 208.030524 
L 274.365453 208.500395 
L 274.140569 208.971343 
L 265.999702 209.43351 
L 266.044835 209.440534 
L 265.805297 210.383732 
L 265.760359 210.391775 
L 265.13719 212.736089 
L 264.954996 214.14321 
L 265.058842 215.084935 
L 272.994851 215.566079 
L 272.617862 217.444147 
L 272.57312 219.325444 
L 280.540488 219.803472 
L 280.158712 221.691906 
L 279.948775 223.571731 
L 279.901297 224.508018 
L 287.877946 224.977436 
L 287.706694 225.907208 
L 287.74323 225.91123 
L 295.688227 226.386256 
L 295.57559 226.850463 
L 295.675039 226.858563 
L 311.687146 227.798702 
L 319.685287 227.807198 
L 319.64328 228.281148 
L 327.614849 228.756853 
L 327.545586 229.693367 
L 335.551933 230.16556 
L 335.527412 230.637301 
L 343.487747 231.117368 
L 343.307995 232.520184 
L 351.315124 232.996456 
L 351.278099 233.471652 
L 359.180893 234.410431 
L 358.996355 235.818288 
L 366.990588 236.293031 
L 366.936956 236.770266 
L 374.862903 237.713067 
L 374.82031 238.185261 
L 382.778007 238.663628 
L 382.607146 240.064009 
L 390.570997 240.533087 
L 390.54677 240.537732 
L 390.48415 241.948704 
L 398.487273 241.955502 
L 398.046492 243.826433 
L 396.891005 251.31922 
L 396.934087 251.324602 
L 396.911618 251.792547 
L 396.970525 251.794416 
L 397.154966 251.811863 
L 397.238394 251.348279 
L 397.196094 251.355133 
L 389.170306 251.358759 
L 389.155262 251.821889 
L 389.054934 251.818264 
L 381.010292 251.818547 
L 380.875186 252.286492 
L 372.778963 252.747866 
L 372.804656 252.750585 
L 372.661441 253.218134 
L 364.525752 253.676789 
L 364.428452 254.152665 
L 356.382052 254.154874 
L 356.195267 255.088669 
L 348.070519 255.557973 
L 347.887251 256.502927 
L 339.586074 257.90308 
L 331.415314 258.841067 
L 331.242987 259.789136 
L 306.471044 264.011631 
L 306.263646 264.955056 
L 297.917336 266.359118 
L 289.689622 267.2975 
L 289.444711 268.241491 
L 281.197166 269.183046 
L 272.779443 271.062417 
L 264.572244 271.998874 
L 264.458923 272.473843 
L 256.245178 273.411036 
L 256.058882 274.348966 
L 247.889001 274.820366 
L 239.697432 275.761695 
L 231.460047 277.163378 
L 231.228422 278.101194 
L 222.913568 279.040257 
L 214.544007 280.442619 
L 206.268131 281.383664 
L 197.951519 282.787811 
L 189.778804 283.729225 
L 189.520998 285.137003 
L 181.353267 286.07606 
L 180.860612 288.416159 
L 180.621563 289.359453 
L 172.336309 290.761114 
L 171.831931 295.014555 
L 179.883899 295.484091 
L 196.129976 294.548507 
L 196.424318 292.198262 
L 197.008705 288.424713 
L 196.972168 287.947364 
L 188.947847 287.471614 
L 189.008415 286.538431 
L 181.094484 285.598264 
L 181.094484 285.598264 
" clip-path="url(#p618ff530f4)" style="fill: none; stroke: #1f77b4; stroke-width: 1.5; stroke-linecap: square"/>
   </g>
   <g id="patch_3">
    <path d="M 57.6 307.584 
L 57.6 41.472 
" style="fill: none; stroke: #000000; stroke-width: 0.8; stroke-linejoin: miter; stroke-linecap: square"/>
   </g>
   <g id="patch_4">
    <path d="M 414.72 307.584 
L 414.72 41.472 
" style="fill: none; stroke: #000000; stroke-width: 0.8; stroke-linejoin: miter; stroke-linecap: square"/>
   </g>
   <g id="patch_5">
    <path d="M 57.6 307.584 
L 414.72 307.584 
" style="fill: none; stroke: #000000; stroke-width: 0.8; stroke-linejoin: miter; stroke-linecap: square"/>
   </g>
   <g id="patch_6">
    <path d="M 57.6 41.472 
L 414.72 41.472 
" style="fill: none; stroke: #000000; stroke-width: 0.8; stroke-linejoin: miter; stroke-linecap: square"/>
   </g>
  </g>
 </g>
 <defs>
  <clipPath id="p618ff530f4">
   <rect x="57.6" y="41.472" width="357.12" height="266.112"/>
  </clipPath>
 </defs>
</svg>
