<?xml version="1.0" encoding="utf-8" standalone="no"?>
<!DOCTYPE svg PUBLIC "-//W3C//DTD SVG 1.1//EN"
  "http://www.w3.org/Graphics/SVG/1.1/DTD/svg11.dtd">
<svg xmlns:xlink="http://www.w3.org/1999/xlink" width="460.8pt" height="345.6pt" viewBox="0 0 460.8 345.6" xmlns="http://www.w3.org/2000/svg" version="1.1">
 <metadata>
  <rdf:RDF xmlns:dc="http://purl.org/dc/elements/1.1/" xmlns:cc="http://creativecommons.org/ns#" xmlns:rdf="http://www.w3.org/1999/02/22-rdf-syntax-ns#">
   <cc:Work>
    <dc:type rdf:resource="http://purl.org/dc/dcmitype/StillImage"/>
    <dc:date>2025-03-19T00:43:29.305296</dc:date>
    <dc:format>image/svg+xml</dc:format>
    <dc:creator>
     <cc:Agent>
      <dc:title>Matplotlib v3.10.0, https://matplotlib.org/</dc:title>
     </cc:Agent>
    </dc:creator>
   </cc:Work>
  </rdf:RDF>
 </metadata>
 <defs>
  <style type="text/css">*{stroke-linejoin: round; stroke-linecap: butt}</style>
 </defs>
 <g id="figure_1">
  <g id="patch_1">
   <path d="M 0 345.6 
L 460.8 345.6 
L 460.8 0 
L 0 0 
z
" style="fill: #ffffff"/>
  </g>
  <g id="axes_1">
   <g id="patch_2">
    <path d="M 57.6 307.584 
L 414.72 307.584 
L 414.72 41.472 
L 57.6 41.472 
z
" style="fill: #ffffff"/>
   </g>
   <g id="matplotlib.axis_1">
    <g id="xtick_1">
     <g id="line2d_1">
      <defs>
       <path id="mc48f6896de" d="M 0 0 
L 0 3.5 
" style="stroke: #000000; stroke-width: 0.8"/>
      </defs>
      <g>
       <use xlink:href="#mc48f6896de" x="89.624297" y="307.584" style="stroke: #000000; stroke-width: 0.8"/>
      </g>
     </g>
     <g id="text_1">
      <!-- 40 -->
      <g transform="translate(83.261797 322.182437) scale(0.1 -0.1)">
       <defs>
        <path id="DejaVuSans-34" d="M 2419 4116 
L 825 1625 
L 2419 1625 
L 2419 4116 
z
M 2253 4666 
L 3047 4666 
L 3047 1625 
L 3713 1625 
L 3713 1100 
L 3047 1100 
L 3047 0 
L 2419 0 
L 2419 1100 
L 313 1100 
L 313 1709 
L 2253 4666 
z
" transform="scale(0.015625)"/>
        <path id="DejaVuSans-30" d="M 2034 4250 
Q 1547 4250 1301 3770 
Q 1056 3291 1056 2328 
Q 1056 1369 1301 889 
Q 1547 409 2034 409 
Q 2525 409 2770 889 
Q 3016 1369 3016 2328 
Q 3016 3291 2770 3770 
Q 2525 4250 2034 4250 
z
M 2034 4750 
Q 2819 4750 3233 4129 
Q 3647 3509 3647 2328 
Q 3647 1150 3233 529 
Q 2819 -91 2034 -91 
Q 1250 -91 836 529 
Q 422 1150 422 2328 
Q 422 3509 836 4129 
Q 1250 4750 2034 4750 
z
" transform="scale(0.015625)"/>
       </defs>
       <use xlink:href="#DejaVuSans-34"/>
       <use xlink:href="#DejaVuSans-30" transform="translate(63.623047 0)"/>
      </g>
     </g>
    </g>
    <g id="xtick_2">
     <g id="line2d_2">
      <g>
       <use xlink:href="#mc48f6896de" x="168.582147" y="307.584" style="stroke: #000000; stroke-width: 0.8"/>
      </g>
     </g>
     <g id="text_2">
      <!-- 60 -->
      <g transform="translate(162.219647 322.182437) scale(0.1 -0.1)">
       <defs>
        <path id="DejaVuSans-36" d="M 2113 2584 
Q 1688 2584 1439 2293 
Q 1191 2003 1191 1497 
Q 1191 994 1439 701 
Q 1688 409 2113 409 
Q 2538 409 2786 701 
Q 3034 994 3034 1497 
Q 3034 2003 2786 2293 
Q 2538 2584 2113 2584 
z
M 3366 4563 
L 3366 3988 
Q 3128 4100 2886 4159 
Q 2644 4219 2406 4219 
Q 1781 4219 1451 3797 
Q 1122 3375 1075 2522 
Q 1259 2794 1537 2939 
Q 1816 3084 2150 3084 
Q 2853 3084 3261 2657 
Q 3669 2231 3669 1497 
Q 3669 778 3244 343 
Q 2819 -91 2113 -91 
Q 1303 -91 875 529 
Q 447 1150 447 2328 
Q 447 3434 972 4092 
Q 1497 4750 2381 4750 
Q 2619 4750 2861 4703 
Q 3103 4656 3366 4563 
z
" transform="scale(0.015625)"/>
       </defs>
       <use xlink:href="#DejaVuSans-36"/>
       <use xlink:href="#DejaVuSans-30" transform="translate(63.623047 0)"/>
      </g>
     </g>
    </g>
    <g id="xtick_3">
     <g id="line2d_3">
      <g>
       <use xlink:href="#mc48f6896de" x="247.539998" y="307.584" style="stroke: #000000; stroke-width: 0.8"/>
      </g>
     </g>
     <g id="text_3">
      <!-- 80 -->
      <g transform="translate(241.177498 322.182437) scale(0.1 -0.1)">
       <defs>
        <path id="DejaVuSans-38" d="M 2034 2216 
Q 1584 2216 1326 1975 
Q 1069 1734 1069 1313 
Q 1069 891 1326 650 
Q 1584 409 2034 409 
Q 2484 409 2743 651 
Q 3003 894 3003 1313 
Q 3003 1734 2745 1975 
Q 2488 2216 2034 2216 
z
M 1403 2484 
Q 997 2584 770 2862 
Q 544 3141 544 3541 
Q 544 4100 942 4425 
Q 1341 4750 2034 4750 
Q 2731 4750 3128 4425 
Q 3525 4100 3525 3541 
Q 3525 3141 3298 2862 
Q 3072 2584 2669 2484 
Q 3125 2378 3379 2068 
Q 3634 1759 3634 1313 
Q 3634 634 3220 271 
Q 2806 -91 2034 -91 
Q 1263 -91 848 271 
Q 434 634 434 1313 
Q 434 1759 690 2068 
Q 947 2378 1403 2484 
z
M 1172 3481 
Q 1172 3119 1398 2916 
Q 1625 2713 2034 2713 
Q 2441 2713 2670 2916 
Q 2900 3119 2900 3481 
Q 2900 3844 2670 4047 
Q 2441 4250 2034 4250 
Q 1625 4250 1398 4047 
Q 1172 3844 1172 3481 
z
" transform="scale(0.015625)"/>
       </defs>
       <use xlink:href="#DejaVuSans-38"/>
       <use xlink:href="#DejaVuSans-30" transform="translate(63.623047 0)"/>
      </g>
     </g>
    </g>
    <g id="xtick_4">
     <g id="line2d_4">
      <g>
       <use xlink:href="#mc48f6896de" x="326.497848" y="307.584" style="stroke: #000000; stroke-width: 0.8"/>
      </g>
     </g>
     <g id="text_4">
      <!-- 100 -->
      <g transform="translate(316.954098 322.182437) scale(0.1 -0.1)">
       <defs>
        <path id="DejaVuSans-31" d="M 794 531 
L 1825 531 
L 1825 4091 
L 703 3866 
L 703 4441 
L 1819 4666 
L 2450 4666 
L 2450 531 
L 3481 531 
L 3481 0 
L 794 0 
L 794 531 
z
" transform="scale(0.015625)"/>
       </defs>
       <use xlink:href="#DejaVuSans-31"/>
       <use xlink:href="#DejaVuSans-30" transform="translate(63.623047 0)"/>
       <use xlink:href="#DejaVuSans-30" transform="translate(127.246094 0)"/>
      </g>
     </g>
    </g>
    <g id="xtick_5">
     <g id="line2d_5">
      <g>
       <use xlink:href="#mc48f6896de" x="405.455698" y="307.584" style="stroke: #000000; stroke-width: 0.8"/>
      </g>
     </g>
     <g id="text_5">
      <!-- 120 -->
      <g transform="translate(395.911948 322.182437) scale(0.1 -0.1)">
       <defs>
        <path id="DejaVuSans-32" d="M 1228 531 
L 3431 531 
L 3431 0 
L 469 0 
L 469 531 
Q 828 903 1448 1529 
Q 2069 2156 2228 2338 
Q 2531 2678 2651 2914 
Q 2772 3150 2772 3378 
Q 2772 3750 2511 3984 
Q 2250 4219 1831 4219 
Q 1534 4219 1204 4116 
Q 875 4013 500 3803 
L 500 4441 
Q 881 4594 1212 4672 
Q 1544 4750 1819 4750 
Q 2544 4750 2975 4387 
Q 3406 4025 3406 3419 
Q 3406 3131 3298 2873 
Q 3191 2616 2906 2266 
Q 2828 2175 2409 1742 
Q 1991 1309 1228 531 
z
" transform="scale(0.015625)"/>
       </defs>
       <use xlink:href="#DejaVuSans-31"/>
       <use xlink:href="#DejaVuSans-32" transform="translate(63.623047 0)"/>
       <use xlink:href="#DejaVuSans-30" transform="translate(127.246094 0)"/>
      </g>
     </g>
    </g>
    <g id="text_6">
     <!-- Position horizontale (en pixel) -->
     <g transform="translate(161.935 335.860562) scale(0.1 -0.1)">
      <defs>
       <path id="DejaVuSans-50" d="M 1259 4147 
L 1259 2394 
L 2053 2394 
Q 2494 2394 2734 2622 
Q 2975 2850 2975 3272 
Q 2975 3691 2734 3919 
Q 2494 4147 2053 4147 
L 1259 4147 
z
M 628 4666 
L 2053 4666 
Q 2838 4666 3239 4311 
Q 3641 3956 3641 3272 
Q 3641 2581 3239 2228 
Q 2838 1875 2053 1875 
L 1259 1875 
L 1259 0 
L 628 0 
L 628 4666 
z
" transform="scale(0.015625)"/>
       <path id="DejaVuSans-6f" d="M 1959 3097 
Q 1497 3097 1228 2736 
Q 959 2375 959 1747 
Q 959 1119 1226 758 
Q 1494 397 1959 397 
Q 2419 397 2687 759 
Q 2956 1122 2956 1747 
Q 2956 2369 2687 2733 
Q 2419 3097 1959 3097 
z
M 1959 3584 
Q 2709 3584 3137 3096 
Q 3566 2609 3566 1747 
Q 3566 888 3137 398 
Q 2709 -91 1959 -91 
Q 1206 -91 779 398 
Q 353 888 353 1747 
Q 353 2609 779 3096 
Q 1206 3584 1959 3584 
z
" transform="scale(0.015625)"/>
       <path id="DejaVuSans-73" d="M 2834 3397 
L 2834 2853 
Q 2591 2978 2328 3040 
Q 2066 3103 1784 3103 
Q 1356 3103 1142 2972 
Q 928 2841 928 2578 
Q 928 2378 1081 2264 
Q 1234 2150 1697 2047 
L 1894 2003 
Q 2506 1872 2764 1633 
Q 3022 1394 3022 966 
Q 3022 478 2636 193 
Q 2250 -91 1575 -91 
Q 1294 -91 989 -36 
Q 684 19 347 128 
L 347 722 
Q 666 556 975 473 
Q 1284 391 1588 391 
Q 1994 391 2212 530 
Q 2431 669 2431 922 
Q 2431 1156 2273 1281 
Q 2116 1406 1581 1522 
L 1381 1569 
Q 847 1681 609 1914 
Q 372 2147 372 2553 
Q 372 3047 722 3315 
Q 1072 3584 1716 3584 
Q 2034 3584 2315 3537 
Q 2597 3491 2834 3397 
z
" transform="scale(0.015625)"/>
       <path id="DejaVuSans-69" d="M 603 3500 
L 1178 3500 
L 1178 0 
L 603 0 
L 603 3500 
z
M 603 4863 
L 1178 4863 
L 1178 4134 
L 603 4134 
L 603 4863 
z
" transform="scale(0.015625)"/>
       <path id="DejaVuSans-74" d="M 1172 4494 
L 1172 3500 
L 2356 3500 
L 2356 3053 
L 1172 3053 
L 1172 1153 
Q 1172 725 1289 603 
Q 1406 481 1766 481 
L 2356 481 
L 2356 0 
L 1766 0 
Q 1100 0 847 248 
Q 594 497 594 1153 
L 594 3053 
L 172 3053 
L 172 3500 
L 594 3500 
L 594 4494 
L 1172 4494 
z
" transform="scale(0.015625)"/>
       <path id="DejaVuSans-6e" d="M 3513 2113 
L 3513 0 
L 2938 0 
L 2938 2094 
Q 2938 2591 2744 2837 
Q 2550 3084 2163 3084 
Q 1697 3084 1428 2787 
Q 1159 2491 1159 1978 
L 1159 0 
L 581 0 
L 581 3500 
L 1159 3500 
L 1159 2956 
Q 1366 3272 1645 3428 
Q 1925 3584 2291 3584 
Q 2894 3584 3203 3211 
Q 3513 2838 3513 2113 
z
" transform="scale(0.015625)"/>
       <path id="DejaVuSans-20" transform="scale(0.015625)"/>
       <path id="DejaVuSans-68" d="M 3513 2113 
L 3513 0 
L 2938 0 
L 2938 2094 
Q 2938 2591 2744 2837 
Q 2550 3084 2163 3084 
Q 1697 3084 1428 2787 
Q 1159 2491 1159 1978 
L 1159 0 
L 581 0 
L 581 4863 
L 1159 4863 
L 1159 2956 
Q 1366 3272 1645 3428 
Q 1925 3584 2291 3584 
Q 2894 3584 3203 3211 
Q 3513 2838 3513 2113 
z
" transform="scale(0.015625)"/>
       <path id="DejaVuSans-72" d="M 2631 2963 
Q 2534 3019 2420 3045 
Q 2306 3072 2169 3072 
Q 1681 3072 1420 2755 
Q 1159 2438 1159 1844 
L 1159 0 
L 581 0 
L 581 3500 
L 1159 3500 
L 1159 2956 
Q 1341 3275 1631 3429 
Q 1922 3584 2338 3584 
Q 2397 3584 2469 3576 
Q 2541 3569 2628 3553 
L 2631 2963 
z
" transform="scale(0.015625)"/>
       <path id="DejaVuSans-7a" d="M 353 3500 
L 3084 3500 
L 3084 2975 
L 922 459 
L 3084 459 
L 3084 0 
L 275 0 
L 275 525 
L 2438 3041 
L 353 3041 
L 353 3500 
z
" transform="scale(0.015625)"/>
       <path id="DejaVuSans-61" d="M 2194 1759 
Q 1497 1759 1228 1600 
Q 959 1441 959 1056 
Q 959 750 1161 570 
Q 1363 391 1709 391 
Q 2188 391 2477 730 
Q 2766 1069 2766 1631 
L 2766 1759 
L 2194 1759 
z
M 3341 1997 
L 3341 0 
L 2766 0 
L 2766 531 
Q 2569 213 2275 61 
Q 1981 -91 1556 -91 
Q 1019 -91 701 211 
Q 384 513 384 1019 
Q 384 1609 779 1909 
Q 1175 2209 1959 2209 
L 2766 2209 
L 2766 2266 
Q 2766 2663 2505 2880 
Q 2244 3097 1772 3097 
Q 1472 3097 1187 3025 
Q 903 2953 641 2809 
L 641 3341 
Q 956 3463 1253 3523 
Q 1550 3584 1831 3584 
Q 2591 3584 2966 3190 
Q 3341 2797 3341 1997 
z
" transform="scale(0.015625)"/>
       <path id="DejaVuSans-6c" d="M 603 4863 
L 1178 4863 
L 1178 0 
L 603 0 
L 603 4863 
z
" transform="scale(0.015625)"/>
       <path id="DejaVuSans-65" d="M 3597 1894 
L 3597 1613 
L 953 1613 
Q 991 1019 1311 708 
Q 1631 397 2203 397 
Q 2534 397 2845 478 
Q 3156 559 3463 722 
L 3463 178 
Q 3153 47 2828 -22 
Q 2503 -91 2169 -91 
Q 1331 -91 842 396 
Q 353 884 353 1716 
Q 353 2575 817 3079 
Q 1281 3584 2069 3584 
Q 2775 3584 3186 3129 
Q 3597 2675 3597 1894 
z
M 3022 2063 
Q 3016 2534 2758 2815 
Q 2500 3097 2075 3097 
Q 1594 3097 1305 2825 
Q 1016 2553 972 2059 
L 3022 2063 
z
" transform="scale(0.015625)"/>
       <path id="DejaVuSans-28" d="M 1984 4856 
Q 1566 4138 1362 3434 
Q 1159 2731 1159 2009 
Q 1159 1288 1364 580 
Q 1569 -128 1984 -844 
L 1484 -844 
Q 1016 -109 783 600 
Q 550 1309 550 2009 
Q 550 2706 781 3412 
Q 1013 4119 1484 4856 
L 1984 4856 
z
" transform="scale(0.015625)"/>
       <path id="DejaVuSans-70" d="M 1159 525 
L 1159 -1331 
L 581 -1331 
L 581 3500 
L 1159 3500 
L 1159 2969 
Q 1341 3281 1617 3432 
Q 1894 3584 2278 3584 
Q 2916 3584 3314 3078 
Q 3713 2572 3713 1747 
Q 3713 922 3314 415 
Q 2916 -91 2278 -91 
Q 1894 -91 1617 61 
Q 1341 213 1159 525 
z
M 3116 1747 
Q 3116 2381 2855 2742 
Q 2594 3103 2138 3103 
Q 1681 3103 1420 2742 
Q 1159 2381 1159 1747 
Q 1159 1113 1420 752 
Q 1681 391 2138 391 
Q 2594 391 2855 752 
Q 3116 1113 3116 1747 
z
" transform="scale(0.015625)"/>
       <path id="DejaVuSans-78" d="M 3513 3500 
L 2247 1797 
L 3578 0 
L 2900 0 
L 1881 1375 
L 863 0 
L 184 0 
L 1544 1831 
L 300 3500 
L 978 3500 
L 1906 2253 
L 2834 3500 
L 3513 3500 
z
" transform="scale(0.015625)"/>
       <path id="DejaVuSans-29" d="M 513 4856 
L 1013 4856 
Q 1481 4119 1714 3412 
Q 1947 2706 1947 2009 
Q 1947 1309 1714 600 
Q 1481 -109 1013 -844 
L 513 -844 
Q 928 -128 1133 580 
Q 1338 1288 1338 2009 
Q 1338 2731 1133 3434 
Q 928 4138 513 4856 
z
" transform="scale(0.015625)"/>
      </defs>
      <use xlink:href="#DejaVuSans-50"/>
      <use xlink:href="#DejaVuSans-6f" transform="translate(56.677734 0)"/>
      <use xlink:href="#DejaVuSans-73" transform="translate(117.859375 0)"/>
      <use xlink:href="#DejaVuSans-69" transform="translate(169.958984 0)"/>
      <use xlink:href="#DejaVuSans-74" transform="translate(197.742188 0)"/>
      <use xlink:href="#DejaVuSans-69" transform="translate(236.951172 0)"/>
      <use xlink:href="#DejaVuSans-6f" transform="translate(264.734375 0)"/>
      <use xlink:href="#DejaVuSans-6e" transform="translate(325.916016 0)"/>
      <use xlink:href="#DejaVuSans-20" transform="translate(389.294922 0)"/>
      <use xlink:href="#DejaVuSans-68" transform="translate(421.082031 0)"/>
      <use xlink:href="#DejaVuSans-6f" transform="translate(484.460938 0)"/>
      <use xlink:href="#DejaVuSans-72" transform="translate(545.642578 0)"/>
      <use xlink:href="#DejaVuSans-69" transform="translate(586.755859 0)"/>
      <use xlink:href="#DejaVuSans-7a" transform="translate(614.539062 0)"/>
      <use xlink:href="#DejaVuSans-6f" transform="translate(667.029297 0)"/>
      <use xlink:href="#DejaVuSans-6e" transform="translate(728.210938 0)"/>
      <use xlink:href="#DejaVuSans-74" transform="translate(791.589844 0)"/>
      <use xlink:href="#DejaVuSans-61" transform="translate(830.798828 0)"/>
      <use xlink:href="#DejaVuSans-6c" transform="translate(892.078125 0)"/>
      <use xlink:href="#DejaVuSans-65" transform="translate(919.861328 0)"/>
      <use xlink:href="#DejaVuSans-20" transform="translate(981.384766 0)"/>
      <use xlink:href="#DejaVuSans-28" transform="translate(1013.171875 0)"/>
      <use xlink:href="#DejaVuSans-65" transform="translate(1052.185547 0)"/>
      <use xlink:href="#DejaVuSans-6e" transform="translate(1113.708984 0)"/>
      <use xlink:href="#DejaVuSans-20" transform="translate(1177.087891 0)"/>
      <use xlink:href="#DejaVuSans-70" transform="translate(1208.875 0)"/>
      <use xlink:href="#DejaVuSans-69" transform="translate(1272.351562 0)"/>
      <use xlink:href="#DejaVuSans-78" transform="translate(1300.134766 0)"/>
      <use xlink:href="#DejaVuSans-65" transform="translate(1356.189453 0)"/>
      <use xlink:href="#DejaVuSans-6c" transform="translate(1417.712891 0)"/>
      <use xlink:href="#DejaVuSans-29" transform="translate(1445.496094 0)"/>
     </g>
    </g>
   </g>
   <g id="matplotlib.axis_2">
    <g id="ytick_1">
     <g id="line2d_6">
      <defs>
       <path id="m107d9c9279" d="M 0 0 
L -3.5 0 
" style="stroke: #000000; stroke-width: 0.8"/>
      </defs>
      <g>
       <use xlink:href="#m107d9c9279" x="57.6" y="298.247544" style="stroke: #000000; stroke-width: 0.8"/>
      </g>
     </g>
     <g id="text_7">
      <!-- −200 -->
      <g transform="translate(23.132812 302.046762) scale(0.1 -0.1)">
       <defs>
        <path id="DejaVuSans-2212" d="M 678 2272 
L 4684 2272 
L 4684 1741 
L 678 1741 
L 678 2272 
z
" transform="scale(0.015625)"/>
       </defs>
       <use xlink:href="#DejaVuSans-2212"/>
       <use xlink:href="#DejaVuSans-32" transform="translate(83.789062 0)"/>
       <use xlink:href="#DejaVuSans-30" transform="translate(147.412109 0)"/>
       <use xlink:href="#DejaVuSans-30" transform="translate(211.035156 0)"/>
      </g>
     </g>
    </g>
    <g id="ytick_2">
     <g id="line2d_7">
      <g>
       <use xlink:href="#m107d9c9279" x="57.6" y="267.585947" style="stroke: #000000; stroke-width: 0.8"/>
      </g>
     </g>
     <g id="text_8">
      <!-- −100 -->
      <g transform="translate(23.132812 271.385166) scale(0.1 -0.1)">
       <use xlink:href="#DejaVuSans-2212"/>
       <use xlink:href="#DejaVuSans-31" transform="translate(83.789062 0)"/>
       <use xlink:href="#DejaVuSans-30" transform="translate(147.412109 0)"/>
       <use xlink:href="#DejaVuSans-30" transform="translate(211.035156 0)"/>
      </g>
     </g>
    </g>
    <g id="ytick_3">
     <g id="line2d_8">
      <g>
       <use xlink:href="#m107d9c9279" x="57.6" y="236.92435" style="stroke: #000000; stroke-width: 0.8"/>
      </g>
     </g>
     <g id="text_9">
      <!-- 0 -->
      <g transform="translate(44.2375 240.723569) scale(0.1 -0.1)">
       <use xlink:href="#DejaVuSans-30"/>
      </g>
     </g>
    </g>
    <g id="ytick_4">
     <g id="line2d_9">
      <g>
       <use xlink:href="#m107d9c9279" x="57.6" y="206.262753" style="stroke: #000000; stroke-width: 0.8"/>
      </g>
     </g>
     <g id="text_10">
      <!-- 100 -->
      <g transform="translate(31.5125 210.061972) scale(0.1 -0.1)">
       <use xlink:href="#DejaVuSans-31"/>
       <use xlink:href="#DejaVuSans-30" transform="translate(63.623047 0)"/>
       <use xlink:href="#DejaVuSans-30" transform="translate(127.246094 0)"/>
      </g>
     </g>
    </g>
    <g id="ytick_5">
     <g id="line2d_10">
      <g>
       <use xlink:href="#m107d9c9279" x="57.6" y="175.601156" style="stroke: #000000; stroke-width: 0.8"/>
      </g>
     </g>
     <g id="text_11">
      <!-- 200 -->
      <g transform="translate(31.5125 179.400375) scale(0.1 -0.1)">
       <use xlink:href="#DejaVuSans-32"/>
       <use xlink:href="#DejaVuSans-30" transform="translate(63.623047 0)"/>
       <use xlink:href="#DejaVuSans-30" transform="translate(127.246094 0)"/>
      </g>
     </g>
    </g>
    <g id="ytick_6">
     <g id="line2d_11">
      <g>
       <use xlink:href="#m107d9c9279" x="57.6" y="144.939559" style="stroke: #000000; stroke-width: 0.8"/>
      </g>
     </g>
     <g id="text_12">
      <!-- 300 -->
      <g transform="translate(31.5125 148.738778) scale(0.1 -0.1)">
       <defs>
        <path id="DejaVuSans-33" d="M 2597 2516 
Q 3050 2419 3304 2112 
Q 3559 1806 3559 1356 
Q 3559 666 3084 287 
Q 2609 -91 1734 -91 
Q 1441 -91 1130 -33 
Q 819 25 488 141 
L 488 750 
Q 750 597 1062 519 
Q 1375 441 1716 441 
Q 2309 441 2620 675 
Q 2931 909 2931 1356 
Q 2931 1769 2642 2001 
Q 2353 2234 1838 2234 
L 1294 2234 
L 1294 2753 
L 1863 2753 
Q 2328 2753 2575 2939 
Q 2822 3125 2822 3475 
Q 2822 3834 2567 4026 
Q 2313 4219 1838 4219 
Q 1578 4219 1281 4162 
Q 984 4106 628 3988 
L 628 4550 
Q 988 4650 1302 4700 
Q 1616 4750 1894 4750 
Q 2613 4750 3031 4423 
Q 3450 4097 3450 3541 
Q 3450 3153 3228 2886 
Q 3006 2619 2597 2516 
z
" transform="scale(0.015625)"/>
       </defs>
       <use xlink:href="#DejaVuSans-33"/>
       <use xlink:href="#DejaVuSans-30" transform="translate(63.623047 0)"/>
       <use xlink:href="#DejaVuSans-30" transform="translate(127.246094 0)"/>
      </g>
     </g>
    </g>
    <g id="ytick_7">
     <g id="line2d_12">
      <g>
       <use xlink:href="#m107d9c9279" x="57.6" y="114.277962" style="stroke: #000000; stroke-width: 0.8"/>
      </g>
     </g>
     <g id="text_13">
      <!-- 400 -->
      <g transform="translate(31.5125 118.077181) scale(0.1 -0.1)">
       <use xlink:href="#DejaVuSans-34"/>
       <use xlink:href="#DejaVuSans-30" transform="translate(63.623047 0)"/>
       <use xlink:href="#DejaVuSans-30" transform="translate(127.246094 0)"/>
      </g>
     </g>
    </g>
    <g id="ytick_8">
     <g id="line2d_13">
      <g>
       <use xlink:href="#m107d9c9279" x="57.6" y="83.616365" style="stroke: #000000; stroke-width: 0.8"/>
      </g>
     </g>
     <g id="text_14">
      <!-- 500 -->
      <g transform="translate(31.5125 87.415584) scale(0.1 -0.1)">
       <defs>
        <path id="DejaVuSans-35" d="M 691 4666 
L 3169 4666 
L 3169 4134 
L 1269 4134 
L 1269 2991 
Q 1406 3038 1543 3061 
Q 1681 3084 1819 3084 
Q 2600 3084 3056 2656 
Q 3513 2228 3513 1497 
Q 3513 744 3044 326 
Q 2575 -91 1722 -91 
Q 1428 -91 1123 -41 
Q 819 9 494 109 
L 494 744 
Q 775 591 1075 516 
Q 1375 441 1709 441 
Q 2250 441 2565 725 
Q 2881 1009 2881 1497 
Q 2881 1984 2565 2268 
Q 2250 2553 1709 2553 
Q 1456 2553 1204 2497 
Q 953 2441 691 2322 
L 691 4666 
z
" transform="scale(0.015625)"/>
       </defs>
       <use xlink:href="#DejaVuSans-35"/>
       <use xlink:href="#DejaVuSans-30" transform="translate(63.623047 0)"/>
       <use xlink:href="#DejaVuSans-30" transform="translate(127.246094 0)"/>
      </g>
     </g>
    </g>
    <g id="ytick_9">
     <g id="line2d_14">
      <g>
       <use xlink:href="#m107d9c9279" x="57.6" y="52.954768" style="stroke: #000000; stroke-width: 0.8"/>
      </g>
     </g>
     <g id="text_15">
      <!-- 600 -->
      <g transform="translate(31.5125 56.753987) scale(0.1 -0.1)">
       <use xlink:href="#DejaVuSans-36"/>
       <use xlink:href="#DejaVuSans-30" transform="translate(63.623047 0)"/>
       <use xlink:href="#DejaVuSans-30" transform="translate(127.246094 0)"/>
      </g>
     </g>
    </g>
    <g id="text_16">
     <!-- Position verticale (en pixel) -->
     <g transform="translate(17.053125 242.457687) rotate(-90) scale(0.1 -0.1)">
      <defs>
       <path id="DejaVuSans-76" d="M 191 3500 
L 800 3500 
L 1894 563 
L 2988 3500 
L 3597 3500 
L 2284 0 
L 1503 0 
L 191 3500 
z
" transform="scale(0.015625)"/>
       <path id="DejaVuSans-63" d="M 3122 3366 
L 3122 2828 
Q 2878 2963 2633 3030 
Q 2388 3097 2138 3097 
Q 1578 3097 1268 2742 
Q 959 2388 959 1747 
Q 959 1106 1268 751 
Q 1578 397 2138 397 
Q 2388 397 2633 464 
Q 2878 531 3122 666 
L 3122 134 
Q 2881 22 2623 -34 
Q 2366 -91 2075 -91 
Q 1284 -91 818 406 
Q 353 903 353 1747 
Q 353 2603 823 3093 
Q 1294 3584 2113 3584 
Q 2378 3584 2631 3529 
Q 2884 3475 3122 3366 
z
" transform="scale(0.015625)"/>
      </defs>
      <use xlink:href="#DejaVuSans-50"/>
      <use xlink:href="#DejaVuSans-6f" transform="translate(56.677734 0)"/>
      <use xlink:href="#DejaVuSans-73" transform="translate(117.859375 0)"/>
      <use xlink:href="#DejaVuSans-69" transform="translate(169.958984 0)"/>
      <use xlink:href="#DejaVuSans-74" transform="translate(197.742188 0)"/>
      <use xlink:href="#DejaVuSans-69" transform="translate(236.951172 0)"/>
      <use xlink:href="#DejaVuSans-6f" transform="translate(264.734375 0)"/>
      <use xlink:href="#DejaVuSans-6e" transform="translate(325.916016 0)"/>
      <use xlink:href="#DejaVuSans-20" transform="translate(389.294922 0)"/>
      <use xlink:href="#DejaVuSans-76" transform="translate(421.082031 0)"/>
      <use xlink:href="#DejaVuSans-65" transform="translate(480.261719 0)"/>
      <use xlink:href="#DejaVuSans-72" transform="translate(541.785156 0)"/>
      <use xlink:href="#DejaVuSans-74" transform="translate(582.898438 0)"/>
      <use xlink:href="#DejaVuSans-69" transform="translate(622.107422 0)"/>
      <use xlink:href="#DejaVuSans-63" transform="translate(649.890625 0)"/>
      <use xlink:href="#DejaVuSans-61" transform="translate(704.871094 0)"/>
      <use xlink:href="#DejaVuSans-6c" transform="translate(766.150391 0)"/>
      <use xlink:href="#DejaVuSans-65" transform="translate(793.933594 0)"/>
      <use xlink:href="#DejaVuSans-20" transform="translate(855.457031 0)"/>
      <use xlink:href="#DejaVuSans-28" transform="translate(887.244141 0)"/>
      <use xlink:href="#DejaVuSans-65" transform="translate(926.257812 0)"/>
      <use xlink:href="#DejaVuSans-6e" transform="translate(987.78125 0)"/>
      <use xlink:href="#DejaVuSans-20" transform="translate(1051.160156 0)"/>
      <use xlink:href="#DejaVuSans-70" transform="translate(1082.947266 0)"/>
      <use xlink:href="#DejaVuSans-69" transform="translate(1146.423828 0)"/>
      <use xlink:href="#DejaVuSans-78" transform="translate(1174.207031 0)"/>
      <use xlink:href="#DejaVuSans-65" transform="translate(1230.261719 0)"/>
      <use xlink:href="#DejaVuSans-6c" transform="translate(1291.785156 0)"/>
      <use xlink:href="#DejaVuSans-29" transform="translate(1319.568359 0)"/>
     </g>
    </g>
   </g>
   <g id="line2d_15">
    <path d="M 334.393633 53.568 
L 338.341525 53.874616 
L 342.289418 53.874616 
L 342.289418 54.181232 
L 346.23731 54.181232 
L 350.185203 54.487848 
L 350.185203 54.487848 
L 358.080988 54.487848 
L 358.080988 55.10108 
L 354.133095 55.10108 
L 346.23731 55.407696 
L 342.289418 55.714312 
L 342.289418 55.714312 
L 326.497848 55.714312 
L 322.549955 55.407696 
L 318.602063 55.407696 
L 318.602063 55.10108 
L 302.810493 55.10108 
L 290.966815 56.020928 
L 290.966815 56.020928 
L 290.966815 56.327544 
L 290.966815 56.327544 
L 306.758385 56.327544 
L 306.758385 56.327544 
L 310.706278 56.63416 
L 310.706278 56.63416 
L 334.393633 56.63416 
L 338.341525 56.940776 
L 346.23731 56.940776 
L 350.185203 57.247392 
L 346.23731 57.860624 
L 346.23731 57.860624 
L 398.487273 56.428083 
L 391.022992 56.428083 
L 398.486878 56.155011 
L 387.074705 57.314418 
L 375.662927 58.200753 
L 371.715034 57.041315 
L 362.02888 56.940776 
L 358.080988 56.940776 
L 354.133095 57.247392 
L 330.44574 57.247392 
L 330.44574 57.247392 
L 326.497848 56.940776 
L 298.8626 56.940776 
L 294.914708 56.63416 
L 283.07103 56.63416 
L 265.553323 56.155011 
L 250.624881 56.155011 
L 265.553323 54.995543 
L 250.624881 54.415824 
L 243.160561 56.155011 
L 231.748428 58.473856 
L 235.69632 58.473856 
L 235.69632 57.860624 
L 235.69632 57.860624 
L 219.90475 57.860624 
L 219.90475 57.860624 
L 215.956857 58.16724 
L 188.32161 58.16724 
L 184.373717 57.860624 
L 156.73847 57.860624 
L 152.790577 57.554008 
L 148.842685 57.554008 
L 148.842685 57.247392 
L 152.790577 57.247392 
L 152.790577 56.940776 
L 160.686362 56.940776 
L 164.634255 56.63416 
L 168.582147 56.63416 
L 180.425825 57.554008 
L 184.373717 57.554008 
L 188.32161 57.860624 
L 188.32161 58.16724 
L 200.165287 59.087087 
L 212.008965 59.087087 
L 212.008965 59.087087 
L 212.008965 58.473856 
L 212.008965 58.473856 
L 208.061072 58.16724 
L 208.061072 58.16724 
L 168.582147 58.16724 
L 168.582147 58.16724 
L 168.582147 59.087087 
L 168.582147 59.087087 
L 172.53004 59.087087 
L 172.53004 59.087087 
L 172.53004 59.393703 
L 176.477932 59.393703 
L 176.477932 59.393703 
L 180.425825 59.700319 
L 180.425825 59.700319 
L 180.425825 60.313551 
L 184.373717 60.313551 
L 184.373717 60.620167 
L 184.373717 60.620167 
L 188.32161 60.620167 
L 188.32161 60.620167 
L 184.373717 60.313551 
L 184.373717 60.313551 
L 184.373717 59.393703 
L 180.425825 59.393703 
L 180.425825 59.087087 
L 180.425825 59.087087 
L 176.477932 59.087087 
L 176.477932 58.780471 
L 176.477932 58.780471 
L 156.73847 58.780471 
L 156.73847 58.780471 
L 152.790577 58.473856 
L 152.790577 58.473856 
L 140.9469 58.473856 
L 140.9469 58.780471 
L 140.9469 58.780471 
L 136.999007 58.780471 
L 136.999007 58.780471 
L 136.999007 59.087087 
L 133.051115 59.087087 
L 152.790577 59.087087 
L 152.790577 59.393703 
L 160.686362 59.393703 
L 160.686362 59.700319 
L 180.425825 59.700319 
L 180.425825 60.006935 
L 196.217395 60.006935 
L 196.217395 60.006935 
L 196.217395 60.313551 
L 196.217395 60.313551 
L 200.165287 60.313551 
L 196.217395 60.313551 
L 196.217395 58.780471 
L 192.269502 58.780471 
L 192.269502 58.780471 
L 192.269502 58.473856 
L 192.269502 58.473856 
L 188.32161 58.473856 
L 188.32161 58.473856 
L 188.32161 58.16724 
L 184.373717 58.473856 
L 184.373717 58.473856 
L 176.477932 58.473856 
L 176.477932 58.473856 
L 172.53004 58.780471 
L 160.686362 58.780471 
L 160.686362 59.087087 
L 156.73847 59.087087 
L 148.842685 59.700319 
L 144.894792 59.700319 
L 140.9469 60.006935 
L 136.999007 60.006935 
L 133.051115 60.313551 
L 133.051115 60.313551 
L 125.15533 60.313551 
L 121.207437 60.620167 
L 117.259545 60.620167 
L 117.259545 60.926783 
L 113.311652 61.233399 
L 113.311652 62.153247 
L 113.311652 62.153247 
L 117.259545 62.153247 
L 117.259545 62.459863 
L 125.15533 62.459863 
L 133.051115 62.766479 
L 136.999007 62.766479 
L 140.9469 63.073095 
L 148.842685 63.073095 
L 164.634255 62.766479 
L 168.582147 62.766479 
L 176.477932 62.459863 
L 176.477932 62.766479 
L 184.373717 62.766479 
L 192.269502 63.379711 
L 196.217395 63.379711 
L 196.217395 63.686327 
L 196.217395 63.686327 
L 200.165287 63.686327 
L 200.165287 63.992943 
L 200.165287 63.992943 
L 196.217395 64.299559 
L 196.217395 64.299559 
L 180.425825 64.299559 
L 180.425825 64.606175 
L 168.582147 65.526023 
L 168.582147 65.832639 
L 164.634255 66.139255 
L 164.634255 66.445871 
L 164.634255 66.445871 
L 160.686362 66.752487 
L 160.686362 67.365719 
L 156.73847 67.672335 
L 156.73847 67.672335 
L 160.686362 67.672335 
L 160.686362 67.672335 
L 160.686362 67.978951 
L 172.53004 67.978951 
L 172.53004 68.285567 
L 176.477932 68.285567 
L 176.477932 68.285567 
L 180.425825 68.592183 
L 184.373717 68.592183 
L 184.373717 68.898798 
L 188.32161 68.898798 
L 188.32161 69.205414 
L 192.269502 69.205414 
L 192.269502 69.51203 
L 184.373717 64.299559 
L 184.373717 64.299559 
L 176.477932 64.299559 
L 176.477932 64.299559 
L 148.842685 66.445871 
L 148.842685 67.365719 
L 144.894792 67.672335 
L 144.894792 68.285567 
L 144.894792 68.285567 
L 148.842685 68.285567 
L 148.842685 68.285567 
L 152.790577 67.978951 
L 152.790577 67.978951 
L 208.061072 67.978951 
L 212.008965 68.285567 
L 219.90475 68.285567 
L 223.852643 68.592183 
L 227.800535 68.592183 
L 227.800535 68.898798 
L 227.800535 68.898798 
L 231.748428 68.898798 
L 231.748428 69.51203 
L 231.748428 69.51203 
L 227.800535 69.818646 
L 223.852643 69.818646 
L 219.90475 70.125262 
L 215.956857 70.125262 
L 219.90475 75.64435 
L 219.90475 75.64435 
L 215.956857 75.64435 
L 212.008965 75.950966 
L 208.061072 75.950966 
L 200.165287 76.257582 
L 188.32161 77.17743 
L 184.373717 77.17743 
L 172.53004 78.097278 
L 168.582147 78.097278 
L 164.634255 78.403894 
L 164.634255 78.403894 
L 160.686362 78.403894 
L 160.686362 78.403894 
L 156.73847 78.71051 
L 156.73847 78.71051 
L 160.686362 78.71051 
L 160.686362 78.71051 
L 160.686362 79.017125 
L 192.269502 79.017125 
L 196.217395 79.323741 
L 200.165287 79.017125 
L 208.061072 79.017125 
L 208.061072 79.323741 
L 212.008965 79.323741 
L 212.008965 79.630357 
L 215.956857 79.630357 
L 215.956857 79.630357 
L 215.956857 80.550205 
L 212.008965 80.550205 
L 212.008965 80.856821 
L 208.061072 80.856821 
L 196.217395 81.776669 
L 196.217395 82.083285 
L 188.32161 82.696517 
L 188.32161 82.696517 
L 184.373717 83.309749 
L 180.425825 83.616365 
L 180.425825 83.922981 
L 176.477932 84.536213 
L 176.477932 85.456061 
L 172.53004 86.069293 
L 172.53004 86.682525 
L 168.582147 87.295757 
L 168.582147 87.295757 
L 168.582147 88.522221 
L 172.53004 88.522221 
L 172.53004 89.135452 
L 180.425825 89.135452 
L 180.425825 89.135452 
L 188.32161 88.522221 
L 188.32161 88.522221 
L 188.32161 88.215605 
L 192.269502 87.908989 
L 192.269502 87.908989 
L 192.269502 87.602373 
L 192.269502 88.522221 
L 188.32161 89.135452 
L 188.32161 89.442068 
L 184.373717 90.0553 
L 184.373717 90.361916 
L 180.425825 90.668532 
L 180.425825 90.975148 
L 172.53004 92.201612 
L 172.53004 92.201612 
L 168.582147 92.508228 
L 168.582147 93.12146 
L 164.634255 93.428076 
L 164.634255 93.428076 
L 164.634255 93.734692 
L 164.634255 93.734692 
L 168.582147 93.734692 
L 168.582147 93.734692 
L 168.582147 93.428076 
L 172.53004 93.428076 
L 172.53004 93.428076 
L 176.477932 93.12146 
L 184.373717 93.12146 
L 184.373717 93.12146 
L 192.269502 92.814844 
L 208.061072 92.814844 
L 212.008965 93.12146 
L 215.956857 93.12146 
L 219.90475 93.428076 
L 223.852643 93.428076 
L 223.852643 93.734692 
L 227.800535 93.734692 
L 227.800535 94.65454 
L 223.852643 94.961156 
L 223.852643 95.267772 
L 219.90475 95.881004 
L 219.90475 96.494236 
L 215.956857 97.107468 
L 215.956857 97.414084 
L 212.008965 97.7207 
L 212.008965 98.027316 
L 208.061072 98.333932 
L 208.061072 98.333932 
L 204.11318 98.333932 
L 204.11318 98.640548 
L 196.217395 98.640548 
L 196.217395 98.947163 
L 196.217395 98.947163 
L 200.165287 98.947163 
L 196.217395 99.253779 
L 200.165287 99.253779 
L 200.165287 99.253779 
L 200.165287 100.173627 
L 200.165287 100.173627 
L 204.11318 100.173627 
L 204.11318 100.173627 
L 204.11318 101.706707 
L 200.165287 101.706707 
L 200.165287 102.013323 
L 200.165287 102.013323 
L 184.373717 103.239787 
L 184.373717 103.546403 
L 180.425825 103.853019 
L 180.425825 104.159635 
L 176.477932 104.466251 
L 176.477932 104.772867 
L 176.477932 104.772867 
L 172.53004 105.079483 
L 172.53004 105.692715 
L 172.53004 105.692715 
L 176.477932 105.692715 
L 176.477932 105.999331 
L 184.373717 105.999331 
L 184.373717 106.305947 
L 196.217395 106.305947 
L 200.165287 106.612563 
L 219.90475 106.612563 
L 223.852643 106.919179 
L 231.748428 107.225795 
L 235.69632 107.532411 
L 235.69632 107.839027 
L 239.644213 107.839027 
L 239.644213 108.145643 
L 243.592105 108.452259 
L 243.592105 108.758875 
L 247.539998 108.758875 
L 247.539998 109.06549 
L 251.48789 109.06549 
L 251.48789 109.985338 
L 247.539998 109.985338 
L 247.539998 110.291954 
L 243.592105 110.291954 
L 243.592105 110.59857 
L 239.644213 110.59857 
L 235.69632 110.905186 
L 231.748428 110.905186 
L 227.800535 111.211802 
L 223.852643 111.211802 
L 219.90475 111.518418 
L 212.008965 111.825034 
L 208.061072 111.825034 
L 164.634255 115.19781 
L 164.634255 115.19781 
L 164.634255 116.73089 
L 168.582147 116.73089 
L 168.582147 117.037506 
L 172.53004 117.037506 
L 176.477932 117.344122 
L 176.477932 117.650738 
L 180.425825 117.650738 
L 188.32161 118.26397 
L 192.269502 118.26397 
L 196.217395 118.570586 
L 200.165287 118.570586 
L 212.008965 119.490433 
L 219.90475 119.490433 
L 227.800535 120.103665 
L 235.69632 120.410281 
L 239.644213 120.716897 
L 247.539998 120.716897 
L 251.48789 121.330129 
L 255.435783 121.636745 
L 271.227353 122.556593 
L 271.227353 122.863209 
L 279.123138 123.476441 
L 279.123138 123.783057 
L 283.07103 124.089673 
L 287.018923 124.089673 
L 287.018923 124.396289 
L 290.966815 124.396289 
L 290.966815 124.396289 
L 290.966815 124.702905 
L 294.914708 124.702905 
L 294.914708 124.702905 
L 290.966815 125.009521 
L 290.966815 125.009521 
L 290.966815 125.316137 
L 287.018923 125.316137 
L 287.018923 125.622753 
L 283.07103 125.622753 
L 275.175245 126.235985 
L 271.227353 126.235985 
L 247.539998 128.075681 
L 231.748428 128.688913 
L 208.061072 129.915376 
L 204.11318 129.915376 
L 200.165287 130.221992 
L 196.217395 130.221992 
L 192.269502 130.528608 
L 188.32161 130.528608 
L 184.373717 130.835224 
L 172.53004 130.835224 
L 168.582147 131.14184 
L 168.582147 131.14184 
L 164.634255 131.14184 
L 160.686362 131.448456 
L 160.686362 131.755072 
L 156.73847 131.755072 
L 156.73847 132.67492 
L 160.686362 132.67492 
L 160.686362 133.288152 
L 172.53004 134.208 
L 172.53004 134.514616 
L 176.477932 134.514616 
L 176.477932 134.821232 
L 184.373717 135.127848 
L 184.373717 135.127848 
L 188.32161 135.434464 
L 192.269502 135.434464 
L 192.269502 135.74108 
L 196.217395 136.354312 
L 196.217395 136.660928 
L 200.165287 136.967544 
L 200.165287 137.887392 
L 204.11318 138.500624 
L 204.11318 138.80724 
L 208.061072 139.113856 
L 208.061072 139.420471 
L 208.061072 139.420471 
L 215.956857 140.033703 
L 215.956857 140.033703 
L 215.956857 140.340319 
L 219.90475 140.340319 
L 219.90475 140.646935 
L 215.956857 140.646935 
L 215.956857 140.953551 
L 215.956857 140.953551 
L 208.061072 141.566783 
L 208.061072 141.873399 
L 192.269502 143.099863 
L 192.269502 143.406479 
L 188.32161 143.713095 
L 184.373717 144.326327 
L 184.373717 144.632943 
L 180.425825 145.246175 
L 176.477932 145.552791 
L 176.477932 145.859407 
L 172.53004 146.472639 
L 172.53004 146.472639 
L 168.582147 146.779255 
L 168.582147 147.085871 
L 164.634255 147.392487 
L 164.634255 147.699103 
L 156.73847 148.312335 
L 156.73847 148.925567 
L 152.790577 149.232183 
L 152.790577 149.538798 
L 156.73847 149.845414 
L 156.73847 150.15203 
L 160.686362 150.15203 
L 160.686362 150.458646 
L 168.582147 151.071878 
L 168.582147 151.378494 
L 172.53004 151.68511 
L 184.373717 151.991726 
L 184.373717 151.991726 
L 188.32161 152.298342 
L 192.269502 152.298342 
L 200.165287 152.604958 
L 204.11318 152.911574 
L 208.061072 152.911574 
L 212.008965 153.21819 
L 215.956857 153.21819 
L 219.90475 153.524806 
L 219.90475 153.831422 
L 223.852643 153.831422 
L 223.852643 154.138038 
L 227.800535 154.444654 
L 231.748428 154.444654 
L 231.748428 154.75127 
L 235.69632 155.057886 
L 235.69632 155.364502 
L 239.644213 155.671118 
L 239.644213 157.510814 
L 235.69632 157.81743 
L 235.69632 158.430662 
L 231.748428 159.043894 
L 231.748428 159.657125 
L 227.800535 160.576973 
L 227.800535 161.190205 
L 223.852643 162.110053 
L 219.90475 162.723285 
L 215.956857 163.643133 
L 200.165287 166.096061 
L 200.165287 166.402677 
L 196.217395 167.015909 
L 196.217395 169.468837 
L 200.165287 169.775452 
L 200.165287 170.6953 
L 204.11318 171.308532 
L 204.11318 171.615148 
L 208.061072 171.921764 
L 208.061072 173.148228 
L 212.008965 173.454844 
L 212.008965 175.29454 
L 215.956857 175.29454 
L 215.956857 175.29454 
L 215.956857 175.601156 
L 215.956857 175.601156 
L 212.008965 175.907772 
L 212.008965 175.907772 
L 212.008965 176.521004 
L 208.061072 176.82762 
L 208.061072 177.747468 
L 200.165287 178.973932 
L 200.165287 179.587163 
L 196.217395 179.893779 
L 192.269502 180.507011 
L 192.269502 181.120243 
L 188.32161 181.426859 
L 188.32161 182.040091 
L 184.373717 182.346707 
L 184.373717 182.959939 
L 180.425825 183.266555 
L 176.477932 183.879787 
L 176.477932 184.186403 
L 172.53004 184.493019 
L 172.53004 185.106251 
L 168.582147 185.412867 
L 168.582147 185.719483 
L 164.634255 186.026099 
L 164.634255 187.252563 
L 160.686362 187.559179 
L 160.686362 190.318722 
L 164.634255 190.318722 
L 164.634255 190.931954 
L 168.582147 190.931954 
L 168.582147 191.23857 
L 172.53004 191.23857 
L 172.53004 191.545186 
L 176.477932 191.545186 
L 176.477932 191.851802 
L 176.477932 191.851802 
L 180.425825 191.851802 
L 176.477932 191.851802 
L 172.53004 192.158418 
L 172.53004 192.158418 
L 172.53004 192.465034 
L 168.582147 192.77165 
L 168.582147 193.078266 
L 164.634255 193.384882 
L 160.686362 193.998114 
L 156.73847 194.30473 
L 156.73847 194.611346 
L 152.790577 195.224578 
L 144.894792 195.83781 
L 144.894792 196.144426 
L 136.999007 196.757658 
L 136.999007 197.064274 
L 133.051115 197.37089 
L 133.051115 197.677506 
L 125.15533 198.290738 
L 125.15533 200.130433 
L 129.103222 200.437049 
L 129.103222 200.743665 
L 133.051115 200.743665 
L 136.999007 201.050281 
L 144.894792 201.050281 
L 152.790577 201.356897 
L 152.790577 201.356897 
L 192.269502 201.356897 
L 196.217395 201.663513 
L 200.165287 201.663513 
L 208.061072 202.276745 
L 212.008965 202.276745 
L 219.90475 202.889977 
L 219.90475 202.889977 
L 223.852643 202.889977 
L 223.852643 203.196593 
L 239.644213 203.196593 
L 239.644213 203.503209 
L 243.592105 203.503209 
L 247.539998 203.809825 
L 247.539998 203.809825 
L 247.539998 204.116441 
L 247.539998 204.116441 
L 251.48789 204.423057 
L 251.48789 204.729673 
L 247.539998 204.729673 
L 247.539998 205.342905 
L 243.592105 205.649521 
L 239.644213 205.649521 
L 239.644213 205.956137 
L 235.69632 206.262753 
L 231.748428 206.262753 
L 227.800535 206.569369 
L 223.852643 207.182601 
L 215.956857 207.795833 
L 196.217395 210.861992 
L 188.32161 211.78184 
L 188.32161 211.78184 
L 180.425825 213.008304 
L 172.53004 213.928152 
L 172.53004 213.928152 
L 160.686362 214.848 
L 160.686362 215.154616 
L 152.790577 215.154616 
L 152.790577 214.848 
L 148.842685 214.848 
L 148.842685 214.541384 
L 148.842685 214.541384 
L 140.9469 214.541384 
L 136.999007 214.848 
L 136.999007 215.154616 
L 133.051115 215.461232 
L 129.103222 216.074464 
L 129.103222 216.994312 
L 125.15533 217.300928 
L 125.15533 219.753856 
L 121.207437 220.060471 
L 121.207437 220.367087 
L 125.15533 220.367087 
L 125.15533 220.980319 
L 125.15533 220.980319 
L 129.103222 221.286935 
L 129.103222 221.593551 
L 129.103222 221.593551 
L 136.999007 222.206783 
L 140.9469 222.206783 
L 140.9469 222.513399 
L 152.790577 222.513399 
L 156.73847 222.820015 
L 164.634255 222.820015 
L 164.634255 223.126631 
L 168.582147 223.433247 
L 172.53004 223.433247 
L 172.53004 223.739863 
L 176.477932 223.739863 
L 180.425825 224.046479 
L 180.425825 224.353095 
L 188.32161 224.966327 
L 188.32161 225.579559 
L 192.269502 225.886175 
L 192.269502 227.112639 
L 196.217395 227.419255 
L 196.217395 228.032487 
L 200.165287 228.339103 
L 200.165287 228.645719 
L 208.061072 229.258951 
L 208.061072 229.565567 
L 219.90475 230.485414 
L 223.852643 230.485414 
L 227.800535 230.79203 
L 231.748428 230.79203 
L 235.69632 231.098646 
L 243.592105 231.098646 
L 247.539998 231.405262 
L 247.539998 231.711878 
L 255.435783 232.32511 
L 255.435783 233.244958 
L 259.383675 234.164806 
L 263.331568 234.778038 
L 263.331568 235.697886 
L 267.27946 236.311118 
L 267.27946 237.230966 
L 263.331568 237.844198 
L 263.331568 242.443437 
L 263.331568 242.443437 
L 267.27946 242.750053 
L 267.27946 242.750053 
L 275.175245 242.750053 
L 279.123138 243.056669 
L 283.07103 243.056669 
L 283.07103 243.056669 
L 287.018923 243.363285 
L 287.018923 243.363285 
L 287.018923 244.589749 
L 283.07103 245.202981 
L 283.07103 246.122829 
L 279.123138 246.429445 
L 275.175245 247.042677 
L 275.175245 247.655909 
L 271.227353 248.269141 
L 271.227353 248.882373 
L 259.383675 250.722068 
L 235.69632 252.561764 
L 231.748428 252.561764 
L 227.800535 252.86838 
L 223.852643 252.86838 
L 223.852643 253.174996 
L 219.90475 253.174996 
L 215.956857 253.481612 
L 215.956857 253.481612 
L 215.956857 254.40146 
L 212.008965 254.40146 
L 208.061072 255.014692 
L 204.11318 255.321308 
L 196.217395 256.547772 
L 192.269502 256.854388 
L 188.32161 257.46762 
L 184.373717 258.387468 
L 168.582147 260.840395 
L 164.634255 261.760243 
L 152.790577 263.599939 
L 144.894792 264.213171 
L 140.9469 264.826403 
L 133.051115 265.439635 
L 133.051115 265.746251 
L 121.207437 266.666099 
L 121.207437 266.666099 
L 117.259545 266.666099 
L 117.259545 266.666099 
L 113.311652 266.972715 
L 113.311652 266.972715 
L 113.311652 268.199179 
L 109.36376 268.505795 
L 109.36376 268.505795 
L 109.36376 269.119027 
L 105.415867 269.425643 
L 105.415867 269.425643 
L 105.415867 270.038875 
L 101.467975 270.34549 
L 101.467975 270.652106 
L 97.520082 270.958722 
L 97.520082 271.571954 
L 93.57219 271.87857 
L 89.624297 272.491802 
L 89.624297 273.105034 
L 81.728512 274.331498 
L 81.728512 274.94473 
L 77.78062 275.557962 
L 77.78062 277.091042 
L 73.832727 277.397658 
L 73.832727 278.01089 
L 77.78062 278.01089 
L 77.78062 278.01089 
L 81.728512 278.317506 
L 81.728512 278.317506 
L 85.676405 278.317506 
L 89.624297 278.624122 
L 97.520082 278.624122 
L 105.415867 278.930738 
L 109.36376 278.930738 
L 117.259545 279.237354 
L 125.15533 279.237354 
L 148.842685 280.157202 
L 160.686362 281.077049 
L 168.582147 281.996897 
L 172.53004 282.610129 
L 180.425825 283.529977 
L 188.32161 284.756441 
L 196.217395 286.596137 
L 200.165287 287.209369 
L 204.11318 288.129217 
L 204.11318 289.049065 
L 208.061072 289.662297 
L 212.008965 290.582144 
L 215.956857 291.195376 
L 215.956857 292.115224 
L 223.852643 293.341688 
L 223.852643 294.568152 
L 227.800535 295.181384 
L 227.800535 295.488 
L 227.800535 295.488 
L 223.852643 295.488 
L 223.852643 295.488 
L 219.90475 295.181384 
L 215.956857 295.181384 
L 204.11318 294.261536 
L 200.165287 293.648304 
L 168.582147 291.195376 
L 160.686362 290.88876 
L 140.9469 289.968913 
L 133.051115 289.662297 
L 125.15533 289.662297 
L 93.57219 288.435833 
L 89.624297 288.129217 
L 89.624297 287.822601 
L 85.676405 287.515985 
L 85.676405 286.902753 
L 89.624297 286.596137 
L 93.57219 285.982905 
L 109.36376 285.063057 
L 113.311652 284.756441 
L 117.259545 284.756441 
L 125.15533 284.449825 
L 129.103222 284.143209 
L 133.051115 284.143209 
L 140.9469 283.836593 
L 152.790577 283.836593 
L 156.73847 284.143209 
L 168.582147 284.143209 
L 176.477932 284.449825 
L 176.477932 284.449825 
" clip-path="url(#pd6fe1de84e)" style="fill: none; stroke: #1f77b4; stroke-width: 1.5; stroke-linecap: square"/>
   </g>
   <g id="patch_3">
    <path d="M 57.6 307.584 
L 57.6 41.472 
" style="fill: none; stroke: #000000; stroke-width: 0.8; stroke-linejoin: miter; stroke-linecap: square"/>
   </g>
   <g id="patch_4">
    <path d="M 414.72 307.584 
L 414.72 41.472 
" style="fill: none; stroke: #000000; stroke-width: 0.8; stroke-linejoin: miter; stroke-linecap: square"/>
   </g>
   <g id="patch_5">
    <path d="M 57.6 307.584 
L 414.72 307.584 
" style="fill: none; stroke: #000000; stroke-width: 0.8; stroke-linejoin: miter; stroke-linecap: square"/>
   </g>
   <g id="patch_6">
    <path d="M 57.6 41.472 
L 414.72 41.472 
" style="fill: none; stroke: #000000; stroke-width: 0.8; stroke-linejoin: miter; stroke-linecap: square"/>
   </g>
  </g>
 </g>
 <defs>
  <clipPath id="pd6fe1de84e">
   <rect x="57.6" y="41.472" width="357.12" height="266.112"/>
  </clipPath>
 </defs>
</svg>
