<?xml version="1.0" encoding="utf-8" standalone="no"?>
<!DOCTYPE svg PUBLIC "-//W3C//DTD SVG 1.1//EN"
  "http://www.w3.org/Graphics/SVG/1.1/DTD/svg11.dtd">
<svg xmlns:xlink="http://www.w3.org/1999/xlink" width="460.8pt" height="345.6pt" viewBox="0 0 460.8 345.6" xmlns="http://www.w3.org/2000/svg" version="1.1">
 <metadata>
  <rdf:RDF xmlns:dc="http://purl.org/dc/elements/1.1/" xmlns:cc="http://creativecommons.org/ns#" xmlns:rdf="http://www.w3.org/1999/02/22-rdf-syntax-ns#">
   <cc:Work>
    <dc:type rdf:resource="http://purl.org/dc/dcmitype/StillImage"/>
    <dc:date>2025-03-18T15:51:32.967808</dc:date>
    <dc:format>image/svg+xml</dc:format>
    <dc:creator>
     <cc:Agent>
      <dc:title>Matplotlib v3.10.0, https://matplotlib.org/</dc:title>
     </cc:Agent>
    </dc:creator>
   </cc:Work>
  </rdf:RDF>
 </metadata>
 <defs>
  <style type="text/css">*{stroke-linejoin: round; stroke-linecap: butt}</style>
 </defs>
 <g id="figure_1">
  <g id="patch_1">
   <path d="M 0 345.6 
L 460.8 345.6 
L 460.8 0 
L 0 0 
z
" style="fill: #ffffff"/>
  </g>
  <g id="axes_1">
   <g id="patch_2">
    <path d="M 57.6 307.584 
L 414.72 307.584 
L 414.72 41.472 
L 57.6 41.472 
z
" style="fill: #ffffff"/>
   </g>
   <g id="matplotlib.axis_1">
    <g id="xtick_1">
     <g id="line2d_1">
      <defs>
       <path id="m353840e83b" d="M 0 0 
L 0 3.5 
" style="stroke: #000000; stroke-width: 0.8"/>
      </defs>
      <g>
       <use xlink:href="#m353840e83b" x="101.747519" y="307.584" style="stroke: #000000; stroke-width: 0.8"/>
      </g>
     </g>
     <g id="text_1">
      <!-- 0 -->
      <g transform="translate(98.566269 322.182437) scale(0.1 -0.1)">
       <defs>
        <path id="DejaVuSans-30" d="M 2034 4250 
Q 1547 4250 1301 3770 
Q 1056 3291 1056 2328 
Q 1056 1369 1301 889 
Q 1547 409 2034 409 
Q 2525 409 2770 889 
Q 3016 1369 3016 2328 
Q 3016 3291 2770 3770 
Q 2525 4250 2034 4250 
z
M 2034 4750 
Q 2819 4750 3233 4129 
Q 3647 3509 3647 2328 
Q 3647 1150 3233 529 
Q 2819 -91 2034 -91 
Q 1250 -91 836 529 
Q 422 1150 422 2328 
Q 422 3509 836 4129 
Q 1250 4750 2034 4750 
z
" transform="scale(0.015625)"/>
       </defs>
       <use xlink:href="#DejaVuSans-30"/>
      </g>
     </g>
    </g>
    <g id="xtick_2">
     <g id="line2d_2">
      <g>
       <use xlink:href="#m353840e83b" x="159.931784" y="307.584" style="stroke: #000000; stroke-width: 0.8"/>
      </g>
     </g>
     <g id="text_2">
      <!-- 20 -->
      <g transform="translate(153.569284 322.182437) scale(0.1 -0.1)">
       <defs>
        <path id="DejaVuSans-32" d="M 1228 531 
L 3431 531 
L 3431 0 
L 469 0 
L 469 531 
Q 828 903 1448 1529 
Q 2069 2156 2228 2338 
Q 2531 2678 2651 2914 
Q 2772 3150 2772 3378 
Q 2772 3750 2511 3984 
Q 2250 4219 1831 4219 
Q 1534 4219 1204 4116 
Q 875 4013 500 3803 
L 500 4441 
Q 881 4594 1212 4672 
Q 1544 4750 1819 4750 
Q 2544 4750 2975 4387 
Q 3406 4025 3406 3419 
Q 3406 3131 3298 2873 
Q 3191 2616 2906 2266 
Q 2828 2175 2409 1742 
Q 1991 1309 1228 531 
z
" transform="scale(0.015625)"/>
       </defs>
       <use xlink:href="#DejaVuSans-32"/>
       <use xlink:href="#DejaVuSans-30" transform="translate(63.623047 0)"/>
      </g>
     </g>
    </g>
    <g id="xtick_3">
     <g id="line2d_3">
      <g>
       <use xlink:href="#m353840e83b" x="218.11605" y="307.584" style="stroke: #000000; stroke-width: 0.8"/>
      </g>
     </g>
     <g id="text_3">
      <!-- 40 -->
      <g transform="translate(211.75355 322.182437) scale(0.1 -0.1)">
       <defs>
        <path id="DejaVuSans-34" d="M 2419 4116 
L 825 1625 
L 2419 1625 
L 2419 4116 
z
M 2253 4666 
L 3047 4666 
L 3047 1625 
L 3713 1625 
L 3713 1100 
L 3047 1100 
L 3047 0 
L 2419 0 
L 2419 1100 
L 313 1100 
L 313 1709 
L 2253 4666 
z
" transform="scale(0.015625)"/>
       </defs>
       <use xlink:href="#DejaVuSans-34"/>
       <use xlink:href="#DejaVuSans-30" transform="translate(63.623047 0)"/>
      </g>
     </g>
    </g>
    <g id="xtick_4">
     <g id="line2d_4">
      <g>
       <use xlink:href="#m353840e83b" x="276.300315" y="307.584" style="stroke: #000000; stroke-width: 0.8"/>
      </g>
     </g>
     <g id="text_4">
      <!-- 60 -->
      <g transform="translate(269.937815 322.182437) scale(0.1 -0.1)">
       <defs>
        <path id="DejaVuSans-36" d="M 2113 2584 
Q 1688 2584 1439 2293 
Q 1191 2003 1191 1497 
Q 1191 994 1439 701 
Q 1688 409 2113 409 
Q 2538 409 2786 701 
Q 3034 994 3034 1497 
Q 3034 2003 2786 2293 
Q 2538 2584 2113 2584 
z
M 3366 4563 
L 3366 3988 
Q 3128 4100 2886 4159 
Q 2644 4219 2406 4219 
Q 1781 4219 1451 3797 
Q 1122 3375 1075 2522 
Q 1259 2794 1537 2939 
Q 1816 3084 2150 3084 
Q 2853 3084 3261 2657 
Q 3669 2231 3669 1497 
Q 3669 778 3244 343 
Q 2819 -91 2113 -91 
Q 1303 -91 875 529 
Q 447 1150 447 2328 
Q 447 3434 972 4092 
Q 1497 4750 2381 4750 
Q 2619 4750 2861 4703 
Q 3103 4656 3366 4563 
z
" transform="scale(0.015625)"/>
       </defs>
       <use xlink:href="#DejaVuSans-36"/>
       <use xlink:href="#DejaVuSans-30" transform="translate(63.623047 0)"/>
      </g>
     </g>
    </g>
    <g id="xtick_5">
     <g id="line2d_5">
      <g>
       <use xlink:href="#m353840e83b" x="334.484581" y="307.584" style="stroke: #000000; stroke-width: 0.8"/>
      </g>
     </g>
     <g id="text_5">
      <!-- 80 -->
      <g transform="translate(328.122081 322.182437) scale(0.1 -0.1)">
       <defs>
        <path id="DejaVuSans-38" d="M 2034 2216 
Q 1584 2216 1326 1975 
Q 1069 1734 1069 1313 
Q 1069 891 1326 650 
Q 1584 409 2034 409 
Q 2484 409 2743 651 
Q 3003 894 3003 1313 
Q 3003 1734 2745 1975 
Q 2488 2216 2034 2216 
z
M 1403 2484 
Q 997 2584 770 2862 
Q 544 3141 544 3541 
Q 544 4100 942 4425 
Q 1341 4750 2034 4750 
Q 2731 4750 3128 4425 
Q 3525 4100 3525 3541 
Q 3525 3141 3298 2862 
Q 3072 2584 2669 2484 
Q 3125 2378 3379 2068 
Q 3634 1759 3634 1313 
Q 3634 634 3220 271 
Q 2806 -91 2034 -91 
Q 1263 -91 848 271 
Q 434 634 434 1313 
Q 434 1759 690 2068 
Q 947 2378 1403 2484 
z
M 1172 3481 
Q 1172 3119 1398 2916 
Q 1625 2713 2034 2713 
Q 2441 2713 2670 2916 
Q 2900 3119 2900 3481 
Q 2900 3844 2670 4047 
Q 2441 4250 2034 4250 
Q 1625 4250 1398 4047 
Q 1172 3844 1172 3481 
z
" transform="scale(0.015625)"/>
       </defs>
       <use xlink:href="#DejaVuSans-38"/>
       <use xlink:href="#DejaVuSans-30" transform="translate(63.623047 0)"/>
      </g>
     </g>
    </g>
    <g id="xtick_6">
     <g id="line2d_6">
      <g>
       <use xlink:href="#m353840e83b" x="392.668846" y="307.584" style="stroke: #000000; stroke-width: 0.8"/>
      </g>
     </g>
     <g id="text_6">
      <!-- 100 -->
      <g transform="translate(383.125096 322.182437) scale(0.1 -0.1)">
       <defs>
        <path id="DejaVuSans-31" d="M 794 531 
L 1825 531 
L 1825 4091 
L 703 3866 
L 703 4441 
L 1819 4666 
L 2450 4666 
L 2450 531 
L 3481 531 
L 3481 0 
L 794 0 
L 794 531 
z
" transform="scale(0.015625)"/>
       </defs>
       <use xlink:href="#DejaVuSans-31"/>
       <use xlink:href="#DejaVuSans-30" transform="translate(63.623047 0)"/>
       <use xlink:href="#DejaVuSans-30" transform="translate(127.246094 0)"/>
      </g>
     </g>
    </g>
    <g id="text_7">
     <!-- Position horizontale -->
     <g transform="translate(187.092031 335.860562) scale(0.1 -0.1)">
      <defs>
       <path id="DejaVuSans-50" d="M 1259 4147 
L 1259 2394 
L 2053 2394 
Q 2494 2394 2734 2622 
Q 2975 2850 2975 3272 
Q 2975 3691 2734 3919 
Q 2494 4147 2053 4147 
L 1259 4147 
z
M 628 4666 
L 2053 4666 
Q 2838 4666 3239 4311 
Q 3641 3956 3641 3272 
Q 3641 2581 3239 2228 
Q 2838 1875 2053 1875 
L 1259 1875 
L 1259 0 
L 628 0 
L 628 4666 
z
" transform="scale(0.015625)"/>
       <path id="DejaVuSans-6f" d="M 1959 3097 
Q 1497 3097 1228 2736 
Q 959 2375 959 1747 
Q 959 1119 1226 758 
Q 1494 397 1959 397 
Q 2419 397 2687 759 
Q 2956 1122 2956 1747 
Q 2956 2369 2687 2733 
Q 2419 3097 1959 3097 
z
M 1959 3584 
Q 2709 3584 3137 3096 
Q 3566 2609 3566 1747 
Q 3566 888 3137 398 
Q 2709 -91 1959 -91 
Q 1206 -91 779 398 
Q 353 888 353 1747 
Q 353 2609 779 3096 
Q 1206 3584 1959 3584 
z
" transform="scale(0.015625)"/>
       <path id="DejaVuSans-73" d="M 2834 3397 
L 2834 2853 
Q 2591 2978 2328 3040 
Q 2066 3103 1784 3103 
Q 1356 3103 1142 2972 
Q 928 2841 928 2578 
Q 928 2378 1081 2264 
Q 1234 2150 1697 2047 
L 1894 2003 
Q 2506 1872 2764 1633 
Q 3022 1394 3022 966 
Q 3022 478 2636 193 
Q 2250 -91 1575 -91 
Q 1294 -91 989 -36 
Q 684 19 347 128 
L 347 722 
Q 666 556 975 473 
Q 1284 391 1588 391 
Q 1994 391 2212 530 
Q 2431 669 2431 922 
Q 2431 1156 2273 1281 
Q 2116 1406 1581 1522 
L 1381 1569 
Q 847 1681 609 1914 
Q 372 2147 372 2553 
Q 372 3047 722 3315 
Q 1072 3584 1716 3584 
Q 2034 3584 2315 3537 
Q 2597 3491 2834 3397 
z
" transform="scale(0.015625)"/>
       <path id="DejaVuSans-69" d="M 603 3500 
L 1178 3500 
L 1178 0 
L 603 0 
L 603 3500 
z
M 603 4863 
L 1178 4863 
L 1178 4134 
L 603 4134 
L 603 4863 
z
" transform="scale(0.015625)"/>
       <path id="DejaVuSans-74" d="M 1172 4494 
L 1172 3500 
L 2356 3500 
L 2356 3053 
L 1172 3053 
L 1172 1153 
Q 1172 725 1289 603 
Q 1406 481 1766 481 
L 2356 481 
L 2356 0 
L 1766 0 
Q 1100 0 847 248 
Q 594 497 594 1153 
L 594 3053 
L 172 3053 
L 172 3500 
L 594 3500 
L 594 4494 
L 1172 4494 
z
" transform="scale(0.015625)"/>
       <path id="DejaVuSans-6e" d="M 3513 2113 
L 3513 0 
L 2938 0 
L 2938 2094 
Q 2938 2591 2744 2837 
Q 2550 3084 2163 3084 
Q 1697 3084 1428 2787 
Q 1159 2491 1159 1978 
L 1159 0 
L 581 0 
L 581 3500 
L 1159 3500 
L 1159 2956 
Q 1366 3272 1645 3428 
Q 1925 3584 2291 3584 
Q 2894 3584 3203 3211 
Q 3513 2838 3513 2113 
z
" transform="scale(0.015625)"/>
       <path id="DejaVuSans-20" transform="scale(0.015625)"/>
       <path id="DejaVuSans-68" d="M 3513 2113 
L 3513 0 
L 2938 0 
L 2938 2094 
Q 2938 2591 2744 2837 
Q 2550 3084 2163 3084 
Q 1697 3084 1428 2787 
Q 1159 2491 1159 1978 
L 1159 0 
L 581 0 
L 581 4863 
L 1159 4863 
L 1159 2956 
Q 1366 3272 1645 3428 
Q 1925 3584 2291 3584 
Q 2894 3584 3203 3211 
Q 3513 2838 3513 2113 
z
" transform="scale(0.015625)"/>
       <path id="DejaVuSans-72" d="M 2631 2963 
Q 2534 3019 2420 3045 
Q 2306 3072 2169 3072 
Q 1681 3072 1420 2755 
Q 1159 2438 1159 1844 
L 1159 0 
L 581 0 
L 581 3500 
L 1159 3500 
L 1159 2956 
Q 1341 3275 1631 3429 
Q 1922 3584 2338 3584 
Q 2397 3584 2469 3576 
Q 2541 3569 2628 3553 
L 2631 2963 
z
" transform="scale(0.015625)"/>
       <path id="DejaVuSans-7a" d="M 353 3500 
L 3084 3500 
L 3084 2975 
L 922 459 
L 3084 459 
L 3084 0 
L 275 0 
L 275 525 
L 2438 3041 
L 353 3041 
L 353 3500 
z
" transform="scale(0.015625)"/>
       <path id="DejaVuSans-61" d="M 2194 1759 
Q 1497 1759 1228 1600 
Q 959 1441 959 1056 
Q 959 750 1161 570 
Q 1363 391 1709 391 
Q 2188 391 2477 730 
Q 2766 1069 2766 1631 
L 2766 1759 
L 2194 1759 
z
M 3341 1997 
L 3341 0 
L 2766 0 
L 2766 531 
Q 2569 213 2275 61 
Q 1981 -91 1556 -91 
Q 1019 -91 701 211 
Q 384 513 384 1019 
Q 384 1609 779 1909 
Q 1175 2209 1959 2209 
L 2766 2209 
L 2766 2266 
Q 2766 2663 2505 2880 
Q 2244 3097 1772 3097 
Q 1472 3097 1187 3025 
Q 903 2953 641 2809 
L 641 3341 
Q 956 3463 1253 3523 
Q 1550 3584 1831 3584 
Q 2591 3584 2966 3190 
Q 3341 2797 3341 1997 
z
" transform="scale(0.015625)"/>
       <path id="DejaVuSans-6c" d="M 603 4863 
L 1178 4863 
L 1178 0 
L 603 0 
L 603 4863 
z
" transform="scale(0.015625)"/>
       <path id="DejaVuSans-65" d="M 3597 1894 
L 3597 1613 
L 953 1613 
Q 991 1019 1311 708 
Q 1631 397 2203 397 
Q 2534 397 2845 478 
Q 3156 559 3463 722 
L 3463 178 
Q 3153 47 2828 -22 
Q 2503 -91 2169 -91 
Q 1331 -91 842 396 
Q 353 884 353 1716 
Q 353 2575 817 3079 
Q 1281 3584 2069 3584 
Q 2775 3584 3186 3129 
Q 3597 2675 3597 1894 
z
M 3022 2063 
Q 3016 2534 2758 2815 
Q 2500 3097 2075 3097 
Q 1594 3097 1305 2825 
Q 1016 2553 972 2059 
L 3022 2063 
z
" transform="scale(0.015625)"/>
      </defs>
      <use xlink:href="#DejaVuSans-50"/>
      <use xlink:href="#DejaVuSans-6f" transform="translate(56.677734 0)"/>
      <use xlink:href="#DejaVuSans-73" transform="translate(117.859375 0)"/>
      <use xlink:href="#DejaVuSans-69" transform="translate(169.958984 0)"/>
      <use xlink:href="#DejaVuSans-74" transform="translate(197.742188 0)"/>
      <use xlink:href="#DejaVuSans-69" transform="translate(236.951172 0)"/>
      <use xlink:href="#DejaVuSans-6f" transform="translate(264.734375 0)"/>
      <use xlink:href="#DejaVuSans-6e" transform="translate(325.916016 0)"/>
      <use xlink:href="#DejaVuSans-20" transform="translate(389.294922 0)"/>
      <use xlink:href="#DejaVuSans-68" transform="translate(421.082031 0)"/>
      <use xlink:href="#DejaVuSans-6f" transform="translate(484.460938 0)"/>
      <use xlink:href="#DejaVuSans-72" transform="translate(545.642578 0)"/>
      <use xlink:href="#DejaVuSans-69" transform="translate(586.755859 0)"/>
      <use xlink:href="#DejaVuSans-7a" transform="translate(614.539062 0)"/>
      <use xlink:href="#DejaVuSans-6f" transform="translate(667.029297 0)"/>
      <use xlink:href="#DejaVuSans-6e" transform="translate(728.210938 0)"/>
      <use xlink:href="#DejaVuSans-74" transform="translate(791.589844 0)"/>
      <use xlink:href="#DejaVuSans-61" transform="translate(830.798828 0)"/>
      <use xlink:href="#DejaVuSans-6c" transform="translate(892.078125 0)"/>
      <use xlink:href="#DejaVuSans-65" transform="translate(919.861328 0)"/>
     </g>
    </g>
   </g>
   <g id="matplotlib.axis_2">
    <g id="ytick_1">
     <g id="line2d_7">
      <defs>
       <path id="mf070966f47" d="M 0 0 
L -3.5 0 
" style="stroke: #000000; stroke-width: 0.8"/>
      </defs>
      <g>
       <use xlink:href="#mf070966f47" x="57.6" y="280.246391" style="stroke: #000000; stroke-width: 0.8"/>
      </g>
     </g>
     <g id="text_8">
      <!-- −100 -->
      <g transform="translate(23.132812 284.04561) scale(0.1 -0.1)">
       <defs>
        <path id="DejaVuSans-2212" d="M 678 2272 
L 4684 2272 
L 4684 1741 
L 678 1741 
L 678 2272 
z
" transform="scale(0.015625)"/>
       </defs>
       <use xlink:href="#DejaVuSans-2212"/>
       <use xlink:href="#DejaVuSans-31" transform="translate(83.789062 0)"/>
       <use xlink:href="#DejaVuSans-30" transform="translate(147.412109 0)"/>
       <use xlink:href="#DejaVuSans-30" transform="translate(211.035156 0)"/>
      </g>
     </g>
    </g>
    <g id="ytick_2">
     <g id="line2d_8">
      <g>
       <use xlink:href="#mf070966f47" x="57.6" y="247.817437" style="stroke: #000000; stroke-width: 0.8"/>
      </g>
     </g>
     <g id="text_9">
      <!-- 0 -->
      <g transform="translate(44.2375 251.616656) scale(0.1 -0.1)">
       <use xlink:href="#DejaVuSans-30"/>
      </g>
     </g>
    </g>
    <g id="ytick_3">
     <g id="line2d_9">
      <g>
       <use xlink:href="#mf070966f47" x="57.6" y="215.388483" style="stroke: #000000; stroke-width: 0.8"/>
      </g>
     </g>
     <g id="text_10">
      <!-- 100 -->
      <g transform="translate(31.5125 219.187701) scale(0.1 -0.1)">
       <use xlink:href="#DejaVuSans-31"/>
       <use xlink:href="#DejaVuSans-30" transform="translate(63.623047 0)"/>
       <use xlink:href="#DejaVuSans-30" transform="translate(127.246094 0)"/>
      </g>
     </g>
    </g>
    <g id="ytick_4">
     <g id="line2d_10">
      <g>
       <use xlink:href="#mf070966f47" x="57.6" y="182.959528" style="stroke: #000000; stroke-width: 0.8"/>
      </g>
     </g>
     <g id="text_11">
      <!-- 200 -->
      <g transform="translate(31.5125 186.758747) scale(0.1 -0.1)">
       <use xlink:href="#DejaVuSans-32"/>
       <use xlink:href="#DejaVuSans-30" transform="translate(63.623047 0)"/>
       <use xlink:href="#DejaVuSans-30" transform="translate(127.246094 0)"/>
      </g>
     </g>
    </g>
    <g id="ytick_5">
     <g id="line2d_11">
      <g>
       <use xlink:href="#mf070966f47" x="57.6" y="150.530574" style="stroke: #000000; stroke-width: 0.8"/>
      </g>
     </g>
     <g id="text_12">
      <!-- 300 -->
      <g transform="translate(31.5125 154.329792) scale(0.1 -0.1)">
       <defs>
        <path id="DejaVuSans-33" d="M 2597 2516 
Q 3050 2419 3304 2112 
Q 3559 1806 3559 1356 
Q 3559 666 3084 287 
Q 2609 -91 1734 -91 
Q 1441 -91 1130 -33 
Q 819 25 488 141 
L 488 750 
Q 750 597 1062 519 
Q 1375 441 1716 441 
Q 2309 441 2620 675 
Q 2931 909 2931 1356 
Q 2931 1769 2642 2001 
Q 2353 2234 1838 2234 
L 1294 2234 
L 1294 2753 
L 1863 2753 
Q 2328 2753 2575 2939 
Q 2822 3125 2822 3475 
Q 2822 3834 2567 4026 
Q 2313 4219 1838 4219 
Q 1578 4219 1281 4162 
Q 984 4106 628 3988 
L 628 4550 
Q 988 4650 1302 4700 
Q 1616 4750 1894 4750 
Q 2613 4750 3031 4423 
Q 3450 4097 3450 3541 
Q 3450 3153 3228 2886 
Q 3006 2619 2597 2516 
z
" transform="scale(0.015625)"/>
       </defs>
       <use xlink:href="#DejaVuSans-33"/>
       <use xlink:href="#DejaVuSans-30" transform="translate(63.623047 0)"/>
       <use xlink:href="#DejaVuSans-30" transform="translate(127.246094 0)"/>
      </g>
     </g>
    </g>
    <g id="ytick_6">
     <g id="line2d_12">
      <g>
       <use xlink:href="#mf070966f47" x="57.6" y="118.101619" style="stroke: #000000; stroke-width: 0.8"/>
      </g>
     </g>
     <g id="text_13">
      <!-- 400 -->
      <g transform="translate(31.5125 121.900838) scale(0.1 -0.1)">
       <use xlink:href="#DejaVuSans-34"/>
       <use xlink:href="#DejaVuSans-30" transform="translate(63.623047 0)"/>
       <use xlink:href="#DejaVuSans-30" transform="translate(127.246094 0)"/>
      </g>
     </g>
    </g>
    <g id="ytick_7">
     <g id="line2d_13">
      <g>
       <use xlink:href="#mf070966f47" x="57.6" y="85.672665" style="stroke: #000000; stroke-width: 0.8"/>
      </g>
     </g>
     <g id="text_14">
      <!-- 500 -->
      <g transform="translate(31.5125 89.471884) scale(0.1 -0.1)">
       <defs>
        <path id="DejaVuSans-35" d="M 691 4666 
L 3169 4666 
L 3169 4134 
L 1269 4134 
L 1269 2991 
Q 1406 3038 1543 3061 
Q 1681 3084 1819 3084 
Q 2600 3084 3056 2656 
Q 3513 2228 3513 1497 
Q 3513 744 3044 326 
Q 2575 -91 1722 -91 
Q 1428 -91 1123 -41 
Q 819 9 494 109 
L 494 744 
Q 775 591 1075 516 
Q 1375 441 1709 441 
Q 2250 441 2565 725 
Q 2881 1009 2881 1497 
Q 2881 1984 2565 2268 
Q 2250 2553 1709 2553 
Q 1456 2553 1204 2497 
Q 953 2441 691 2322 
L 691 4666 
z
" transform="scale(0.015625)"/>
       </defs>
       <use xlink:href="#DejaVuSans-35"/>
       <use xlink:href="#DejaVuSans-30" transform="translate(63.623047 0)"/>
       <use xlink:href="#DejaVuSans-30" transform="translate(127.246094 0)"/>
      </g>
     </g>
    </g>
    <g id="ytick_8">
     <g id="line2d_14">
      <g>
       <use xlink:href="#mf070966f47" x="57.6" y="53.24371" style="stroke: #000000; stroke-width: 0.8"/>
      </g>
     </g>
     <g id="text_15">
      <!-- 600 -->
      <g transform="translate(31.5125 57.042929) scale(0.1 -0.1)">
       <use xlink:href="#DejaVuSans-36"/>
       <use xlink:href="#DejaVuSans-30" transform="translate(63.623047 0)"/>
       <use xlink:href="#DejaVuSans-30" transform="translate(127.246094 0)"/>
      </g>
     </g>
    </g>
    <g id="text_16">
     <!-- Position verticale -->
     <g transform="translate(17.053125 217.300656) rotate(-90) scale(0.1 -0.1)">
      <defs>
       <path id="DejaVuSans-76" d="M 191 3500 
L 800 3500 
L 1894 563 
L 2988 3500 
L 3597 3500 
L 2284 0 
L 1503 0 
L 191 3500 
z
" transform="scale(0.015625)"/>
       <path id="DejaVuSans-63" d="M 3122 3366 
L 3122 2828 
Q 2878 2963 2633 3030 
Q 2388 3097 2138 3097 
Q 1578 3097 1268 2742 
Q 959 2388 959 1747 
Q 959 1106 1268 751 
Q 1578 397 2138 397 
Q 2388 397 2633 464 
Q 2878 531 3122 666 
L 3122 134 
Q 2881 22 2623 -34 
Q 2366 -91 2075 -91 
Q 1284 -91 818 406 
Q 353 903 353 1747 
Q 353 2603 823 3093 
Q 1294 3584 2113 3584 
Q 2378 3584 2631 3529 
Q 2884 3475 3122 3366 
z
" transform="scale(0.015625)"/>
      </defs>
      <use xlink:href="#DejaVuSans-50"/>
      <use xlink:href="#DejaVuSans-6f" transform="translate(56.677734 0)"/>
      <use xlink:href="#DejaVuSans-73" transform="translate(117.859375 0)"/>
      <use xlink:href="#DejaVuSans-69" transform="translate(169.958984 0)"/>
      <use xlink:href="#DejaVuSans-74" transform="translate(197.742188 0)"/>
      <use xlink:href="#DejaVuSans-69" transform="translate(236.951172 0)"/>
      <use xlink:href="#DejaVuSans-6f" transform="translate(264.734375 0)"/>
      <use xlink:href="#DejaVuSans-6e" transform="translate(325.916016 0)"/>
      <use xlink:href="#DejaVuSans-20" transform="translate(389.294922 0)"/>
      <use xlink:href="#DejaVuSans-76" transform="translate(421.082031 0)"/>
      <use xlink:href="#DejaVuSans-65" transform="translate(480.261719 0)"/>
      <use xlink:href="#DejaVuSans-72" transform="translate(541.785156 0)"/>
      <use xlink:href="#DejaVuSans-74" transform="translate(582.898438 0)"/>
      <use xlink:href="#DejaVuSans-69" transform="translate(622.107422 0)"/>
      <use xlink:href="#DejaVuSans-63" transform="translate(649.890625 0)"/>
      <use xlink:href="#DejaVuSans-61" transform="translate(704.871094 0)"/>
      <use xlink:href="#DejaVuSans-6c" transform="translate(766.150391 0)"/>
      <use xlink:href="#DejaVuSans-65" transform="translate(793.933594 0)"/>
     </g>
    </g>
   </g>
   <g id="line2d_15">
    <path d="M 145.478493 294.085513 
L 145.385718 293.866552 
L 136.658078 293.866552 
L 136.658078 293.866552 
L 136.658078 294.515131 
L 136.658078 294.515131 
L 157.022571 294.515131 
L 162.840998 294.839421 
L 177.387064 294.839421 
L 186.114704 295.16371 
L 194.842344 295.16371 
L 203.569983 295.488 
L 221.025263 295.488 
L 229.752903 295.16371 
L 261.754249 295.16371 
L 264.663462 295.488 
L 285.027955 295.488 
L 287.937168 295.16371 
L 302.483235 295.16371 
L 311.210875 294.190842 
L 314.120088 294.190842 
L 314.120088 293.866552 
L 317.029301 293.542263 
L 317.029301 292.569394 
L 314.120088 292.893684 
L 305.392448 292.893684 
L 302.483235 293.217973 
L 296.664808 293.217973 
L 293.755595 292.893684 
L 279.209529 292.893684 
L 282.118742 292.893684 
L 282.118742 292.569394 
L 285.027955 292.569394 
L 285.027955 293.217973 
L 287.937168 293.217973 
L 287.937168 293.217973 
L 287.937168 292.893684 
L 285.027955 292.893684 
L 285.027955 292.893684 
L 285.027955 291.596525 
L 308.301661 286.407893 
L 311.210875 286.083603 
L 314.120088 285.435024 
L 314.120088 283.489287 
L 311.210875 282.840708 
L 311.210875 282.516418 
L 302.483235 281.54355 
L 302.483235 281.54355 
L 299.574021 281.54355 
L 299.574021 280.894971 
L 299.574021 280.894971 
L 290.846382 280.894971 
L 290.846382 280.894971 
L 290.846382 278.949233 
L 287.937168 278.949233 
L 287.937168 278.624944 
L 287.937168 278.624944 
L 276.300315 277.327786 
L 273.391102 277.327786 
L 273.391102 277.003496 
L 270.481889 276.679206 
L 267.572675 276.679206 
L 261.754249 276.030627 
L 261.754249 276.030627 
L 255.935822 276.030627 
L 255.935822 276.030627 
L 255.935822 276.354917 
L 253.026609 276.354917 
L 253.026609 276.354917 
L 253.026609 276.679206 
L 247.208183 276.679206 
L 247.208183 277.003496 
L 235.571329 277.003496 
L 229.752903 276.679206 
L 221.025263 276.679206 
L 218.11605 276.354917 
L 212.297623 276.354917 
L 209.38841 276.030627 
L 203.569983 275.706338 
L 200.66077 275.382048 
L 194.842344 275.382048 
L 177.387064 273.436311 
L 177.387064 273.112021 
L 174.477851 272.787732 
L 171.568637 272.139153 
L 171.568637 271.814863 
L 168.659424 271.490574 
L 165.750211 270.841995 
L 165.750211 270.517705 
L 162.840998 270.193416 
L 162.840998 268.896257 
L 162.840998 268.896257 
L 165.750211 268.896257 
L 165.750211 269.220547 
L 162.840998 269.220547 
L 165.750211 269.220547 
L 165.750211 268.896257 
L 151.840099 268.896257 
L 146.339678 269.185099 
L 146.881083 269.114219 
L 146.881083 267.239362 
L 157.881982 268.14135 
L 152.381765 268.14135 
L 152.381474 267.20391 
L 146.881083 266.266493 
L 141.380924 268.105902 
L 138.471362 267.492771 
L 149.472261 267.492771 
L 138.471362 267.781613 
L 143.971869 267.168482 
L 142.476505 266.95052 
L 142.476505 266.95052 
L 139.567291 266.95052 
L 139.567291 267.27481 
L 139.567291 267.27481 
L 133.748865 267.27481 
L 133.748865 267.27481 
L 133.748865 267.923389 
L 139.567291 267.923389 
L 145.385718 268.571968 
L 148.294931 268.571968 
L 151.204144 268.896257 
L 154.113358 268.896257 
L 154.113358 269.220547 
L 157.022571 269.220547 
L 159.931784 269.544836 
L 162.840998 269.544836 
L 168.659424 270.193416 
L 174.477851 270.193416 
L 174.477851 270.517705 
L 177.387064 270.517705 
L 180.296277 270.841995 
L 186.114704 270.517705 
L 189.023917 270.193416 
L 194.842344 268.896257 
L 203.569983 267.599099 
L 209.38841 266.301941 
L 232.662116 262.734756 
L 238.480543 261.437598 
L 247.208183 260.464729 
L 253.026609 259.491861 
L 267.572675 257.221834 
L 276.300315 254.303228 
L 276.300315 249.114595 
L 267.572675 248.141727 
L 250.117396 248.141727 
L 250.117396 248.141727 
L 247.208183 247.817437 
L 244.298969 247.817437 
L 244.298969 247.817437 
L 241.389756 247.493147 
L 229.752903 247.493147 
L 229.752903 247.168858 
L 226.84369 247.168858 
L 226.84369 247.168858 
L 226.84369 246.844568 
L 223.934476 246.844568 
L 223.934476 246.844568 
L 223.934476 246.520279 
L 223.934476 246.520279 
L 221.025263 246.195989 
L 221.025263 246.195989 
L 221.025263 245.8717 
L 215.206837 245.8717 
L 215.206837 245.8717 
L 227.067146 246.013517 
L 227.067146 246.626607 
L 232.567567 246.626607 
L 227.067146 246.626607 
L 229.658353 246.013477 
L 224.157933 246.626607 
L 224.157933 245.689228 
L 229.658353 246.302318 
L 229.658353 246.302318 
L 213.157034 246.013477 
L 218.657454 246.626607 
L 209.38841 246.520279 
L 209.38841 246.844568 
L 209.38841 246.844568 
L 215.206837 246.844568 
L 215.206837 246.844568 
L 215.206837 246.520279 
L 218.11605 246.520279 
L 218.11605 246.520279 
L 218.11605 246.195989 
L 215.206837 246.195989 
L 215.206837 245.54741 
L 215.206837 245.54741 
L 212.297623 245.54741 
L 212.297623 245.54741 
L 221.566668 246.231439 
L 221.566668 246.844568 
L 221.566668 246.231439 
L 229.97636 245.005159 
L 229.97636 246.231439 
L 229.97636 246.231439 
L 235.47678 245.907149 
L 238.385993 244.0677 
L 232.885573 244.68087 
L 232.885573 245.294019 
L 238.385993 245.907149 
L 235.571329 245.8717 
L 235.571329 245.8717 
L 235.571329 245.54741 
L 238.480543 245.54741 
L 238.480543 245.54741 
L 244.298969 244.898831 
L 244.298969 244.898831 
L 247.208183 244.898831 
L 244.298969 244.898831 
L 244.298969 244.574542 
L 244.298969 244.898831 
L 241.389756 244.898831 
L 241.389756 244.898831 
L 241.389756 245.223121 
L 235.571329 245.223121 
L 235.571329 245.223121 
L 235.571329 245.54741 
L 235.571329 245.54741 
L 223.934476 246.520279 
L 223.934476 246.520279 
L 226.84369 246.520279 
L 226.84369 246.195989 
L 235.571329 246.195989 
L 238.480543 245.8717 
L 238.480543 245.8717 
L 247.208183 245.8717 
L 247.208183 245.8717 
L 244.298969 246.195989 
L 244.298969 246.195989 
L 247.208183 246.195989 
L 247.208183 246.195989 
L 247.208183 246.520279 
L 247.208183 246.520279 
L 250.117396 246.520279 
L 244.298969 246.520279 
L 244.298969 246.844568 
L 244.298969 246.844568 
L 235.571329 246.844568 
L 235.571329 246.844568 
L 235.571329 246.195989 
L 238.480543 246.195989 
L 235.571329 246.195989 
L 235.571329 246.520279 
L 235.571329 246.520279 
L 229.752903 246.520279 
L 229.752903 246.520279 
L 229.752903 246.844568 
L 226.84369 246.844568 
L 226.84369 246.844568 
L 226.84369 247.168858 
L 226.84369 246.520279 
L 221.025263 244.574542 
L 218.11605 243.277383 
L 212.297623 241.980225 
L 209.38841 241.007357 
L 206.479197 239.710198 
L 200.66077 238.73733 
L 197.751557 237.764461 
L 189.023917 235.818724 
L 183.205491 235.494434 
L 180.296277 234.845855 
L 157.022571 233.548697 
L 154.113358 233.224408 
L 148.294931 232.900118 
L 142.476505 232.900118 
L 136.658078 232.251539 
L 116.293585 232.251539 
L 110.475159 231.60296 
L 104.656732 231.27867 
L 101.747519 230.954381 
L 95.929092 230.630091 
L 93.019879 229.981512 
L 87.201452 229.657223 
L 84.292239 229.332933 
L 84.292239 229.332933 
L 73.832727 227.605157 
L 79.333223 227.280868 
L 73.832727 227.280868 
L 84.833632 226.956578 
L 82.242437 226.019138 
L 87.742845 227.24542 
L 90.652059 226.632289 
L 93.561272 226.632289 
L 99.379699 226.956578 
L 96.788503 227.569709 
L 88.697076 227.569667 
L 108.107338 225.7303 
L 97.106433 226.343428 
L 100.015646 226.956578 
L 98.838306 226.738617 
L 98.838306 225.765748 
L 95.929092 225.765748 
L 95.929092 225.441458 
L 95.929092 225.441458 
L 93.019879 225.117169 
L 93.019879 224.46859 
L 90.110666 224.46859 
L 90.110666 222.847142 
L 93.019879 222.847142 
L 93.019879 222.847142 
L 95.929092 222.522853 
L 95.929092 222.522853 
L 98.838306 222.522853 
L 98.838306 222.522853 
L 98.838306 222.198563 
L 110.698624 222.163115 
L 105.198125 222.163115 
L 105.198125 221.225694 
L 113.28982 219.999436 
L 107.789411 222.451953 
L 102.288912 222.451953 
L 110.380606 221.838825 
L 104.880198 219.999436 
L 115.881015 221.225694 
L 110.475159 221.225694 
L 110.475159 221.225694 
L 110.475159 220.577115 
L 110.475159 220.577115 
L 125.021225 220.577115 
L 127.930438 220.901405 
L 130.839652 220.901405 
L 133.748865 220.577115 
L 148.294931 220.577115 
L 148.200382 220.865957 
L 145.609175 220.252826 
L 143.017909 220.865957 
L 145.927123 220.252826 
L 148.836336 221.479084 
L 157.246028 221.479084 
L 157.246028 220.865957 
L 154.654762 221.479084 
L 154.654762 221.190246 
L 154.113358 220.901405 
L 154.113358 220.901405 
L 154.113358 221.225694 
L 154.113358 221.225694 
L 151.204144 221.225694 
L 151.204144 221.225694 
L 159.837235 220.901405 
L 154.336814 221.514536 
L 154.113358 221.225694 
L 151.745549 221.838825 
L 157.246028 220.612563 
L 157.022571 220.577115 
L 159.931784 220.577115 
L 159.931784 220.252826 
L 168.659424 220.252826 
L 171.568637 219.928536 
L 171.568637 219.928536 
L 174.477851 219.928536 
L 174.477851 220.252826 
L 180.296277 220.252826 
L 180.296277 220.577115 
L 183.205491 220.577115 
L 186.114704 220.901405 
L 189.023917 220.901405 
L 197.751557 219.928536 
L 200.884227 218.666826 
L 204.111388 218.59593 
L 226.74914 216.07251 
L 243.568466 214.810793 
L 268.797425 212.611656 
L 271.706638 212.865056 
L 269.115431 210.665951 
L 288.843708 208.431337 
L 291.435177 207.493945 
L 285.027955 206.956954 
L 273.391102 206.956954 
L 255.935822 207.605534 
L 247.208183 208.254113 
L 232.662116 209.87556 
L 229.752903 209.87556 
L 223.934476 210.19985 
L 223.934476 210.19985 
L 221.025263 210.19985 
L 221.025263 210.19985 
L 229.752903 209.226981 
L 235.571329 208.902692 
L 238.480543 208.578402 
L 250.117396 207.929823 
L 261.754249 206.632665 
L 258.845036 206.632665 
L 253.026609 207.281244 
L 250.117396 207.281244 
L 244.298969 207.929823 
L 238.480543 207.929823 
L 238.480543 207.929823 
L 236.160125 209.333316 
L 225.159226 209.94645 
L 230.659443 209.333316 
L 230.659734 209.009026 
L 233.568656 208.395924 
L 235.571329 208.254113 
L 235.571329 207.929823 
L 238.480543 207.929823 
L 247.208183 206.956954 
L 247.208183 206.956954 
L 247.208183 206.632665 
L 247.208183 206.632665 
L 250.117396 206.632665 
L 250.117396 206.632665 
L 250.117396 206.308375 
L 250.117396 206.632665 
L 244.298969 206.632665 
L 244.298969 206.632665 
L 244.298969 206.308375 
L 244.298969 206.308375 
L 247.208183 206.308375 
L 247.208183 206.308375 
L 247.208183 205.335507 
L 250.117396 205.011217 
L 250.117396 204.686928 
L 247.208183 204.686928 
L 250.117396 204.362638 
L 244.298969 206.308375 
L 244.298969 205.984086 
L 244.298969 205.984086 
L 241.389756 205.984086 
L 241.389756 205.659796 
L 241.389756 205.984086 
L 238.480543 205.984086 
L 238.480543 205.984086 
L 238.480543 205.335507 
L 235.571329 205.335507 
L 235.571329 204.686928 
L 232.662116 204.362638 
L 232.662116 202.74119 
L 229.752903 202.416901 
L 229.752903 202.092611 
L 226.84369 201.768322 
L 226.84369 201.444032 
L 223.934476 201.119743 
L 223.934476 200.795453 
L 221.025263 200.471164 
L 221.025263 200.146874 
L 215.206837 199.498295 
L 215.206837 199.174005 
L 212.297623 199.174005 
L 206.479197 198.525426 
L 206.479197 198.525426 
L 203.569983 198.525426 
L 203.569983 198.525426 
L 206.479197 198.201137 
L 206.479197 198.201137 
L 206.479197 197.876847 
L 206.479197 197.876847 
L 203.569983 197.552558 
L 203.569983 197.228268 
L 200.66077 196.903979 
L 200.66077 195.60682 
L 200.66077 195.60682 
L 197.751557 195.282531 
L 197.751557 194.958241 
L 194.842344 194.958241 
L 194.842344 194.633952 
L 186.114704 194.633952 
L 186.114704 194.958241 
L 186.114704 194.958241 
L 174.477851 194.958241 
L 209.38841 194.958241 
L 215.206837 195.282531 
L 221.025263 195.282531 
L 206.479197 195.282531 
L 203.569983 194.958241 
L 197.751557 194.958241 
L 194.842344 194.633952 
L 191.93313 194.633952 
L 191.93313 194.309662 
L 189.023917 194.309662 
L 189.023917 193.985373 
L 186.114704 193.985373 
L 186.114704 193.661083 
L 186.114704 193.661083 
L 183.205491 193.661083 
L 183.205491 193.336794 
L 183.205491 193.336794 
L 180.296277 193.336794 
L 180.296277 192.688214 
L 180.296277 192.688214 
L 177.387064 192.688214 
L 180.296277 192.688214 
L 180.296277 192.363925 
L 180.296277 192.363925 
L 183.205491 192.363925 
L 183.205491 193.336794 
L 186.114704 193.336794 
L 186.114704 193.336794 
L 189.023917 193.012504 
L 189.023917 193.012504 
L 189.023917 193.336794 
L 189.023917 193.336794 
L 174.477851 193.336794 
L 174.477851 193.336794 
L 177.387064 193.012504 
L 177.387064 193.012504 
L 171.568637 193.012504 
L 171.568637 193.012504 
L 171.568637 193.336794 
L 171.568637 193.336794 
L 177.387064 193.336794 
L 177.387064 193.012504 
L 177.387064 193.012504 
L 162.840998 193.012504 
L 168.659424 193.012504 
L 168.659424 193.336794 
L 168.659424 193.012504 
L 171.568637 193.012504 
L 151.204144 193.012504 
L 154.113358 193.012504 
L 157.022571 193.336794 
L 162.840998 193.336794 
L 165.750211 193.012504 
L 168.659424 193.012504 
L 171.568637 192.688214 
L 171.568637 192.688214 
L 180.296277 192.688214 
L 180.296277 193.012504 
L 180.296277 192.688214 
L 177.387064 192.688214 
L 177.387064 192.688214 
L 177.387064 193.012504 
L 177.387064 193.012504 
L 180.296277 193.012504 
L 180.296277 193.012504 
L 180.296277 193.336794 
L 177.387064 193.012504 
L 177.387064 193.012504 
L 177.387064 192.363925 
L 180.296277 191.715346 
L 180.296277 190.742477 
L 189.023917 187.823871 
L 191.93313 187.175292 
L 194.842344 186.202424 
L 200.66077 185.229555 
L 209.38841 183.932397 
L 212.297623 183.283818 
L 215.206837 182.959528 
L 221.025263 181.66237 
L 223.934476 181.33808 
L 226.84369 180.689501 
L 229.752903 180.365212 
L 238.480543 178.419475 
L 258.845036 176.149448 
L 261.754249 175.500869 
L 261.754249 175.500869 
L 264.663462 175.176579 
L 264.663462 175.176579 
L 264.663462 174.85229 
L 267.572675 174.528 
L 267.572675 174.528 
L 267.572675 173.879421 
L 264.663462 173.879421 
L 264.663462 173.555131 
L 264.663462 173.555131 
L 261.754249 173.879421 
L 258.845036 173.879421 
L 258.845036 173.879421 
L 255.935822 174.20371 
L 255.935822 174.20371 
L 247.208183 174.20371 
L 247.208183 174.20371 
L 244.298969 173.879421 
L 244.298969 173.879421 
L 244.298969 173.555131 
L 247.208183 173.230842 
L 247.208183 173.230842 
L 247.208183 172.906552 
L 250.117396 172.582263 
L 250.117396 170.636525 
L 261.754249 169.339367 
L 264.663462 169.339367 
L 273.391102 168.690788 
L 276.300315 168.690788 
L 279.209529 168.366499 
L 279.209529 168.366499 
L 279.209529 168.042209 
L 282.118742 168.042209 
L 282.118742 167.39363 
L 279.209529 167.39363 
L 279.209529 167.06934 
L 279.209529 167.06934 
L 276.300315 167.06934 
L 276.300315 167.06934 
L 276.300315 167.39363 
L 273.391102 167.39363 
L 273.391102 167.71792 
L 273.391102 167.71792 
L 270.481889 167.71792 
L 270.481889 168.042209 
L 270.481889 168.042209 
L 261.754249 168.042209 
L 261.754249 167.71792 
L 261.754249 167.71792 
L 270.481889 167.71792 
L 270.481889 168.042209 
L 270.481889 168.042209 
L 273.391102 167.71792 
L 273.391102 168.042209 
L 273.391102 168.042209 
L 276.300315 168.042209 
L 276.300315 168.042209 
L 273.391102 168.366499 
L 273.391102 168.366499 
L 273.391102 168.690788 
L 276.300315 168.366499 
L 276.300315 168.366499 
L 276.300315 168.690788 
L 276.300315 168.690788 
L 279.209529 168.690788 
L 279.209529 168.690788 
L 279.209529 168.366499 
L 279.209529 168.366499 
L 276.300315 168.366499 
L 276.300315 168.366499 
L 276.300315 168.042209 
L 276.300315 168.042209 
L 273.391102 167.71792 
L 273.391102 167.71792 
L 270.481889 167.71792 
L 270.481889 167.71792 
L 270.481889 167.39363 
L 270.481889 167.39363 
L 285.027955 167.39363 
L 285.027955 167.39363 
L 285.027955 167.06934 
L 285.027955 167.39363 
L 270.481889 167.39363 
L 270.481889 167.06934 
L 270.481889 167.06934 
L 267.572675 167.06934 
L 276.300315 167.06934 
L 276.300315 167.06934 
L 279.209529 167.39363 
L 290.846382 167.39363 
L 290.846382 167.71792 
L 302.483235 167.71792 
L 302.483235 167.71792 
L 302.483235 168.042209 
L 302.483235 168.042209 
L 305.392448 167.71792 
L 302.483235 168.042209 
L 285.027955 168.042209 
L 285.027955 168.042209 
L 282.118742 168.366499 
L 273.391102 168.366499 
L 273.391102 168.366499 
L 270.481889 168.042209 
L 270.481889 168.042209 
L 267.572675 168.042209 
L 267.572675 168.042209 
L 267.572675 168.690788 
L 267.572675 168.690788 
L 270.481889 168.690788 
L 270.481889 168.690788 
L 270.481889 169.015078 
L 270.481889 169.015078 
L 273.391102 168.366499 
L 273.391102 159.934971 
L 270.481889 159.610681 
L 267.572675 158.962102 
L 267.572675 157.664944 
L 261.754249 156.367786 
L 258.845036 156.043496 
L 247.208183 155.394917 
L 241.389756 154.746338 
L 238.480543 154.746338 
L 238.480543 154.746338 
L 235.571329 154.422048 
L 235.571329 154.422048 
L 241.389756 154.422048 
L 247.208183 155.070627 
L 250.117396 155.070627 
L 253.026609 155.394917 
L 223.934476 154.422048 
L 223.934476 154.422048 
L 226.84369 154.097759 
L 226.84369 154.097759 
L 226.84369 153.773469 
L 212.297623 153.773469 
L 212.297623 153.773469 
L 212.297623 153.12489 
L 209.38841 153.12489 
L 209.38841 152.800601 
L 203.569983 152.152021 
L 203.569983 151.827732 
L 197.751557 151.179153 
L 197.751557 151.179153 
L 197.751557 150.530574 
L 197.751557 150.530574 
L 194.842344 150.530574 
L 197.751557 150.530574 
L 200.66077 150.206284 
L 200.66077 150.206284 
L 200.66077 149.557705 
L 200.66077 149.557705 
L 197.751557 149.557705 
L 197.751557 149.233416 
L 194.842344 149.233416 
L 194.842344 149.233416 
L 189.023917 148.584836 
L 189.023917 148.584836 
L 209.38841 148.584836 
L 206.479197 148.584836 
L 209.38841 148.260547 
L 215.206837 148.260547 
L 250.117396 148.584836 
L 253.026609 148.260547 
L 253.026609 148.260547 
L 258.845036 148.260547 
L 261.754249 147.936257 
L 264.663462 147.936257 
L 270.481889 147.287678 
L 273.391102 147.287678 
L 279.209529 146.639099 
L 279.209529 146.31481 
L 282.118742 145.99052 
L 282.118742 145.99052 
L 287.937168 145.99052 
L 264.663462 145.99052 
L 258.845036 146.31481 
L 253.026609 146.31481 
L 250.117396 145.99052 
L 223.934476 145.99052 
L 221.025263 145.666231 
L 221.025263 145.666231 
L 221.025263 145.017651 
L 235.571329 145.017651 
L 238.480543 145.341941 
L 258.845036 145.341941 
L 261.754249 145.666231 
L 279.209529 145.666231 
L 282.118742 145.99052 
L 290.846382 145.99052 
L 293.755595 146.31481 
L 299.574021 146.31481 
L 302.483235 146.639099 
L 302.483235 146.639099 
L 314.120088 146.639099 
L 299.574021 146.639099 
L 296.664808 146.31481 
L 293.755595 146.31481 
L 290.846382 145.99052 
L 287.937168 145.99052 
L 285.027955 145.666231 
L 282.118742 145.666231 
L 282.118742 145.341941 
L 279.209529 145.666231 
L 279.209529 145.666231 
L 285.027955 145.666231 
L 285.027955 145.341941 
L 302.483235 145.341941 
L 305.392448 145.666231 
L 314.120088 145.666231 
L 319.938514 145.99052 
L 317.029301 145.666231 
L 317.029301 145.666231 
L 319.938514 145.666231 
L 319.938514 145.666231 
L 319.938514 145.99052 
L 319.938514 145.99052 
L 317.029301 145.99052 
L 317.029301 146.639099 
L 317.029301 146.639099 
L 314.120088 146.639099 
L 314.120088 146.963389 
L 314.120088 146.963389 
L 311.210875 147.287678 
L 311.210875 147.287678 
L 311.210875 147.611968 
L 305.392448 147.611968 
L 302.483235 147.936257 
L 302.483235 147.936257 
L 299.574021 147.611968 
L 299.574021 147.611968 
L 299.574021 146.963389 
L 302.483235 146.963389 
L 302.483235 146.31481 
L 305.392448 146.31481 
L 302.483235 146.31481 
L 302.483235 145.99052 
L 267.572675 145.99052 
L 267.572675 146.31481 
L 261.754249 146.31481 
L 261.754249 146.639099 
L 258.845036 146.963389 
L 255.935822 146.963389 
L 255.935822 147.287678 
L 253.026609 147.287678 
L 250.117396 147.611968 
L 247.208183 147.611968 
L 244.298969 147.936257 
L 203.569983 147.936257 
L 203.569983 147.611968 
L 200.66077 147.936257 
L 200.66077 147.936257 
L 197.751557 147.936257 
L 232.662116 148.584836 
L 232.662116 148.584836 
L 232.662116 148.909126 
L 229.752903 148.909126 
L 232.662116 148.909126 
L 235.571329 149.233416 
L 235.571329 149.233416 
L 250.117396 149.233416 
L 241.389756 149.233416 
L 241.389756 148.909126 
L 241.389756 149.233416 
L 238.480543 149.233416 
L 238.480543 149.233416 
L 235.571329 148.909126 
L 238.480543 148.909126 
L 238.480543 148.909126 
L 238.480543 149.233416 
L 238.480543 149.233416 
L 235.571329 149.233416 
L 235.571329 148.909126 
L 235.571329 148.909126 
L 232.662116 148.909126 
L 232.662116 148.909126 
L 229.752903 148.584836 
L 232.662116 148.584836 
L 232.662116 148.584836 
L 232.662116 148.260547 
L 235.571329 148.260547 
L 235.571329 148.260547 
L 235.571329 147.936257 
L 235.571329 147.936257 
L 241.389756 147.936257 
L 241.389756 147.611968 
L 241.389756 147.611968 
L 232.662116 147.611968 
L 232.662116 147.611968 
L 232.662116 147.287678 
L 232.662116 147.287678 
L 229.752903 147.611968 
L 229.752903 147.611968 
L 226.84369 147.611968 
L 226.84369 147.611968 
L 223.934476 147.936257 
L 223.934476 147.936257 
L 223.934476 147.611968 
L 221.025263 147.936257 
L 221.025263 147.936257 
L 218.11605 147.936257 
L 218.11605 148.260547 
L 218.11605 147.611968 
L 218.11605 147.936257 
L 221.025263 147.611968 
L 221.025263 147.611968 
L 232.662116 147.611968 
L 232.662116 147.611968 
L 232.662116 147.936257 
L 232.662116 147.936257 
L 235.571329 147.936257 
L 232.662116 147.936257 
L 229.752903 148.260547 
L 229.752903 148.260547 
L 223.934476 148.260547 
L 221.025263 148.584836 
L 221.025263 148.584836 
L 221.025263 148.909126 
L 218.11605 148.909126 
L 218.11605 148.909126 
L 218.11605 148.584836 
L 218.11605 148.909126 
L 221.025263 148.584836 
L 221.025263 148.584836 
L 223.934476 148.584836 
L 218.11605 148.584836 
L 218.11605 148.584836 
L 218.11605 148.260547 
L 221.025263 148.260547 
L 221.025263 148.260547 
L 221.025263 147.936257 
L 223.934476 147.936257 
L 223.934476 147.936257 
L 223.934476 148.909126 
L 223.934476 148.909126 
L 221.025263 148.584836 
L 221.025263 148.584836 
L 223.934476 148.584836 
L 223.934476 148.584836 
L 226.84369 149.233416 
L 226.84369 149.233416 
L 226.84369 148.584836 
L 229.752903 148.909126 
L 229.752903 148.909126 
L 229.752903 147.936257 
L 226.84369 147.936257 
L 226.84369 147.936257 
L 226.84369 147.611968 
L 226.84369 147.611968 
L 229.752903 147.287678 
L 229.752903 147.287678 
L 229.752903 146.963389 
L 229.752903 146.963389 
L 238.480543 146.963389 
L 238.480543 146.963389 
L 241.389756 146.639099 
L 241.389756 146.639099 
L 244.298969 146.639099 
L 244.298969 146.639099 
L 244.298969 146.963389 
L 244.298969 146.963389 
L 238.480543 146.963389 
L 238.480543 146.639099 
L 238.480543 146.639099 
L 235.571329 146.639099 
L 235.571329 146.639099 
L 238.480543 146.31481 
L 244.298969 146.31481 
L 244.298969 145.99052 
L 253.026609 145.99052 
L 253.026609 145.99052 
L 255.935822 146.31481 
L 255.935822 146.31481 
L 255.935822 146.639099 
L 258.845036 146.639099 
L 258.845036 146.639099 
L 258.845036 146.963389 
L 255.935822 146.963389 
L 255.935822 146.963389 
L 255.935822 147.287678 
L 258.845036 147.287678 
L 258.845036 147.287678 
L 258.845036 147.611968 
L 258.845036 147.611968 
L 261.754249 147.611968 
L 261.754249 147.611968 
L 258.845036 147.936257 
L 258.845036 147.936257 
L 255.935822 147.936257 
L 255.935822 147.936257 
L 255.935822 147.611968 
L 255.935822 147.611968 
L 247.208183 147.611968 
L 247.208183 147.287678 
L 241.389756 147.287678 
L 238.480543 146.963389 
L 235.571329 147.287678 
L 226.84369 147.287678 
L 226.84369 146.963389 
L 223.934476 146.963389 
L 223.934476 146.963389 
L 223.934476 146.639099 
L 223.934476 146.639099 
L 226.84369 146.639099 
L 226.84369 146.639099 
L 226.84369 145.99052 
L 226.84369 145.99052 
L 232.662116 145.99052 
L 229.752903 145.99052 
L 229.752903 146.31481 
L 226.84369 146.31481 
L 226.84369 146.31481 
L 223.934476 146.639099 
L 221.025263 146.639099 
L 221.025263 146.639099 
L 218.11605 146.31481 
L 215.206837 146.31481 
L 223.934476 146.31481 
L 226.84369 145.99052 
L 232.662116 145.99052 
L 235.571329 145.666231 
L 270.481889 145.666231 
L 267.572675 145.666231 
L 264.663462 145.341941 
L 261.754249 145.341941 
L 261.754249 145.017651 
L 258.845036 145.017651 
L 258.845036 145.017651 
L 261.754249 144.693362 
L 267.572675 144.693362 
L 267.572675 144.693362 
L 270.481889 144.369072 
L 273.391102 144.369072 
L 270.481889 144.369072 
L 270.481889 144.693362 
L 270.481889 144.693362 
L 264.663462 144.693362 
L 261.754249 144.369072 
L 250.117396 144.369072 
L 247.208183 144.044783 
L 244.298969 144.044783 
L 241.389756 143.720493 
L 238.480543 143.720493 
L 238.480543 143.720493 
L 235.571329 144.044783 
L 235.571329 144.044783 
L 235.571329 144.693362 
L 235.571329 144.693362 
L 238.480543 144.693362 
L 238.480543 144.693362 
L 238.480543 145.017651 
L 238.480543 145.017651 
L 241.389756 145.017651 
L 241.389756 145.017651 
L 241.389756 145.666231 
L 235.571329 145.666231 
L 238.480543 145.666231 
L 238.480543 145.341941 
L 241.389756 145.341941 
L 241.389756 145.341941 
L 244.298969 145.017651 
L 247.208183 145.017651 
L 247.208183 145.017651 
L 250.117396 144.693362 
L 250.117396 144.693362 
L 261.754249 144.693362 
L 224.205004 144.080228 
L 224.205004 143.467093 
L 229.705774 143.467093 
L 229.705774 144.693362 
L 232.614987 144.693362 
L 238.115466 143.467093 
L 230.023431 144.080228 
L 230.023431 143.467093 
L 235.523909 144.080228 
L 243.933892 144.080228 
L 243.933892 144.080228 
L 238.433413 143.467093 
L 227.432485 143.467093 
L 241.02433 143.467093 
L 241.024679 144.080228 
L 235.5242 144.080228 
L 246.524837 144.080228 
L 244.298969 144.044783 
L 244.298969 144.693362 
L 244.298969 144.693362 
L 247.208183 144.369072 
L 250.117396 143.720493 
L 255.935822 143.071914 
L 258.845036 142.099046 
L 264.663462 141.126177 
L 270.481889 140.477598 
L 273.391102 139.829019 
L 276.300315 138.85615 
L 279.209529 138.207571 
L 287.937168 137.234702 
L 287.937168 136.586123 
L 290.846382 136.261834 
L 293.755595 135.613255 
L 299.574021 134.964676 
L 299.574021 134.640386 
L 299.574021 134.640386 
L 302.483235 134.316097 
L 302.483235 134.316097 
L 299.574021 134.316097 
L 299.574021 134.640386 
L 299.574021 134.640386 
L 296.664808 134.964676 
L 296.664808 134.964676 
L 317.029301 136.261834 
L 317.029301 136.261834 
L 317.029301 136.586123 
L 311.210875 136.586123 
L 311.210875 136.586123 
L 311.210875 136.261834 
L 311.210875 136.261834 
L 308.301661 136.261834 
L 308.301661 136.261834 
L 308.301661 135.613255 
L 305.392448 135.613255 
L 305.392448 135.288965 
L 305.392448 135.288965 
L 302.483235 134.964676 
L 302.483235 134.964676 
L 299.574021 134.964676 
L 296.664808 134.640386 
L 293.755595 134.640386 
L 290.846382 134.316097 
L 290.846382 134.316097 
L 287.937168 134.316097 
L 287.937168 134.316097 
L 287.937168 134.640386 
L 287.937168 134.640386 
L 285.027955 134.964676 
L 287.937168 134.640386 
L 287.937168 133.991807 
L 285.027955 134.316097 
L 285.027955 133.343228 
L 282.118742 133.343228 
L 282.118742 132.694649 
L 261.754249 130.424622 
L 258.845036 129.776043 
L 253.026609 129.451753 
L 244.298969 128.478885 
L 238.480543 128.154595 
L 235.571329 128.154595 
L 229.752903 127.506016 
L 226.84369 127.506016 
L 226.84369 127.506016 
L 229.752903 127.830306 
L 229.752903 127.830306 
L 235.571329 127.830306 
L 238.480543 127.506016 
L 241.389756 127.506016 
L 241.389756 126.857437 
L 238.480543 126.857437 
L 235.571329 126.533147 
L 229.752903 126.208858 
L 226.84369 125.884568 
L 223.934476 125.884568 
L 209.38841 124.263121 
L 209.38841 123.938831 
L 180.566805 121.810584 
L 180.566805 122.712563 
L 164.065747 122.712563 
L 166.974961 122.388273 
L 166.974961 121.450849 
L 161.47454 121.450849 
L 175.384391 122.063984 
L 169.884174 123.614542 
L 180.885073 123.001407 
L 180.885073 122.712563 
L 175.384682 123.036852 
L 172.793387 122.748007 
L 175.384682 123.361142 
L 172.793387 124.298565 
L 172.793387 124.009721 
L 172.793387 124.622855 
L 178.293895 124.009721 
L 177.387064 123.938831 
L 177.387064 123.938831 
L 174.477851 124.263121 
L 174.477851 124.263121 
L 174.477851 124.58741 
L 177.387064 124.9117 
L 177.387064 125.235989 
L 180.296277 124.9117 
L 180.296277 124.9117 
L 180.296277 124.58741 
L 183.205491 124.58741 
L 183.205491 123.938831 
L 180.296277 123.938831 
L 180.296277 124.263121 
L 180.296277 123.938831 
L 186.703499 123.396587 
L 175.7026 124.622855 
L 183.794286 124.947145 
L 183.794286 125.560279 
L 194.795214 124.33401 
L 181.202817 125.560279 
L 181.202817 123.720876 
L 178.293895 124.33401 
L 178.293895 125.560279 
L 175.7026 125.560279 
L 191.93313 125.560279 
L 189.023917 125.560279 
L 189.023917 125.884568 
L 177.97586 125.884568 
L 180.566805 124.6583 
L 186.067284 125.271434 
L 186.067284 125.884568 
L 175.066646 124.6583 
L 175.066646 124.6583 
L 177.97586 124.6583 
L 177.97586 126.497703 
L 172.475177 125.884568 
L 180.885073 125.884568 
L 178.293895 124.6583 
L 178.293895 125.884568 
L 183.205491 125.884568 
L 183.205491 125.884568 
L 186.114704 126.208858 
L 186.114704 126.208858 
L 189.023917 126.208858 
L 189.023917 126.208858 
L 189.023917 125.884568 
L 189.023917 125.884568 
L 180.296277 125.884568 
L 180.296277 125.560279 
L 177.387064 125.884568 
L 177.387064 125.884568 
L 174.477851 125.884568 
L 174.477851 126.208858 
L 174.477851 126.208858 
L 177.387064 126.208858 
L 177.387064 125.884568 
L 180.296277 125.884568 
L 180.296277 125.884568 
L 186.114704 125.235989 
L 189.023917 125.235989 
L 189.023917 124.9117 
L 191.93313 124.9117 
L 191.93313 125.235989 
L 191.93313 125.235989 
L 194.842344 125.235989 
L 191.93313 125.560279 
L 194.842344 125.560279 
L 194.842344 125.235989 
L 204.158779 124.622855 
L 193.15788 123.072297 
L 209.658938 123.614542 
L 209.38841 122.641673 
L 209.38841 121.668804 
L 212.297623 120.695936 
L 212.297623 119.723067 
L 215.206837 118.750198 
L 215.206837 115.183013 
L 218.11605 114.534434 
L 218.11605 113.885855 
L 234.935375 112.011008 
L 229.434897 109.558471 
L 226.84369 112.912987 
L 226.84369 112.912987 
L 226.84369 113.237276 
L 226.84369 113.237276 
L 250.117396 113.237276 
L 255.935822 112.912987 
L 261.754249 112.912987 
L 264.663462 112.588697 
L 276.253186 109.523026 
L 290.163037 110.13616 
L 290.846382 109.994381 
L 290.846382 109.994381 
L 296.664808 109.994381 
L 296.664808 109.994381 
L 314.120088 108.048643 
L 325.756941 107.400064 
L 334.484581 106.427196 
L 334.484581 105.778617 
L 322.847728 105.778617 
L 319.938514 106.102906 
L 314.120088 106.102906 
L 311.210875 106.427196 
L 308.301661 106.427196 
L 302.483235 106.751485 
L 299.574021 106.751485 
L 296.664808 107.075775 
L 296.664808 107.075775 
L 293.755595 107.075775 
L 293.755595 107.075775 
L 293.755595 106.751485 
L 299.574021 106.751485 
L 292.165419 106.42191 
L 297.665839 105.195674 
L 295.074894 105.195674 
L 295.074894 105.808776 
L 292.483716 105.808808 
L 306.393479 105.484518 
L 309.303042 106.09762 
L 295.710848 105.484518 
L 315.121468 104.25825 
L 312.530174 106.09762 
L 314.120088 105.778617 
L 317.029301 105.778617 
L 322.847728 105.454327 
L 337.393794 105.454327 
L 337.393794 105.778617 
L 343.212221 105.778617 
L 343.212221 105.778617 
L 343.212221 106.102906 
L 349.030647 106.102906 
L 349.030647 106.102906 
L 349.030647 106.427196 
L 351.93986 106.427196 
L 351.93986 106.427196 
L 354.849074 106.102906 
L 351.93986 106.102906 
L 351.93986 106.102906 
L 356.168373 106.42191 
L 347.758768 106.421942 
L 350.349946 107.035076 
L 341.940342 105.808808 
L 344.53152 107.648178 
L 330.621407 106.42191 
L 330.621407 106.42191 
L 338.713093 107.648211 
L 333.212702 107.035076 
L 335.80388 106.42191 
L 335.80388 107.035076 
L 334.484581 106.751485 
L 331.575367 106.751485 
L 331.575367 107.075775 
L 322.847728 107.075775 
L 318.666635 106.746199 
L 335.167926 106.746199 
L 335.167926 106.746199 
L 324.167027 106.133065 
L 321.575849 105.808776 
L 327.07624 106.42191 
L 327.394275 106.097653 
L 332.894667 104.871384 
L 330.303488 104.547095 
L 338.713093 105.449041 
L 330.621407 104.835907 
L 336.121915 105.449041 
L 333.530621 105.124752 
L 334.484581 104.805748 
L 334.484581 104.805748 
L 337.393794 104.481458 
L 337.393794 104.805748 
L 340.303007 104.481458 
L 340.303007 104.481458 
L 343.212221 104.481458 
L 343.212221 104.481458 
L 346.121434 104.157169 
L 346.121434 103.832879 
L 349.030647 103.832879 
L 349.030647 103.832879 
L 351.93986 103.50859 
L 351.93986 103.1843 
L 351.93986 103.1843 
L 354.849074 102.860011 
L 351.93986 102.860011 
L 354.849074 102.535721 
L 354.849074 102.211432 
L 351.93986 102.211432 
L 351.93986 102.211432 
L 354.849074 101.887142 
L 351.93986 101.887142 
L 354.849074 101.887142 
L 357.758287 101.562853 
L 357.758287 101.562853 
L 359.71354 100.65562 
L 365.214048 100.65562 
L 365.214048 100.366775 
L 365.214048 102.854725 
L 367.805226 102.56588 
L 365.214048 103.792149 
L 356.804327 104.116438 
L 373.305734 103.827593 
L 362.304834 103.214492 
L 362.304834 103.214492 
L 351.303906 101.375089 
L 340.303095 100.761955 
L 356.804414 101.988223 
L 363.389215 101.621225 
L 354.609354 99.174492 
L 346.926966 99.419169 
L 338.147106 100.27552 
L 334.919974 99.655998 
L 337.114917 100.065737 
L 330.530058 100.065737 
L 318.457725 100.432736 
L 300.113826 101.852216 
L 279.26172 101.60754 
L 278.164306 102.341569 
L 277.066777 101.485218 
L 262.799558 101.974571 
L 255.11717 101.974571 
L 247.434752 102.708568 
L 243.044836 104.543625 
L 233.167476 105.644653 
L 229.875061 107.112679 
L 229.875061 107.235001 
L 234.387251 107.792325 
L 238.777166 107.914679 
L 233.289721 107.425326 
L 232.192278 107.547649 
L 224.509948 107.871938 
L 229.997422 107.50494 
L 234.387338 107.50494 
L 238.777253 105.54756 
L 236.582281 105.54756 
L 235.484868 107.260263 
L 238.393994 107.712712 
L 231.809106 107.835066 
L 234.004049 106.489362 
L 235.101491 106.122331 
L 230.711576 106.446621 
L 237.627532 107.339909 
L 240.58885 106.568975 
L 235.101404 107.303004 
L 228.516604 107.547649 
L 231.809106 107.058328 
L 230.711576 105.9573 
L 231.809018 107.914679 
L 241.686379 104.978594 
L 243.881352 103.755244 
L 246.076295 102.164864 
L 259.246071 100.329839 
L 259.246071 98.250138 
L 258.845036 97.671378 
L 261.754249 97.347088 
L 261.754249 96.37422 
L 261.754249 96.37422 
L 264.663462 96.04993 
L 264.663462 96.04993 
L 264.663462 95.401351 
L 267.572675 95.401351 
L 267.572675 95.077062 
L 270.481889 94.752772 
L 270.481889 94.104193 
L 273.391102 93.779903 
L 273.391102 93.455614 
L 273.391102 93.455614 
L 282.67638 92.465299 
L 279.209529 92.158456 
L 279.209529 91.834166 
L 282.118742 91.834166 
L 282.118742 91.185587 
L 282.118742 91.185587 
L 285.027955 90.861298 
L 285.027955 90.537008 
L 285.027955 90.537008 
L 287.937168 90.212718 
L 284.026662 89.163674 
L 289.527082 89.776808 
L 284.026662 89.776808 
L 289.527082 91.003077 
L 295.02759 90.389943 
L 278.526358 89.776808 
L 284.026662 90.389943 
L 278.526271 89.776808 
L 278.526271 89.776808 
L 295.02759 90.389943 
L 293.755595 90.212718 
L 293.755595 90.212718 
L 293.755595 89.888429 
L 299.574021 89.888429 
L 296.664808 89.888429 
L 296.664808 90.212718 
L 296.664808 90.212718 
L 299.574021 90.212718 
L 298.254722 91.003077 
L 287.253911 89.163674 
L 298.254722 91.003077 
L 303.75523 90.389943 
L 295.663602 89.163674 
L 306.664531 89.452519 
L 305.392448 88.91556 
L 305.392448 88.91556 
L 308.301661 88.591271 
L 308.301661 88.266981 
L 314.120088 87.618402 
L 314.120088 87.294113 
L 317.029301 87.294113 
L 317.029301 86.969823 
L 319.938514 86.645534 
L 325.756941 86.645534 
L 328.666154 86.321244 
L 331.575367 86.321244 
L 334.484581 85.996954 
L 334.484581 85.996954 
L 340.303007 85.996954 
L 340.303007 85.996954 
L 343.212221 85.672665 
L 346.121434 85.672665 
L 351.93986 85.024086 
L 357.758287 84.699796 
L 360.6675 84.375507 
L 363.576713 83.726928 
L 366.485927 83.402638 
L 372.304353 82.10548 
L 372.304353 81.132611 
L 369.39514 80.808322 
L 369.39514 80.484032 
L 366.485927 80.159743 
L 360.6675 79.835453 
L 357.758287 79.835453 
L 367.169185 79.794755 
L 372.669692 80.407857 
L 366.485927 80.159743 
L 363.576713 80.484032 
L 357.758287 80.484032 
L 354.849074 80.808322 
L 349.030647 81.132611 
L 334.484581 81.132611 
L 337.393794 81.132611 
L 340.303007 81.456901 
L 351.93986 81.456901 
L 357.758287 81.132611 
L 363.576713 81.132611 
L 369.39514 80.484032 
L 375.213567 80.484032 
L 375.213567 80.159743 
L 378.12278 80.159743 
L 375.213567 80.159743 
L 375.213567 80.484032 
L 372.304353 80.484032 
L 372.304353 80.808322 
L 354.849074 81.78119 
L 349.030647 81.78119 
L 343.212221 82.429769 
L 337.393794 82.754059 
L 334.484581 83.078349 
L 322.847728 83.078349 
L 317.029301 82.429769 
L 317.029301 82.429769 
L 314.120088 82.429769 
L 314.120088 82.429769 
L 317.029301 82.754059 
L 317.029301 82.754059 
L 317.029301 83.078349 
L 319.938514 83.078349 
L 322.847728 83.402638 
L 322.847728 83.402638 
L 325.756941 83.402638 
L 328.666154 83.078349 
L 337.393794 83.078349 
L 340.303007 82.754059 
L 343.212221 82.754059 
L 351.93986 81.78119 
L 351.93986 81.78119 
L 346.121434 81.78119 
L 346.121434 81.78119 
L 343.212221 82.10548 
L 327.394159 82.353594 
L 311.210875 81.456901 
L 305.392448 81.78119 
L 285.027955 81.78119 
L 282.118742 81.456901 
L 276.300315 81.456901 
L 273.391102 80.808322 
L 261.754249 80.159743 
L 258.845036 79.835453 
L 250.117396 79.835453 
L 250.117396 79.835453 
L 250.117396 80.808322 
L 253.026609 81.132611 
L 255.935822 81.78119 
L 255.935822 82.10548 
L 258.845036 82.10548 
L 261.754249 81.78119 
L 261.754249 80.484032 
L 253.026609 81.78119 
L 258.527117 77.489251 
L 253.026609 75.619689 
L 250.117396 74.322531 
L 247.208183 72.701083 
L 244.298969 71.728214 
L 244.298969 70.755346 
L 238.480543 69.782477 
L 238.480543 68.161029 
L 241.389756 67.83674 
L 241.389756 67.83674 
L 244.298969 67.83674 
L 250.117396 67.51245 
L 258.845036 67.51245 
L 261.754249 67.83674 
L 270.481889 67.83674 
L 273.391102 68.161029 
L 282.118742 68.161029 
L 282.118742 65.242424 
L 279.209529 65.242424 
L 279.209529 64.918134 
L 279.209529 65.566713 
L 276.300315 65.566713 
L 276.300315 65.566713 
L 276.300315 65.891003 
L 282.118742 65.891003 
L 282.118742 64.918134 
L 282.118742 64.918134 
L 287.937168 64.918134 
L 290.846382 64.593845 
L 290.846382 64.593845 
L 308.301661 64.593845 
L 311.210875 64.269555 
L 293.755595 64.593845 
L 293.755595 64.593845 
L 321.257813 67.046349 
L 329.66736 66.433247 
L 329.667447 66.757537 
L 321.575732 67.370639 
L 321.575732 64.918134 
L 338.077052 67.370639 
L 324.484946 67.046349 
L 346.486686 68.27265 
L 338.395087 66.722059 
L 327.394159 65.495823 
L 332.894579 66.108958 
L 321.893767 65.495823 
L 308.301661 63.945265 
L 338.395 64.5584 
L 338.395 65.784668 
L 327.394159 66.07348 
L 329.985453 65.784668 
L 335.485786 66.07348 
L 329.985366 64.522955 
L 336.757753 66.068227 
L 336.757753 63.615722 
L 325.756941 66.068227 
L 325.756941 65.566713 
L 322.847728 65.566713 
L 322.847728 65.566713 
L 322.847728 65.242424 
L 322.847728 65.242424 
L 319.938514 65.242424 
L 319.938514 65.242424 
L 319.938514 64.918134 
L 319.938514 64.918134 
L 317.029301 64.918134 
L 317.029301 64.918134 
L 314.120088 65.242424 
L 314.120088 65.242424 
L 311.210875 65.242424 
L 311.210875 65.242424 
L 305.392448 65.891003 
L 305.392448 65.891003 
L 302.483235 65.891003 
L 302.483235 66.539582 
L 302.483235 65.891003 
L 299.574021 65.891003 
L 299.574021 65.566713 
L 296.664808 65.242424 
L 296.664808 64.918134 
L 293.755595 64.918134 
L 290.846382 64.593845 
L 287.937168 64.593845 
L 285.027955 64.269555 
L 282.118742 64.269555 
L 276.300315 63.620976 
L 279.209529 63.296686 
L 279.209529 62.972397 
L 261.754249 61.02666 
L 261.754249 60.70237 
L 258.845036 60.37808 
L 258.845036 60.37808 
L 258.845036 60.053791 
L 258.845036 61.999528 
L 258.845036 61.999528 
L 264.663462 61.999528 
L 270.481889 61.675239 
L 273.391102 61.350949 
L 276.300315 61.350949 
L 254.934617 61.492761 
L 274.345062 62.394707 
L 279.209529 62.323818 
L 279.209529 62.323818 
L 287.937168 62.323818 
L 287.937168 62.648107 
L 288.891128 62.430152 
L 283.390621 62.430152 
L 291.800342 62.754442 
L 286.29995 61.528173 
L 278.208235 61.852463 
L 283.708656 62.46563 
L 278.208235 61.852463 
L 283.708656 61.239329 
L 282.118742 61.02666 
L 282.118742 61.02666 
L 282.118742 60.70237 
L 282.118742 60.70237 
L 279.209529 60.70237 
L 279.209529 60.053791 
L 267.572675 60.053791 
L 264.663462 60.37808 
L 258.845036 60.37808 
L 258.845036 60.37808 
L 258.845036 60.70237 
L 255.935822 60.70237 
L 255.935822 60.70237 
L 255.935822 61.02666 
L 253.026609 61.02666 
L 253.026609 61.02666 
L 253.026609 61.350949 
L 247.208183 61.999528 
L 247.208183 61.999528 
L 247.208183 62.323818 
L 247.208183 62.323818 
L 244.298969 62.323818 
L 244.298969 62.323818 
L 267.572675 61.999528 
L 244.298969 62.323818 
L 267.572675 61.675239 
L 276.300315 65.566713 
L 276.300315 65.566713 
L 276.300315 64.918134 
L 276.300315 64.918134 
L 296.664808 64.918134 
L 299.574021 64.593845 
L 305.392448 64.593845 
L 305.392448 64.269555 
L 308.301661 64.269555 
L 308.301661 63.945265 
L 311.210875 63.620976 
L 311.210875 62.972397 
L 311.210875 62.972397 
L 314.120088 62.648107 
L 314.120088 62.323818 
L 319.938514 61.675239 
L 325.756941 61.350949 
L 340.303007 59.729501 
L 343.212221 59.729501 
L 346.121434 59.405212 
L 351.93986 59.405212 
L 351.93986 59.405212 
L 354.849074 59.080922 
L 357.758287 59.080922 
L 360.6675 58.756633 
L 363.576713 58.756633 
L 363.576713 58.432343 
L 363.576713 58.432343 
L 366.485927 58.108054 
L 369.39514 58.108054 
L 372.304353 57.783764 
L 372.304353 57.459475 
L 378.12278 56.810895 
L 378.12278 56.162316 
L 381.031993 55.513737 
L 381.031993 55.189448 
L 383.941206 54.540869 
L 383.941206 54.216579 
L 389.759633 53.568 
L 398.487273 53.568 
L 398.487273 53.568 
" clip-path="url(#pdf31ac028b)" style="fill: none; stroke: #1f77b4; stroke-width: 1.5; stroke-linecap: square"/>
   </g>
   <g id="patch_3">
    <path d="M 57.6 307.584 
L 57.6 41.472 
" style="fill: none; stroke: #000000; stroke-width: 0.8; stroke-linejoin: miter; stroke-linecap: square"/>
   </g>
   <g id="patch_4">
    <path d="M 414.72 307.584 
L 414.72 41.472 
" style="fill: none; stroke: #000000; stroke-width: 0.8; stroke-linejoin: miter; stroke-linecap: square"/>
   </g>
   <g id="patch_5">
    <path d="M 57.6 307.584 
L 414.72 307.584 
" style="fill: none; stroke: #000000; stroke-width: 0.8; stroke-linejoin: miter; stroke-linecap: square"/>
   </g>
   <g id="patch_6">
    <path d="M 57.6 41.472 
L 414.72 41.472 
" style="fill: none; stroke: #000000; stroke-width: 0.8; stroke-linejoin: miter; stroke-linecap: square"/>
   </g>
  </g>
 </g>
 <defs>
  <clipPath id="pdf31ac028b">
   <rect x="57.6" y="41.472" width="357.12" height="266.112"/>
  </clipPath>
 </defs>
</svg>
