<?xml version="1.0" encoding="utf-8" standalone="no"?>
<!DOCTYPE svg PUBLIC "-//W3C//DTD SVG 1.1//EN"
  "http://www.w3.org/Graphics/SVG/1.1/DTD/svg11.dtd">
<svg xmlns:xlink="http://www.w3.org/1999/xlink" width="460.8pt" height="345.6pt" viewBox="0 0 460.8 345.6" xmlns="http://www.w3.org/2000/svg" version="1.1">
 <metadata>
  <rdf:RDF xmlns:dc="http://purl.org/dc/elements/1.1/" xmlns:cc="http://creativecommons.org/ns#" xmlns:rdf="http://www.w3.org/1999/02/22-rdf-syntax-ns#">
   <cc:Work>
    <dc:type rdf:resource="http://purl.org/dc/dcmitype/StillImage"/>
    <dc:date>2025-04-08T12:46:03.361134</dc:date>
    <dc:format>image/svg+xml</dc:format>
    <dc:creator>
     <cc:Agent>
      <dc:title>Matplotlib v3.10.1, https://matplotlib.org/</dc:title>
     </cc:Agent>
    </dc:creator>
   </cc:Work>
  </rdf:RDF>
 </metadata>
 <defs>
  <style type="text/css">*{stroke-linejoin: round; stroke-linecap: butt}</style>
 </defs>
 <g id="figure_1">
  <g id="patch_1">
   <path d="M 0 345.6 
L 460.8 345.6 
L 460.8 0 
L 0 0 
z
" style="fill: #ffffff"/>
  </g>
  <g id="axes_1">
   <g id="patch_2">
    <path d="M 57.6 307.584 
L 414.72 307.584 
L 414.72 41.472 
L 57.6 41.472 
z
" style="fill: #ffffff"/>
   </g>
   <g id="matplotlib.axis_1">
    <g id="xtick_1">
     <g id="line2d_1">
      <defs>
       <path id="mec4074a3b1" d="M 0 0 
L 0 3.5 
" style="stroke: #000000; stroke-width: 0.8"/>
      </defs>
      <g>
       <use xlink:href="#mec4074a3b1" x="73.827592" y="307.584" style="stroke: #000000; stroke-width: 0.8"/>
      </g>
     </g>
     <g id="text_1">
      <!-- 0 -->
      <g transform="translate(70.646342 322.182437) scale(0.1 -0.1)">
       <defs>
        <path id="DejaVuSans-30" d="M 2034 4250 
Q 1547 4250 1301 3770 
Q 1056 3291 1056 2328 
Q 1056 1369 1301 889 
Q 1547 409 2034 409 
Q 2525 409 2770 889 
Q 3016 1369 3016 2328 
Q 3016 3291 2770 3770 
Q 2525 4250 2034 4250 
z
M 2034 4750 
Q 2819 4750 3233 4129 
Q 3647 3509 3647 2328 
Q 3647 1150 3233 529 
Q 2819 -91 2034 -91 
Q 1250 -91 836 529 
Q 422 1150 422 2328 
Q 422 3509 836 4129 
Q 1250 4750 2034 4750 
z
" transform="scale(0.015625)"/>
       </defs>
       <use xlink:href="#DejaVuSans-30"/>
      </g>
     </g>
    </g>
    <g id="xtick_2">
     <g id="line2d_2">
      <g>
       <use xlink:href="#mec4074a3b1" x="148.241855" y="307.584" style="stroke: #000000; stroke-width: 0.8"/>
      </g>
     </g>
     <g id="text_2">
      <!-- 100 -->
      <g transform="translate(138.698105 322.182437) scale(0.1 -0.1)">
       <defs>
        <path id="DejaVuSans-31" d="M 794 531 
L 1825 531 
L 1825 4091 
L 703 3866 
L 703 4441 
L 1819 4666 
L 2450 4666 
L 2450 531 
L 3481 531 
L 3481 0 
L 794 0 
L 794 531 
z
" transform="scale(0.015625)"/>
       </defs>
       <use xlink:href="#DejaVuSans-31"/>
       <use xlink:href="#DejaVuSans-30" transform="translate(63.623047 0)"/>
       <use xlink:href="#DejaVuSans-30" transform="translate(127.246094 0)"/>
      </g>
     </g>
    </g>
    <g id="xtick_3">
     <g id="line2d_3">
      <g>
       <use xlink:href="#mec4074a3b1" x="222.656118" y="307.584" style="stroke: #000000; stroke-width: 0.8"/>
      </g>
     </g>
     <g id="text_3">
      <!-- 200 -->
      <g transform="translate(213.112368 322.182437) scale(0.1 -0.1)">
       <defs>
        <path id="DejaVuSans-32" d="M 1228 531 
L 3431 531 
L 3431 0 
L 469 0 
L 469 531 
Q 828 903 1448 1529 
Q 2069 2156 2228 2338 
Q 2531 2678 2651 2914 
Q 2772 3150 2772 3378 
Q 2772 3750 2511 3984 
Q 2250 4219 1831 4219 
Q 1534 4219 1204 4116 
Q 875 4013 500 3803 
L 500 4441 
Q 881 4594 1212 4672 
Q 1544 4750 1819 4750 
Q 2544 4750 2975 4387 
Q 3406 4025 3406 3419 
Q 3406 3131 3298 2873 
Q 3191 2616 2906 2266 
Q 2828 2175 2409 1742 
Q 1991 1309 1228 531 
z
" transform="scale(0.015625)"/>
       </defs>
       <use xlink:href="#DejaVuSans-32"/>
       <use xlink:href="#DejaVuSans-30" transform="translate(63.623047 0)"/>
       <use xlink:href="#DejaVuSans-30" transform="translate(127.246094 0)"/>
      </g>
     </g>
    </g>
    <g id="xtick_4">
     <g id="line2d_4">
      <g>
       <use xlink:href="#mec4074a3b1" x="297.07038" y="307.584" style="stroke: #000000; stroke-width: 0.8"/>
      </g>
     </g>
     <g id="text_4">
      <!-- 300 -->
      <g transform="translate(287.52663 322.182437) scale(0.1 -0.1)">
       <defs>
        <path id="DejaVuSans-33" d="M 2597 2516 
Q 3050 2419 3304 2112 
Q 3559 1806 3559 1356 
Q 3559 666 3084 287 
Q 2609 -91 1734 -91 
Q 1441 -91 1130 -33 
Q 819 25 488 141 
L 488 750 
Q 750 597 1062 519 
Q 1375 441 1716 441 
Q 2309 441 2620 675 
Q 2931 909 2931 1356 
Q 2931 1769 2642 2001 
Q 2353 2234 1838 2234 
L 1294 2234 
L 1294 2753 
L 1863 2753 
Q 2328 2753 2575 2939 
Q 2822 3125 2822 3475 
Q 2822 3834 2567 4026 
Q 2313 4219 1838 4219 
Q 1578 4219 1281 4162 
Q 984 4106 628 3988 
L 628 4550 
Q 988 4650 1302 4700 
Q 1616 4750 1894 4750 
Q 2613 4750 3031 4423 
Q 3450 4097 3450 3541 
Q 3450 3153 3228 2886 
Q 3006 2619 2597 2516 
z
" transform="scale(0.015625)"/>
       </defs>
       <use xlink:href="#DejaVuSans-33"/>
       <use xlink:href="#DejaVuSans-30" transform="translate(63.623047 0)"/>
       <use xlink:href="#DejaVuSans-30" transform="translate(127.246094 0)"/>
      </g>
     </g>
    </g>
    <g id="xtick_5">
     <g id="line2d_5">
      <g>
       <use xlink:href="#mec4074a3b1" x="371.484643" y="307.584" style="stroke: #000000; stroke-width: 0.8"/>
      </g>
     </g>
     <g id="text_5">
      <!-- 400 -->
      <g transform="translate(361.940893 322.182437) scale(0.1 -0.1)">
       <defs>
        <path id="DejaVuSans-34" d="M 2419 4116 
L 825 1625 
L 2419 1625 
L 2419 4116 
z
M 2253 4666 
L 3047 4666 
L 3047 1625 
L 3713 1625 
L 3713 1100 
L 3047 1100 
L 3047 0 
L 2419 0 
L 2419 1100 
L 313 1100 
L 313 1709 
L 2253 4666 
z
" transform="scale(0.015625)"/>
       </defs>
       <use xlink:href="#DejaVuSans-34"/>
       <use xlink:href="#DejaVuSans-30" transform="translate(63.623047 0)"/>
       <use xlink:href="#DejaVuSans-30" transform="translate(127.246094 0)"/>
      </g>
     </g>
    </g>
    <g id="text_6">
     <!-- time (s) -->
     <g transform="translate(216.768594 335.860562) scale(0.1 -0.1)">
      <defs>
       <path id="DejaVuSans-74" d="M 1172 4494 
L 1172 3500 
L 2356 3500 
L 2356 3053 
L 1172 3053 
L 1172 1153 
Q 1172 725 1289 603 
Q 1406 481 1766 481 
L 2356 481 
L 2356 0 
L 1766 0 
Q 1100 0 847 248 
Q 594 497 594 1153 
L 594 3053 
L 172 3053 
L 172 3500 
L 594 3500 
L 594 4494 
L 1172 4494 
z
" transform="scale(0.015625)"/>
       <path id="DejaVuSans-69" d="M 603 3500 
L 1178 3500 
L 1178 0 
L 603 0 
L 603 3500 
z
M 603 4863 
L 1178 4863 
L 1178 4134 
L 603 4134 
L 603 4863 
z
" transform="scale(0.015625)"/>
       <path id="DejaVuSans-6d" d="M 3328 2828 
Q 3544 3216 3844 3400 
Q 4144 3584 4550 3584 
Q 5097 3584 5394 3201 
Q 5691 2819 5691 2113 
L 5691 0 
L 5113 0 
L 5113 2094 
Q 5113 2597 4934 2840 
Q 4756 3084 4391 3084 
Q 3944 3084 3684 2787 
Q 3425 2491 3425 1978 
L 3425 0 
L 2847 0 
L 2847 2094 
Q 2847 2600 2669 2842 
Q 2491 3084 2119 3084 
Q 1678 3084 1418 2786 
Q 1159 2488 1159 1978 
L 1159 0 
L 581 0 
L 581 3500 
L 1159 3500 
L 1159 2956 
Q 1356 3278 1631 3431 
Q 1906 3584 2284 3584 
Q 2666 3584 2933 3390 
Q 3200 3197 3328 2828 
z
" transform="scale(0.015625)"/>
       <path id="DejaVuSans-65" d="M 3597 1894 
L 3597 1613 
L 953 1613 
Q 991 1019 1311 708 
Q 1631 397 2203 397 
Q 2534 397 2845 478 
Q 3156 559 3463 722 
L 3463 178 
Q 3153 47 2828 -22 
Q 2503 -91 2169 -91 
Q 1331 -91 842 396 
Q 353 884 353 1716 
Q 353 2575 817 3079 
Q 1281 3584 2069 3584 
Q 2775 3584 3186 3129 
Q 3597 2675 3597 1894 
z
M 3022 2063 
Q 3016 2534 2758 2815 
Q 2500 3097 2075 3097 
Q 1594 3097 1305 2825 
Q 1016 2553 972 2059 
L 3022 2063 
z
" transform="scale(0.015625)"/>
       <path id="DejaVuSans-20" transform="scale(0.015625)"/>
       <path id="DejaVuSans-28" d="M 1984 4856 
Q 1566 4138 1362 3434 
Q 1159 2731 1159 2009 
Q 1159 1288 1364 580 
Q 1569 -128 1984 -844 
L 1484 -844 
Q 1016 -109 783 600 
Q 550 1309 550 2009 
Q 550 2706 781 3412 
Q 1013 4119 1484 4856 
L 1984 4856 
z
" transform="scale(0.015625)"/>
       <path id="DejaVuSans-73" d="M 2834 3397 
L 2834 2853 
Q 2591 2978 2328 3040 
Q 2066 3103 1784 3103 
Q 1356 3103 1142 2972 
Q 928 2841 928 2578 
Q 928 2378 1081 2264 
Q 1234 2150 1697 2047 
L 1894 2003 
Q 2506 1872 2764 1633 
Q 3022 1394 3022 966 
Q 3022 478 2636 193 
Q 2250 -91 1575 -91 
Q 1294 -91 989 -36 
Q 684 19 347 128 
L 347 722 
Q 666 556 975 473 
Q 1284 391 1588 391 
Q 1994 391 2212 530 
Q 2431 669 2431 922 
Q 2431 1156 2273 1281 
Q 2116 1406 1581 1522 
L 1381 1569 
Q 847 1681 609 1914 
Q 372 2147 372 2553 
Q 372 3047 722 3315 
Q 1072 3584 1716 3584 
Q 2034 3584 2315 3537 
Q 2597 3491 2834 3397 
z
" transform="scale(0.015625)"/>
       <path id="DejaVuSans-29" d="M 513 4856 
L 1013 4856 
Q 1481 4119 1714 3412 
Q 1947 2706 1947 2009 
Q 1947 1309 1714 600 
Q 1481 -109 1013 -844 
L 513 -844 
Q 928 -128 1133 580 
Q 1338 1288 1338 2009 
Q 1338 2731 1133 3434 
Q 928 4138 513 4856 
z
" transform="scale(0.015625)"/>
      </defs>
      <use xlink:href="#DejaVuSans-74"/>
      <use xlink:href="#DejaVuSans-69" transform="translate(39.208984 0)"/>
      <use xlink:href="#DejaVuSans-6d" transform="translate(66.992188 0)"/>
      <use xlink:href="#DejaVuSans-65" transform="translate(164.404297 0)"/>
      <use xlink:href="#DejaVuSans-20" transform="translate(225.927734 0)"/>
      <use xlink:href="#DejaVuSans-28" transform="translate(257.714844 0)"/>
      <use xlink:href="#DejaVuSans-73" transform="translate(296.728516 0)"/>
      <use xlink:href="#DejaVuSans-29" transform="translate(348.828125 0)"/>
     </g>
    </g>
   </g>
   <g id="matplotlib.axis_2">
    <g id="ytick_1">
     <g id="line2d_6">
      <defs>
       <path id="maf84abaaed" d="M 0 0 
L -3.5 0 
" style="stroke: #000000; stroke-width: 0.8"/>
      </defs>
      <g>
       <use xlink:href="#maf84abaaed" x="57.6" y="295.540982" style="stroke: #000000; stroke-width: 0.8"/>
      </g>
     </g>
     <g id="text_7">
      <!-- 0 -->
      <g transform="translate(44.2375 299.340201) scale(0.1 -0.1)">
       <use xlink:href="#DejaVuSans-30"/>
      </g>
     </g>
    </g>
    <g id="ytick_2">
     <g id="line2d_7">
      <g>
       <use xlink:href="#maf84abaaed" x="57.6" y="251.443763" style="stroke: #000000; stroke-width: 0.8"/>
      </g>
     </g>
     <g id="text_8">
      <!-- 2000 -->
      <g transform="translate(25.15 255.242982) scale(0.1 -0.1)">
       <use xlink:href="#DejaVuSans-32"/>
       <use xlink:href="#DejaVuSans-30" transform="translate(63.623047 0)"/>
       <use xlink:href="#DejaVuSans-30" transform="translate(127.246094 0)"/>
       <use xlink:href="#DejaVuSans-30" transform="translate(190.869141 0)"/>
      </g>
     </g>
    </g>
    <g id="ytick_3">
     <g id="line2d_8">
      <g>
       <use xlink:href="#maf84abaaed" x="57.6" y="207.346544" style="stroke: #000000; stroke-width: 0.8"/>
      </g>
     </g>
     <g id="text_9">
      <!-- 4000 -->
      <g transform="translate(25.15 211.145763) scale(0.1 -0.1)">
       <use xlink:href="#DejaVuSans-34"/>
       <use xlink:href="#DejaVuSans-30" transform="translate(63.623047 0)"/>
       <use xlink:href="#DejaVuSans-30" transform="translate(127.246094 0)"/>
       <use xlink:href="#DejaVuSans-30" transform="translate(190.869141 0)"/>
      </g>
     </g>
    </g>
    <g id="ytick_4">
     <g id="line2d_9">
      <g>
       <use xlink:href="#maf84abaaed" x="57.6" y="163.249326" style="stroke: #000000; stroke-width: 0.8"/>
      </g>
     </g>
     <g id="text_10">
      <!-- 6000 -->
      <g transform="translate(25.15 167.048544) scale(0.1 -0.1)">
       <defs>
        <path id="DejaVuSans-36" d="M 2113 2584 
Q 1688 2584 1439 2293 
Q 1191 2003 1191 1497 
Q 1191 994 1439 701 
Q 1688 409 2113 409 
Q 2538 409 2786 701 
Q 3034 994 3034 1497 
Q 3034 2003 2786 2293 
Q 2538 2584 2113 2584 
z
M 3366 4563 
L 3366 3988 
Q 3128 4100 2886 4159 
Q 2644 4219 2406 4219 
Q 1781 4219 1451 3797 
Q 1122 3375 1075 2522 
Q 1259 2794 1537 2939 
Q 1816 3084 2150 3084 
Q 2853 3084 3261 2657 
Q 3669 2231 3669 1497 
Q 3669 778 3244 343 
Q 2819 -91 2113 -91 
Q 1303 -91 875 529 
Q 447 1150 447 2328 
Q 447 3434 972 4092 
Q 1497 4750 2381 4750 
Q 2619 4750 2861 4703 
Q 3103 4656 3366 4563 
z
" transform="scale(0.015625)"/>
       </defs>
       <use xlink:href="#DejaVuSans-36"/>
       <use xlink:href="#DejaVuSans-30" transform="translate(63.623047 0)"/>
       <use xlink:href="#DejaVuSans-30" transform="translate(127.246094 0)"/>
       <use xlink:href="#DejaVuSans-30" transform="translate(190.869141 0)"/>
      </g>
     </g>
    </g>
    <g id="ytick_5">
     <g id="line2d_10">
      <g>
       <use xlink:href="#maf84abaaed" x="57.6" y="119.152107" style="stroke: #000000; stroke-width: 0.8"/>
      </g>
     </g>
     <g id="text_11">
      <!-- 8000 -->
      <g transform="translate(25.15 122.951326) scale(0.1 -0.1)">
       <defs>
        <path id="DejaVuSans-38" d="M 2034 2216 
Q 1584 2216 1326 1975 
Q 1069 1734 1069 1313 
Q 1069 891 1326 650 
Q 1584 409 2034 409 
Q 2484 409 2743 651 
Q 3003 894 3003 1313 
Q 3003 1734 2745 1975 
Q 2488 2216 2034 2216 
z
M 1403 2484 
Q 997 2584 770 2862 
Q 544 3141 544 3541 
Q 544 4100 942 4425 
Q 1341 4750 2034 4750 
Q 2731 4750 3128 4425 
Q 3525 4100 3525 3541 
Q 3525 3141 3298 2862 
Q 3072 2584 2669 2484 
Q 3125 2378 3379 2068 
Q 3634 1759 3634 1313 
Q 3634 634 3220 271 
Q 2806 -91 2034 -91 
Q 1263 -91 848 271 
Q 434 634 434 1313 
Q 434 1759 690 2068 
Q 947 2378 1403 2484 
z
M 1172 3481 
Q 1172 3119 1398 2916 
Q 1625 2713 2034 2713 
Q 2441 2713 2670 2916 
Q 2900 3119 2900 3481 
Q 2900 3844 2670 4047 
Q 2441 4250 2034 4250 
Q 1625 4250 1398 4047 
Q 1172 3844 1172 3481 
z
" transform="scale(0.015625)"/>
       </defs>
       <use xlink:href="#DejaVuSans-38"/>
       <use xlink:href="#DejaVuSans-30" transform="translate(63.623047 0)"/>
       <use xlink:href="#DejaVuSans-30" transform="translate(127.246094 0)"/>
       <use xlink:href="#DejaVuSans-30" transform="translate(190.869141 0)"/>
      </g>
     </g>
    </g>
    <g id="ytick_6">
     <g id="line2d_11">
      <g>
       <use xlink:href="#maf84abaaed" x="57.6" y="75.054888" style="stroke: #000000; stroke-width: 0.8"/>
      </g>
     </g>
     <g id="text_12">
      <!-- 10000 -->
      <g transform="translate(18.7875 78.854107) scale(0.1 -0.1)">
       <use xlink:href="#DejaVuSans-31"/>
       <use xlink:href="#DejaVuSans-30" transform="translate(63.623047 0)"/>
       <use xlink:href="#DejaVuSans-30" transform="translate(127.246094 0)"/>
       <use xlink:href="#DejaVuSans-30" transform="translate(190.869141 0)"/>
       <use xlink:href="#DejaVuSans-30" transform="translate(254.492188 0)"/>
      </g>
     </g>
    </g>
    <g id="text_13">
     <!-- speed (m/s) -->
     <g transform="translate(12.707812 204.28425) rotate(-90) scale(0.1 -0.1)">
      <defs>
       <path id="DejaVuSans-70" d="M 1159 525 
L 1159 -1331 
L 581 -1331 
L 581 3500 
L 1159 3500 
L 1159 2969 
Q 1341 3281 1617 3432 
Q 1894 3584 2278 3584 
Q 2916 3584 3314 3078 
Q 3713 2572 3713 1747 
Q 3713 922 3314 415 
Q 2916 -91 2278 -91 
Q 1894 -91 1617 61 
Q 1341 213 1159 525 
z
M 3116 1747 
Q 3116 2381 2855 2742 
Q 2594 3103 2138 3103 
Q 1681 3103 1420 2742 
Q 1159 2381 1159 1747 
Q 1159 1113 1420 752 
Q 1681 391 2138 391 
Q 2594 391 2855 752 
Q 3116 1113 3116 1747 
z
" transform="scale(0.015625)"/>
       <path id="DejaVuSans-64" d="M 2906 2969 
L 2906 4863 
L 3481 4863 
L 3481 0 
L 2906 0 
L 2906 525 
Q 2725 213 2448 61 
Q 2172 -91 1784 -91 
Q 1150 -91 751 415 
Q 353 922 353 1747 
Q 353 2572 751 3078 
Q 1150 3584 1784 3584 
Q 2172 3584 2448 3432 
Q 2725 3281 2906 2969 
z
M 947 1747 
Q 947 1113 1208 752 
Q 1469 391 1925 391 
Q 2381 391 2643 752 
Q 2906 1113 2906 1747 
Q 2906 2381 2643 2742 
Q 2381 3103 1925 3103 
Q 1469 3103 1208 2742 
Q 947 2381 947 1747 
z
" transform="scale(0.015625)"/>
       <path id="DejaVuSans-2f" d="M 1625 4666 
L 2156 4666 
L 531 -594 
L 0 -594 
L 1625 4666 
z
" transform="scale(0.015625)"/>
      </defs>
      <use xlink:href="#DejaVuSans-73"/>
      <use xlink:href="#DejaVuSans-70" transform="translate(52.099609 0)"/>
      <use xlink:href="#DejaVuSans-65" transform="translate(115.576172 0)"/>
      <use xlink:href="#DejaVuSans-65" transform="translate(177.099609 0)"/>
      <use xlink:href="#DejaVuSans-64" transform="translate(238.623047 0)"/>
      <use xlink:href="#DejaVuSans-20" transform="translate(302.099609 0)"/>
      <use xlink:href="#DejaVuSans-28" transform="translate(333.886719 0)"/>
      <use xlink:href="#DejaVuSans-6d" transform="translate(372.900391 0)"/>
      <use xlink:href="#DejaVuSans-2f" transform="translate(470.3125 0)"/>
      <use xlink:href="#DejaVuSans-73" transform="translate(504.003906 0)"/>
      <use xlink:href="#DejaVuSans-29" transform="translate(556.103516 0)"/>
     </g>
    </g>
   </g>
   <g id="line2d_12">
    <path d="M 73.832727 295.488 
L 74.323861 292.722839 
L 74.331303 292.731248 
L 74.346186 292.75492 
L 74.383393 292.601703 
L 74.532221 292.111717 
L 74.643843 291.404938 
L 74.710816 291.475841 
L 74.78523 291.357786 
L 74.748023 291.53273 
L 74.822481 291.458122 
L 74.867086 291.488381 
L 74.904294 291.387894 
L 74.963826 290.574693 
L 75.008473 290.021211 
L 75.082887 290.24922 
L 75.350778 291.496197 
L 75.373103 291.439943 
L 75.387985 291.423754 
L 75.454958 291.519692 
L 75.51449 291.557911 
L 75.536814 291.470911 
L 75.678201 291.275997 
L 75.685642 291.285825 
L 75.931209 292.254793 
L 76.042831 292.811248 
L 76.080038 292.666154 
L 76.117245 292.548473 
L 76.288399 291.737174 
L 76.489316 290.61764 
L 76.511643 290.858668 
L 76.593496 291.379839 
L 76.630704 291.042668 
L 76.697676 290.687465 
L 76.749766 290.931192 
L 76.816739 290.921707 
L 76.824181 290.896876 
L 76.958126 290.745153 
L 77.121838 290.786932 
L 77.278108 290.853469 
L 77.29299 290.820136 
L 77.322756 290.885985 
L 77.374846 290.897514 
L 77.382288 290.912223 
L 77.441819 290.786872 
L 77.516233 290.57534 
L 77.590648 290.659381 
L 77.769242 290.651266 
L 78.052016 290.654502 
L 78.535709 290.598702 
L 78.69198 290.462503 
L 78.952429 290.337998 
L 78.967311 290.373095 
L 79.06405 290.395648 
L 79.019401 290.355324 
L 79.086374 290.382879 
L 79.11614 290.383127 
L 79.153347 290.309894 
L 79.287293 290.173622 
L 79.309617 290.244703 
L 79.42868 290.219783 
L 79.852841 290.281131 
L 80.068642 290.257387 
L 80.649074 290.201627 
L 80.723488 290.133064 
L 80.768137 290.199591 
L 80.991379 290.197746 
L 81.140208 290.203535 
L 81.437865 290.210997 
L 81.497396 290.158509 
L 81.542045 290.235108 
L 81.571811 290.206107 
L 81.698315 290.397728 
L 81.869468 290.386811 
L 82.070386 290.176686 
L 82.219215 290.213945 
L 83.357753 290.484061 
L 83.417284 290.338202 
L 83.566113 290.250537 
L 83.91586 290.263774 
L 84.057247 290.338651 
L 84.07213 290.325928 
L 84.354904 290.167567 
L 84.511174 290.18166 
L 84.518615 290.196123 
L 84.808831 291.0361 
L 84.831155 291.135504 
L 84.875804 290.852916 
L 84.90557 290.741989 
L 84.994867 290.772208 
L 85.471118 290.392296 
L 88.581634 289.93518 
L 89.318335 290.045723 
L 89.415074 290.113417 
L 89.437398 290.079453 
L 89.623434 289.908265 
L 89.682965 289.87642 
L 89.720172 289.946433 
L 89.816911 290.043021 
L 89.846677 289.993055 
L 89.913649 289.891812 
L 89.958298 290.007424 
L 90.084802 290.278803 
L 90.122009 290.184042 
L 90.293162 289.900338 
L 90.300604 289.903002 
L 90.404784 289.984298 
L 90.434549 289.8969 
L 90.494081 289.751695 
L 90.568495 289.807722 
L 90.754531 290.042873 
L 90.769413 290.080032 
L 90.821503 289.90346 
L 91.052188 289.688002 
L 91.081953 289.732661 
L 91.320078 289.996309 
L 91.349845 289.948847 
L 91.416818 289.926116 
L 91.439142 289.985138 
L 91.468908 290.073263 
L 91.520998 289.868912 
L 91.53588 289.843759 
L 91.573088 289.915231 
L 91.625177 289.890825 
L 91.811213 289.814764 
L 91.855862 289.420409 
L 91.937717 288.188806 
L 92.00469 288.706911 
L 92.05678 288.690433 
L 92.205609 289.38547 
L 92.272582 289.6822 
L 92.376762 289.619219 
L 92.428852 289.559752 
L 92.4735 289.656443 
L 92.495824 289.704641 
L 92.52559 289.56606 
L 92.607446 289.320529 
L 92.666977 289.341632 
L 93.04649 289.476515 
L 93.083697 289.489151 
L 93.135787 289.42118 
L 93.403678 289.111805 
L 93.418561 289.12647 
L 93.478093 289.307835 
L 93.545065 289.171154 
L 93.77575 288.752788 
L 93.82784 288.851152 
L 93.946902 288.878191 
L 93.961785 288.863237 
L 94.400829 288.382364 
L 94.624072 288.340983 
L 95.040792 288.264742 
L 95.167296 288.224932 
L 95.368215 288.078999 
L 95.487278 287.947844 
L 95.703079 287.73673 
L 96.142123 287.510048 
L 96.223979 287.599212 
L 96.447222 287.722153 
L 96.566285 287.599719 
L 97.11695 287.097897 
L 97.42949 286.72826 
L 97.58576 286.595387 
L 97.600643 286.609152 
L 97.712264 286.568324 
L 97.801561 286.598278 
L 97.816444 286.626666 
L 97.920624 286.644991 
L 97.935507 286.631028 
L 98.091777 286.608653 
L 99.907485 285.462507 
L 100.138169 285.259388 
L 100.644186 284.905642 
L 100.748366 284.795354 
L 101.04603 284.333469 
L 101.112996 284.402221 
L 101.165086 284.369169 
L 101.276707 284.48327 
L 101.336239 284.422525 
L 101.611572 284.120839 
L 101.790166 283.987879 
L 101.931553 283.790219 
L 102.065499 283.677829 
L 102.080381 283.691125 
L 102.258976 283.987672 
L 102.2813 283.932721 
L 102.430128 283.622212 
L 102.452453 283.673402 
L 102.616164 283.885083 
L 102.623606 283.880867 
L 102.69802 283.838344 
L 102.727785 283.903547 
L 102.869173 284.041304 
L 102.876614 284.037964 
L 103.032884 283.383902 
L 103.256127 283.057466 
L 103.397514 283.005166 
L 103.524018 282.794674 
L 103.680288 282.486619 
L 103.724937 282.537914 
L 103.910972 282.904834 
L 104.111891 283.192093 
L 104.119332 283.187324 
L 104.178864 282.946904 
L 104.446755 281.946357 
L 104.826268 281.535085 
L 104.848592 281.580146 
L 104.997421 281.909551 
L 105.019745 281.889494 
L 105.220663 281.128043 
L 105.295078 280.866261 
L 105.354609 281.007041 
L 105.369492 281.014515 
L 105.41414 280.92578 
L 105.458789 280.873339 
L 105.503437 280.985709 
L 105.644825 281.091659 
L 106.128517 280.675649 
L 107.326587 279.418683 
L 107.408443 279.343232 
L 107.639127 279.196618 
L 107.646568 279.203586 
L 107.802838 279.262315 
L 107.817721 279.242704 
L 108.182351 278.507122 
L 108.249324 278.62306 
L 108.383269 278.737848 
L 108.390711 278.730867 
L 108.874404 278.034082 
L 108.926494 278.010982 
L 108.948818 277.959156 
L 109.119971 277.800876 
L 109.127412 277.80782 
L 109.261358 277.880732 
L 109.298565 277.842549 
L 109.417628 277.723027 
L 109.633429 277.34517 
L 109.640871 277.349186 
L 109.678078 277.328344 
L 109.700402 277.268116 
L 109.893879 276.984303 
L 109.908762 277.011187 
L 110.035266 277.243443 
L 110.079915 277.167504 
L 110.102239 277.175715 
L 110.139446 277.2569 
L 110.16177 277.26748 
L 110.206419 277.16929 
L 110.377572 276.885592 
L 110.399896 276.899647 
L 110.697553 276.869904 
L 111.024976 276.042961 
L 111.039859 276.088262 
L 111.211011 276.504446 
L 111.233336 276.452468 
L 111.486344 275.73399 
L 111.72447 275.399393 
L 111.754236 275.432113 
L 111.843533 275.373092 
L 111.888181 275.392729 
L 111.917991 275.460111 
L 112.074217 275.635887 
L 112.148631 275.51887 
L 112.498378 275.268098 
L 112.773711 275.050605 
L 112.796035 275.071915 
L 112.848125 275.134612 
L 112.900215 275.023573 
L 113.227638 274.634727 
L 113.465764 273.992054 
L 113.555061 273.98689 
L 113.569944 274.018808 
L 113.793186 274.576398 
L 113.808069 274.547015 
L 114.053636 273.888165 
L 114.150375 273.469188 
L 114.276879 272.707515 
L 114.366176 272.84104 
L 114.500122 272.823182 
L 114.515005 272.888743 
L 114.574536 273.001678 
L 114.619216 272.884497 
L 114.75313 272.473043 
L 114.80522 272.518174 
L 115.080553 272.003615 
L 115.154967 271.895119 
L 115.32612 271.692009 
L 115.341003 271.690882 
L 115.370769 271.781736 
L 115.393093 271.799332 
L 115.452624 271.700548 
L 115.608894 271.659975 
L 115.780047 271.382547 
L 115.854461 271.220854 
L 115.913993 271.296522 
L 116.047939 271.22646 
L 116.196767 271.049182 
L 116.21165 271.064454 
L 116.248857 271.093043 
L 116.293506 270.992545 
L 116.4721 270.886128 
L 116.501866 270.914936 
L 116.546514 270.830723 
L 116.57628 270.764713 
L 116.635811 270.887759 
L 116.650694 270.86846 
L 116.873937 270.602919 
L 117.112062 270.157187 
L 117.424602 269.871411 
L 117.543665 269.652393 
L 117.766908 269.280729 
L 117.804115 269.310997 
L 117.967827 269.324164 
L 118.109215 268.967289 
L 118.153862 269.158354 
L 118.287808 269.252322 
L 118.325015 269.219086 
L 118.33993 269.170629 
L 118.406871 269.196519 
L 118.458961 269.147834 
L 118.518492 269.0544 
L 118.920329 268.249411 
L 119.009626 268.472122 
L 119.098923 268.689919 
L 119.13613 268.549458 
L 119.314725 268.152258 
L 119.322166 268.155427 
L 119.418905 268.075927 
L 120.170489 267.382928 
L 120.185372 267.432634 
L 120.222579 267.5024 
L 120.267227 267.34164 
L 120.401173 267.197462 
L 120.416056 267.231632 
L 120.453263 267.380177 
L 120.520236 267.226693 
L 120.773244 266.687606 
L 120.825334 266.432896 
L 120.899748 266.560044 
L 121.100667 266.308983 
L 121.108108 266.316068 
L 121.152757 266.391229 
L 121.197406 266.25352 
L 121.361117 265.973783 
L 121.569477 265.562002 
L 121.695981 265.663832 
L 121.867134 266.054843 
L 121.904341 265.954953 
L 122.402917 265.492687 
L 122.410358 265.504379 
L 122.440124 265.549082 
L 122.492214 265.422602 
L 123.013114 264.436713 
L 123.295888 263.869607 
L 123.303329 263.876786 
L 123.414951 263.961671 
L 123.437275 263.891711 
L 123.72749 263.227109 
L 124.054913 262.993099 
L 124.129327 262.935036 
L 124.166535 263.009774 
L 124.240949 263.099015 
L 124.270715 262.971182 
L 124.330246 263.055419 
L 124.40466 262.891805 
L 124.531164 262.775176 
L 124.657669 262.572215 
L 124.687434 262.610953 
L 124.702317 262.631693 
L 124.746966 262.494119 
L 125.13392 261.812569 
L 125.163686 261.956235 
L 125.18601 262.051945 
L 125.2381 261.747636 
L 125.29019 261.713353 
L 125.327397 261.797012 
L 125.334839 261.80637 
L 125.364604 261.667062 
L 125.401811 261.514314 
L 125.476226 261.62196 
L 125.766441 261.239039 
L 125.900387 261.167005 
L 126.056657 261.051109 
L 126.250134 260.894678 
L 126.413845 260.902003 
L 126.510584 260.88104 
L 126.518025 260.871834 
L 126.882655 260.475216 
L 127.381231 259.932411 
L 127.396114 259.949603 
L 127.597032 260.036921 
L 128.028635 259.790504 
L 128.445355 258.530707 
L 128.497445 258.344287 
L 128.571859 258.467417 
L 128.988579 258.155179 
L 129.137407 257.984825 
L 129.25647 257.812492 
L 129.382974 257.685607 
L 129.420182 257.711739 
L 130.03782 256.828524 
L 130.097351 256.650337 
L 130.179207 256.698751 
L 130.328036 256.703761 
L 130.387567 256.721893 
L 130.409891 256.776336 
L 130.595927 256.94449 
L 130.76708 257.019381 
L 130.781963 257.001999 
L 131.258214 256.062102 
L 131.578195 255.394495 
L 131.600519 255.447648 
L 131.682375 255.610324 
L 131.734465 255.566822 
L 131.935384 255.355536 
L 132.054446 255.370162 
L 132.404193 255.434544 
L 132.553022 255.030852 
L 133.259957 253.325616 
L 133.304606 253.363223 
L 133.43111 253.473021 
L 133.371579 253.315038 
L 133.468317 253.431798 
L 133.810623 253.205947 
L 133.937127 252.894811 
L 133.981776 252.934991 
L 134.078514 252.866631 
L 134.68127 251.867264 
L 134.703594 251.90052 
L 134.792891 252.139733 
L 134.852423 251.961882 
L 134.986368 252.030929 
L 135.008693 251.988688 
L 135.432854 251.121013 
L 135.46262 251.275758 
L 135.484944 251.475932 
L 135.529593 251.240113 
L 135.581682 251.374638 
L 135.812367 250.750248 
L 135.871898 250.596398 
L 135.894222 250.55408 
L 135.938871 250.724615 
L 136.124907 251.203109 
L 136.154672 251.124389 
L 136.243969 250.965361 
L 136.281177 251.046646 
L 136.563951 250.649828 
L 136.749986 250.546808 
L 136.869049 250.624262 
L 136.883932 250.62354 
L 136.921139 250.526618 
L 137.241121 250.282412 
L 137.270886 250.320977 
L 137.293211 250.32691 
L 137.322976 250.237124 
L 137.50157 249.883165 
L 137.806669 249.365856 
L 137.851318 249.195014 
L 137.91829 249.328786 
L 137.97038 249.427762 
L 138.015029 249.292235 
L 138.201065 248.938451 
L 138.357334 248.815608 
L 138.617784 248.593057 
L 138.632667 248.615117 
L 138.774054 248.637145 
L 138.945207 248.432602 
L 139.153567 248.229352 
L 139.406576 248.001129 
L 139.436341 248.052426 
L 139.555404 248.224414 
L 139.592611 248.157501 
L 139.815854 247.80859 
L 140.068863 247.575392 
L 140.41861 247.315262 
L 140.701384 247.126649 
L 140.954392 246.958072 
L 141.348788 246.629052 
L 141.371112 246.70182 
L 141.475292 246.86609 
L 141.497616 246.839609 
L 141.527382 246.821791 
L 141.594399 246.88315 
L 141.683652 246.982996 
L 141.735742 247.097342 
L 141.795273 246.979727 
L 142.226876 244.899503 
L 142.256642 245.015846 
L 142.293849 245.199316 
L 142.35338 244.90191 
L 142.50965 244.597636 
L 142.420353 244.927733 
L 142.539416 244.669141 
L 142.747776 245.084202 
L 142.762659 245.069947 
L 143.142172 244.7808 
L 143.938404 244.37659 
L 144.154206 244.100376 
L 144.370007 243.968866 
L 144.972762 243.373206 
L 145.181122 243.125564 
L 145.188564 243.13104 
L 145.337392 243.404074 
L 145.426689 243.242346 
L 145.620167 242.573585 
L 145.627608 242.581675 
L 145.664815 242.658154 
L 145.724347 242.544101 
L 146.059211 242.161003 
L 146.074094 242.141949 
L 146.126184 242.268863 
L 146.193156 242.282653 
L 146.215481 242.234167 
L 146.461048 241.609418 
L 146.617318 241.399527 
L 146.669408 241.429826 
L 146.84056 241.545913 
L 146.855443 241.514484 
L 147.011713 241.12699 
L 147.071245 241.175476 
L 147.130778 241.086372 
L 147.294487 241.028804 
L 147.41355 240.973127 
L 147.77818 240.619849 
L 147.919567 240.54257 
L 148.1949 240.382314 
L 148.7158 239.815557 
L 149.08043 239.589544 
L 149.318555 239.269851 
L 149.459942 239.231751 
L 149.7576 239.029793 
L 150.241292 238.682058 
L 150.896138 238.284019 
L 150.977993 238.155552 
L 151.022642 238.116478 
L 151.067291 238.188017 
L 151.119381 238.42697 
L 151.201236 238.318538 
L 151.238443 238.123321 
L 151.439362 236.924592 
L 151.506335 237.112261 
L 151.655163 237.435974 
L 151.670046 237.433264 
L 151.789109 237.738289 
L 151.841199 237.508502 
L 152.012352 236.268984 
L 152.049559 236.441187 
L 152.131415 236.406953 
L 152.205829 236.752171 
L 152.235594 236.793324 
L 152.272802 236.611641 
L 152.31745 236.63645 
L 152.451396 236.486381 
L 152.667197 236.368724 
L 153.04671 234.986531 
L 153.128566 235.234991 
L 153.269953 235.364803 
L 153.292277 235.350639 
L 153.537844 235.21926 
L 153.560168 235.292867 
L 153.575051 235.331816 
L 153.6197 235.149928 
L 153.790853 234.652309 
L 153.813177 234.682509 
L 153.969447 234.774184 
L 154.08851 234.766264 
L 154.095951 234.757455 
L 154.267104 234.325001 
L 154.289428 234.252183 
L 154.356401 234.436197 
L 154.430815 234.278348 
L 154.639175 234.044951 
L 154.862418 233.862619 
L 155.368435 233.118452 
L 155.420525 233.184683 
L 155.532146 233.072229 
L 155.986073 232.300966 
L 156.49209 232.090229 
L 157.42971 230.990454 
L 157.556214 230.91661 
L 158.129219 230.221151 
L 158.144087 230.245191 
L 158.166411 230.265634 
L 158.225943 230.181062 
L 158.233384 230.178537 
L 158.337564 230.080932 
L 158.516158 229.960779 
L 158.531041 229.973881 
L 158.57569 229.990593 
L 158.605455 229.901032 
L 158.739401 229.845832 
L 159.163562 229.582913 
L 159.237977 229.504846 
L 159.327274 229.404666 
L 159.379364 229.461863 
L 159.580282 229.387153 
L 159.781201 228.912214 
L 159.848174 228.840768 
L 159.877939 228.909538 
L 159.937471 229.849574 
L 160.026768 229.352286 
L 160.279776 226.702513 
L 160.29466 226.568328 
L 160.346749 227.197341 
L 160.555109 228.285961 
L 160.674172 227.98763 
L 160.897415 227.168954 
L 160.904856 227.173802 
L 160.956946 227.219557 
L 161.009036 227.142999 
L 161.13554 227.030515 
L 161.284369 226.88895 
L 161.96898 226.681013 
L 162.251754 226.092507 
L 162.288961 226.164014 
L 162.318727 226.201407 
L 162.393141 226.127821 
L 162.564294 226.213731 
L 162.601501 226.127368 
L 162.824744 225.867404 
L 162.914041 225.910628 
L 162.921483 225.918336 
L 163.047987 225.924884 
L 163.055428 225.91862 
L 163.390292 225.578553 
L 163.516797 225.312119 
L 163.725157 224.797834 
L 163.911192 224.467921 
L 163.918634 224.472981 
L 164.067462 224.539894 
L 164.082345 224.52085 
L 164.402326 224.017173 
L 164.655335 223.894787 
L 164.722308 223.808914 
L 164.752073 223.908413 
L 164.789281 224.053635 
L 164.886019 224.026512 
L 164.952992 224.076861 
L 165.005082 224.033501 
L 165.592955 223.165647 
L 165.607837 223.182186 
L 165.719459 223.248791 
L 165.749225 223.222885 
L 166.515691 222.706487 
L 166.7687 222.535535 
L 167.207744 222.30452 
L 167.356573 222.146964 
L 167.378897 222.158905 
L 167.423545 222.181013 
L 167.468194 222.102152 
L 167.780734 221.743846 
L 167.937004 221.70905 
L 168.12304 221.63473 
L 168.130481 221.641585 
L 168.383489 221.894689 
L 168.405814 221.854849 
L 168.777885 221.123655 
L 168.874624 221.221957 
L 168.993686 221.140149 
L 169.075542 220.989853 
L 169.276461 220.350016 
L 169.298785 220.243679 
L 169.388082 220.344538 
L 169.566676 220.792702 
L 169.648532 220.560388 
L 170.16199 219.321997 
L 170.37035 219.215265 
L 170.392675 219.287894 
L 170.511737 219.418378 
L 170.52662 219.379667 
L 170.668007 219.160788 
L 170.68289 219.171725 
L 170.697773 219.182614 
L 170.727539 219.076838 
L 170.861484 218.970276 
L 171.166583 219.099681 
L 171.196349 219.039582 
L 171.337736 218.858489 
L 171.575861 218.23955 
L 171.732131 218.133635 
L 171.82887 218.141427 
L 171.851194 218.077255 
L 171.955374 217.981216 
L 171.977698 218.026732 
L 172.208383 218.421936 
L 172.230707 218.406964 
L 172.647427 217.793199 
L 172.684634 217.902636 
L 172.699517 217.924617 
L 172.744165 217.781278 
L 172.788814 217.597906 
L 172.863228 217.711554 
L 172.878111 217.714163 
L 172.907877 217.618282 
L 172.937642 217.57588 
L 172.989732 217.665302 
L 173.004615 217.662178 
L 173.317155 217.522692 
L 173.503191 216.98171 
L 173.778524 216.916869 
L 173.942235 216.863205 
L 174.016649 216.715564 
L 174.135712 216.558224 
L 174.165478 216.603504 
L 174.344072 216.796435 
L 174.366396 216.752233 
L 174.59708 216.136368 
L 174.604522 216.138004 
L 174.775675 215.87112 
L 174.797999 215.857576 
L 174.842647 215.959033 
L 175.006359 216.138933 
L 175.021242 216.113062 
L 175.192395 215.48878 
L 175.244485 215.720014 
L 175.27425 216.012806 
L 175.32634 215.306105 
L 175.512376 214.862099 
L 175.527259 214.863233 
L 175.549583 214.946165 
L 175.579349 215.050704 
L 175.63888 214.859831 
L 175.646322 214.855048 
L 175.676087 214.96346 
L 175.69097 214.979214 
L 175.720736 214.794345 
L 175.884447 214.425595 
L 175.921654 214.477285 
L 175.95142 214.34396 
L 176.092807 214.024616 
L 176.122573 214.038629 
L 176.152339 214.03434 
L 176.174663 214.126422 
L 176.308608 214.414509 
L 176.330933 214.32548 
L 176.561617 213.139887 
L 176.591383 213.168194 
L 176.62859 213.005733 
L 176.658356 213.278141 
L 176.78486 213.915132 
L 176.799743 213.889764 
L 177.231345 213.203497 
L 177.618299 212.886388 
L 177.677831 212.946914 
L 177.744804 212.86654 
L 177.886191 212.690963 
L 178.042461 212.594452 
L 178.637775 212.119158 
L 178.764279 212.080327 
L 178.98008 212.0594 
L 179.106585 212.031903 
L 179.218206 211.903154 
L 179.389359 211.740895 
L 179.567953 211.521979 
L 179.820962 211.24009 
L 179.828403 211.24406 
L 179.858169 211.282076 
L 179.887935 211.166474 
L 179.9177 211.04033 
L 179.977232 211.238126 
L 179.984673 211.232435 
L 180.140943 211.107663 
L 180.163267 211.129765 
L 180.237682 211.339381 
L 180.341862 211.226033 
L 180.535341 210.999219 
L 180.713933 210.941409 
L 180.75114 210.953319 
L 180.795789 210.86561 
L 180.922293 210.591476 
L 181.257157 210.057693 
L 181.286923 210.099161 
L 181.309247 210.115951 
L 181.361337 210.019782 
L 181.696201 209.676276 
L 181.859912 209.311089 
L 181.904561 209.331048 
L 182.05339 209.047681 
L 182.120362 209.104919 
L 182.187335 209.204363 
L 182.343605 209.314998 
L 182.447785 209.293712 
L 182.403137 209.237931 
L 182.455227 209.285136 
L 182.611497 209.232755 
L 182.723118 209.123731 
L 183.229135 208.586677 
L 183.549116 208.520837 
L 184.985312 207.305167 
L 185.126699 207.170125 
L 185.149023 207.201438 
L 185.282969 207.255722 
L 185.29041 207.252424 
L 185.699688 206.91259 
L 186.041994 206.674044 
L 186.548011 206.315963 
L 186.793578 206.100084 
L 187.560045 205.535173 
L 187.604697 205.620981 
L 187.656784 205.507154 
L 187.820495 205.375622 
L 187.827936 205.38087 
L 187.991648 205.373277 
L 188.066062 205.194374 
L 188.281863 205.037886 
L 188.378602 204.872908 
L 188.586962 204.462399 
L 188.594403 204.470151 
L 188.743232 204.567055 
L 188.862295 204.640392 
L 188.966475 204.691286 
L 188.914385 204.58543 
L 188.973916 204.688049 
L 189.271573 204.108494 
L 190.127337 203.392526 
L 190.320814 203.173639 
L 190.358021 203.230052 
L 190.40267 203.115254 
L 190.633354 202.93066 
L 190.811948 202.854026 
L 191.18402 202.562822 
L 191.198902 202.596077 
L 191.332848 202.992917 
L 191.362614 202.754055 
L 191.675154 200.370056 
L 191.690037 200.397071 
L 191.779334 200.941498 
L 191.935604 200.782235 
L 192.069549 200.597792 
L 192.076991 200.599943 
L 192.151405 200.716114 
L 192.218378 200.621962 
L 192.270468 200.449888 
L 192.396972 200.181333 
L 192.426738 200.197872 
L 192.456503 200.180893 
L 192.486269 200.110573 
L 192.746719 199.811698 
L 192.91043 199.792697 
L 192.917872 199.775845 
L 193.185763 199.352838 
L 193.267619 199.14682 
L 193.528113 198.308582 
L 193.565276 198.419456 
L 193.721546 199.026352 
L 193.758753 198.978171 
L 194.048969 198.179572 
L 194.145707 198.244702 
L 194.949381 197.531636 
L 195.135417 197.239968 
L 195.485164 196.88056 
L 195.767938 196.707501 
L 196.214424 196.475995 
L 196.459991 196.1337 
L 196.951125 195.650615 
L 197.129719 195.452676 
L 197.152043 195.478563 
L 197.323196 195.430561 
L 197.591088 195.28776 
L 197.963159 194.866796 
L 198.111987 194.656953 
L 198.119429 194.659613 
L 198.223609 194.677779 
L 198.245933 194.633969 
L 198.38732 194.515416 
L 198.402203 194.526773 
L 198.521266 194.501497 
L 198.684977 194.308934 
L 199.11658 193.945702 
L 199.131463 193.968839 
L 199.295174 194.180039 
L 199.317499 194.147037 
L 199.540741 193.475836 
L 199.577948 193.806117 
L 199.607714 194.060251 
L 199.659804 193.397495 
L 199.890488 193.033865 
L 199.68957 193.415438 
L 199.912813 193.063136 
L 199.935137 193.090562 
L 199.987227 192.985218 
L 200.00211 192.968325 
L 200.031875 193.101903 
L 200.069083 193.237212 
L 200.150938 193.152036 
L 200.31465 193.015901 
L 200.515568 192.666497 
L 200.537892 192.704828 
L 200.567658 192.519622 
L 200.701604 192.294397 
L 201.073675 191.479155 
L 200.761135 192.388739 
L 201.110882 191.541737 
L 201.133207 191.573051 
L 201.177855 191.42605 
L 201.192738 191.42786 
L 201.215062 191.508742 
L 201.237386 191.566165 
L 201.326684 191.502016 
L 201.393656 191.390731 
L 201.505278 191.259699 
L 201.520161 191.288076 
L 201.564809 191.443795 
L 201.624341 191.254667 
L 201.639224 191.25941 
L 201.661548 191.33732 
L 201.713638 191.443835 
L 201.765728 191.323935 
L 202.442898 190.861254 
L 202.576843 190.688081 
L 202.591726 190.717862 
L 202.747996 190.876694 
L 202.807527 190.676568 
L 203.015887 190.296526 
L 203.03077 190.312832 
L 203.075419 190.414915 
L 203.142392 190.320207 
L 203.231689 189.976506 
L 203.335869 189.439683 
L 203.402842 189.668875 
L 203.462373 189.987359 
L 203.559111 189.966522 
L 203.60376 189.832354 
L 204.042804 188.819896 
L 204.132101 188.713231 
L 204.18419 188.814603 
L 204.206516 188.840149 
L 204.251164 188.726849 
L 204.266047 188.737256 
L 204.28093 188.744928 
L 204.310696 188.669233 
L 204.459524 188.447569 
L 204.630677 188.24066 
L 204.965541 187.715107 
L 205.06228 187.577292 
L 205.181342 187.386179 
L 205.203667 187.434001 
L 205.315288 187.591888 
L 205.345054 187.539878 
L 205.880836 185.996363 
L 205.925485 186.099893 
L 205.940368 186.116946 
L 205.977575 186.009832 
L 206.022224 185.827815 
L 206.066872 186.08832 
L 206.089196 186.218305 
L 206.141286 185.973283 
L 206.171052 186.03465 
L 206.185935 186.026625 
L 206.208259 185.934096 
L 206.357088 185.721994 
L 206.371971 185.746387 
L 206.491033 185.91746 
L 206.528241 185.880696 
L 206.572889 185.930968 
L 206.610096 185.810369 
L 206.677069 185.67341 
L 206.84078 185.575852 
L 206.729159 185.770263 
L 206.848222 185.588139 
L 206.907753 185.724641 
L 206.959843 185.590981 
L 206.99705 185.535444 
L 207.041699 185.66764 
L 207.071465 185.704181 
L 207.145879 185.632652 
L 207.20541 185.630837 
L 207.227735 185.554281 
L 207.376563 185.288941 
L 207.391446 185.296144 
L 207.458419 185.327387 
L 207.495626 185.237745 
L 207.681662 184.851185 
L 207.860256 183.557378 
L 207.88258 183.829021 
L 207.890022 183.839943 
L 207.904904 183.67973 
L 208.053733 183.117154 
L 208.589516 181.940527 
L 208.596957 181.944852 
L 208.693696 181.967448 
L 208.656488 181.911747 
L 208.701137 181.949437 
L 208.835083 181.715983 
L 208.849966 181.754718 
L 208.879731 181.800884 
L 208.931821 181.683792 
L 208.939263 181.686743 
L 208.991353 181.71489 
L 209.036001 181.638498 
L 209.415514 181.219541 
L 209.49737 181.075249 
L 209.564342 181.135101 
L 209.661081 181.223972 
L 209.802468 181.357373 
L 209.824792 181.324419 
L 210.368017 180.527414 
L 210.382899 180.542225 
L 210.412665 180.549787 
L 210.472196 180.484428 
L 212.570679 179.005844 
L 212.6823 178.939108 
L 212.972516 178.763456 
L 213.448795 178.46756 
L 213.590154 178.357719 
L 214.45336 177.819241 
L 214.810548 177.589984 
L 215.524925 177.12607 
L 215.554691 177.122916 
L 215.591898 177.054054 
L 215.777933 176.831042 
L 215.792816 176.838271 
L 216.060708 176.867431 
L 216.789967 176.494663 
L 217.042976 176.1874 
L 217.258777 176.131723 
L 217.42993 176.099765 
L 217.712704 175.985754 
L 218.322901 175.579513 
L 218.434523 175.567436 
L 218.449405 175.539427 
L 218.583351 175.507897 
L 218.665207 175.416021 
L 218.739621 175.371437 
L 218.791711 175.414608 
L 219.029837 175.308576 
L 219.253079 175.112092 
L 220.079078 174.520131 
L 220.458591 174.31231 
L 220.696716 174.228301 
L 221.046463 174.110766 
L 221.433417 173.621521 
L 221.664102 173.543693 
L 221.81293 173.496985 
L 222.028731 173.360072 
L 222.06594 173.420377 
L 222.214767 173.248764 
L 222.415686 173.01065 
L 222.601721 172.999347 
L 222.69846 173.002157 
L 222.713343 173.018369 
L 222.85473 173.090539 
L 222.869613 173.062315 
L 223.048207 172.840618 
L 223.21936 172.789593 
L 223.479819 172.696113 
L 223.576548 172.735884 
L 223.621197 172.668496 
L 223.777467 172.401191 
L 223.970944 172.130775 
L 224.841591 171.499399 
L 225.243428 171.168603 
L 225.384815 171.165562 
L 225.392256 171.154823 
L 225.652706 170.842763 
L 225.965246 170.416598 
L 225.98757 170.558122 
L 226.099192 170.706281 
L 226.114075 170.678774 
L 226.14384 170.634611 
L 226.218254 170.709534 
L 226.262903 170.717001 
L 226.292669 170.654157 
L 226.426614 170.401244 
L 226.471285 170.455136 
L 226.590326 170.556283 
L 226.627533 170.490345 
L 226.917749 169.540302 
L 227.059136 169.260891 
L 227.193081 169.357846 
L 227.334468 169.354708 
L 227.632125 169.474511 
L 227.870251 169.211295 
L 228.093494 169.057416 
L 228.964141 168.245991 
L 229.306446 168.113856 
L 230.37057 167.407143 
L 230.467309 167.311921 
L 230.638462 167.252398 
L 231.070064 167.108472 
L 232.937862 166.114749 
L 233.495969 165.86062 
L 233.949896 165.629698 
L 234.96193 165.140427 
L 236.658576 164.42452 
L 236.859494 164.330847 
L 238.518932 163.341482 
L 238.771941 163.164311 
L 239.39702 163.015811 
L 239.664912 162.750578 
L 239.702119 162.824167 
L 239.828623 162.775449 
L 243.534453 160.456221 
L 243.995822 160.175191 
L 245.49899 159.45208 
L 245.774323 158.767985 
L 245.818971 158.782987 
L 246.22825 158.766223 
L 246.414285 158.734554 
L 246.659852 158.590834 
L 247.381671 157.545407 
L 247.396554 157.562518 
L 247.515616 157.562376 
L 248.133255 157.324935 
L 248.378822 157.171765 
L 249.018785 156.687655 
L 249.20482 156.573386 
L 250.19453 156.036097 
L 250.834494 155.612377 
L 256.556949 152.604161 
L 256.705778 152.536428 
L 256.772751 152.425563 
L 256.824841 152.520084 
L 256.847165 152.525962 
L 256.891814 152.431615 
L 257.010876 152.31059 
L 257.055525 152.334891 
L 257.115056 152.327416 
L 257.152264 152.268596 
L 257.412713 152.071142 
L 257.993145 151.791535 
L 258.194063 151.6767 
L 258.707522 151.377781 
L 258.774494 151.309778 
L 258.826584 151.338074 
L 258.938206 151.187246 
L 259.027503 151.163179 
L 259.06471 151.219591 
L 259.1168 151.227763 
L 259.16889 151.183722 
L 259.548403 150.909465 
L 259.89815 150.5612 
L 260.180924 150.369921 
L 261.721299 149.284596 
L 261.892452 149.10819 
L 262.093371 148.989631 
L 262.338938 148.81299 
L 263.276557 148.27469 
L 263.537007 148.08345 
L 264.214177 147.655328 
L 265.159238 147.09889 
L 269.676184 144.558733 
L 271.447243 143.607592 
L 271.648162 143.50487 
L 271.878846 143.344074 
L 272.407187 143.066536 
L 273.93268 142.30214 
L 273.962445 142.305016 
L 274.007094 142.232761 
L 274.29731 141.983659 
L 274.542877 141.82987 
L 274.833092 141.699152 
L 274.959597 141.596068 
L 275.205164 141.457903 
L 278.062671 139.886649 
L 278.256148 139.816565 
L 278.449626 139.746309 
L 278.814255 139.50878 
L 279.461659 139.146501 
L 281.50061 138.115562 
L 283.777687 137.24303 
L 284.283704 137.017431 
L 284.834369 136.803292 
L 285.340386 136.595464 
L 285.734782 136.386495 
L 285.913376 136.282765 
L 286.419393 136.038221 
L 287.4984 135.695811 
L 287.662111 135.609144 
L 287.944885 135.415817 
L 288.257425 135.315226 
L 289.113189 134.860536 
L 290.958663 134.174948 
L 291.472121 133.910456 
L 291.747454 133.875055 
L 292.14185 133.721354 
L 293.220857 133.236849 
L 293.801288 132.861079 
L 294.136152 132.901225 
L 295.959302 131.87742 
L 296.435553 131.644025 
L 299.962789 129.928884 
L 300.85576 129.481017 
L 310.551938 125.224007 
L 311.169577 124.98241 
L 318.49194 122.219288 
L 318.611003 122.171227 
L 318.945867 121.954963 
L 319.53374 121.849045 
L 319.890928 121.454769 
L 320.024874 121.611257 
L 320.069523 121.628305 
L 320.10673 121.557341 
L 320.300207 121.342647 
L 320.41927 121.255351 
L 320.553215 121.266923 
L 320.62763 121.297569 
L 320.672278 121.235037 
L 320.962494 121.048521 
L 321.081557 121.065958 
L 321.103881 121.020909 
L 321.222944 120.958936 
L 321.252709 120.982058 
L 321.423862 120.965319 
L 321.572691 120.65232 
L 321.751285 120.575053 
L 322.071266 120.541598 
L 322.301951 120.355655 
L 322.584746 120.311869 
L 322.733553 120.247443 
L 323.060976 120.062804 
L 323.596759 119.796977 
L 324.288811 119.353952 
L 324.482288 119.388776 
L 324.779945 119.32211 
L 324.95854 119.315519 
L 325.174341 119.009521 
L 325.442232 118.703531 
L 325.702682 118.498157 
L 326.052429 118.228413 
L 326.729599 117.940438 
L 328.5081 116.914356 
L 330.837266 115.747862 
L 334.424034 114.135223 
L 336.507633 113.398314 
L 336.730876 113.246869 
L 336.969002 113.156716 
L 337.214569 113.088566 
L 337.668496 112.861686 
L 338.509377 112.390361 
L 339.51397 111.977491 
L 339.685122 112.061273 
L 339.789302 112.073469 
L 339.811627 112.046925 
L 340.153932 111.651925 
L 341.768722 110.778645 
L 342.505423 110.450188 
L 343.294214 110.050079 
L 343.487691 110.110307 
L 343.510015 110.062746 
L 344.030915 109.420605 
L 344.447635 109.39748 
L 344.559257 109.389784 
L 344.566698 109.382036 
L 344.879238 108.921303 
L 344.931328 109.025322 
L 344.968535 109.034766 
L 344.998301 108.956247 
L 345.281075 108.402853 
L 345.288516 108.405771 
L 345.348048 108.561044 
L 345.526642 108.799696 
L 345.921038 108.49563 
L 346.270785 108.536322 
L 346.61309 107.978184 
L 346.955396 107.761398 
L 347.148873 107.746252 
L 347.275377 107.782796 
L 347.766511 107.510578 
L 348.079051 107.173474 
L 348.577627 107.133871 
L 348.778545 107.364762 
L 348.785987 107.358317 
L 348.897608 107.066114 
L 349.046437 106.636126 
L 349.091085 106.669922 
L 349.180382 106.696005 
L 349.202707 106.655991 
L 349.254796 106.481928 
L 349.344094 106.545909 
L 349.425949 106.520528 
L 349.388742 106.516157 
L 349.433391 106.50688 
L 349.716165 106.088918 
L 350.341245 105.737179 
L 350.363569 105.791867 
L 350.393335 105.827405 
L 350.475189 105.789584 
L 350.676109 105.48573 
L 350.951442 105.27348 
L 351.420252 105.037179 
L 351.807206 104.640091 
L 352.030448 104.835637 
L 352.08998 104.83672 
L 352.127187 104.774032 
L 352.372754 104.643717 
L 352.573673 104.540367 
L 352.804357 104.296911 
L 353.042482 104.209138 
L 353.474085 103.712095 
L 353.920571 103.945842 
L 353.935454 103.918556 
L 354.054516 103.750059 
L 354.247994 103.481323 
L 354.419146 103.43101 
L 354.471236 103.412467 
L 354.501002 103.363946 
L 355.029343 102.898159 
L 355.364207 102.729121 
L 355.498153 102.673763 
L 355.513036 102.690114 
L 355.557685 102.739222 
L 355.602333 102.627021 
L 355.713955 102.518093 
L 355.736279 102.547925 
L 355.810693 102.566503 
L 355.833017 102.507439 
L 355.914873 102.421829 
L 355.966963 102.443515 
L 356.182764 102.341298 
L 356.547394 102.154945 
L 356.57716 102.212548 
L 356.852493 102.517071 
L 356.904583 102.4762 
L 356.949231 102.566839 
L 357.165033 103.277879 
L 357.20224 103.144609 
L 357.351068 100.947859 
L 357.604077 95.465301 
L 357.678491 96.222385 
L 357.730581 96.975156 
L 357.916617 98.616437 
L 357.976148 98.459849 
L 358.124977 98.055474 
L 358.199391 98.11074 
L 358.296129 98.2964 
L 358.474724 98.654313 
L 358.482165 98.652085 
L 358.593786 98.500659 
L 359.345371 96.677613 
L 359.538848 96.348505 
L 359.903477 96.007728 
L 360.580647 95.785717 
L 361.138754 95.611549 
L 361.644771 95.292283 
L 361.942428 95.099453 
L 362.135905 94.98792 
L 362.254968 94.923744 
L 362.865165 94.652608 
L 362.924697 94.627068 
L 362.947021 94.593151 
L 363.088408 94.564856 
L 363.467921 94.334482 
L 363.698605 94.172118 
L 364.152532 93.944454 
L 364.487396 93.813352 
L 364.747846 93.756762 
L 365.469664 93.356506 
L 366.883535 92.725043 
L 367.367228 92.38889 
L 368.252758 92.257342 
L 368.565298 92.227772 
L 368.929928 92.041732 
L 369.316882 90.869066 
L 369.376413 91.075558 
L 369.421062 91.124364 
L 369.480593 91.040826 
L 369.562449 91.116924 
L 369.72616 91.176008 
L 369.837782 91.131345 
L 370.016376 91.128828 
L 370.232177 91.190997 
L 370.522393 90.995353 
L 370.805167 90.414222 
L 370.931671 90.087221 
L 371.0805 89.572086 
L 371.140031 89.708417 
L 371.296301 89.894324 
L 371.326067 89.873598 
L 371.727904 89.793102 
L 371.817201 89.818682 
L 371.854408 89.753403 
L 372.010678 89.706842 
L 372.271128 89.664762 
L 372.367867 89.513148 
L 372.911091 88.402177 
L 372.933415 88.337541 
L 373.000388 88.479046 
L 373.022712 88.501737 
L 373.074802 88.400114 
L 373.104568 88.371536 
L 373.156658 88.470226 
L 373.312928 88.534413 
L 373.469198 88.529291 
L 374.250547 88.187906 
L 374.57797 87.949999 
L 375.04678 87.640219 
L 375.612328 86.173824 
L 375.656977 86.230934 
L 375.976958 86.517035 
L 376.066255 86.398756 
L 376.24485 85.904839 
L 376.311822 85.673458 
L 376.378795 85.757229 
L 376.579714 86.089747 
L 376.758308 86.27071 
L 376.788074 86.248031 
L 377.070848 86.092586 
L 377.695928 85.575452 
L 378.008468 84.972679 
L 378.090323 84.873847 
L 378.469836 84.175187 
L 378.521926 84.257825 
L 378.879114 84.844548 
L 378.998177 84.954762 
L 379.042826 84.92347 
L 379.22142 84.635815 
L 379.630699 83.54437 
L 379.653023 83.578493 
L 379.809293 83.677913 
L 380.017653 83.728271 
L 380.248337 83.819458 
L 380.642733 83.752417 
L 380.925507 83.514211 
L 381.059452 83.419565 
L 381.572911 82.477694 
L 381.691974 82.060108 
L 381.751505 82.186998 
L 381.907775 82.277193 
L 382.071486 82.418547 
L 382.235198 82.439409 
L 382.637035 82.268567 
L 382.860278 81.990426 
L 383.128169 81.721432 
L 383.50024 81.295052 
L 383.768132 81.367633 
L 384.192293 81.624006 
L 384.207176 81.60208 
L 384.623896 80.748667 
L 384.742958 80.458333 
L 384.832256 80.527279 
L 385.278741 80.653822 
L 385.58384 80.501231 
L 385.762434 80.619737 
L 385.814524 80.488956 
L 386.320542 79.952094 
L 386.558666 79.773934 
L 386.677729 79.554504 
L 386.722378 79.594615 
L 386.997711 79.877727 
L 387.005152 79.868925 
L 387.139098 79.417644 
L 387.630232 78.122296 
L 387.652556 78.196138 
L 387.816267 78.370902 
L 388.151132 78.572398 
L 388.270194 78.838982 
L 388.329726 78.728444 
L 388.798536 77.470266 
L 388.887833 76.72776 
L 388.947364 76.79509 
L 389.02922 76.837129 
L 389.058986 76.761169 
L 389.163166 76.572414 
L 389.207814 76.594201 
L 389.326877 76.690933 
L 389.349201 76.621646 
L 389.825453 75.340131 
L 389.840335 75.348732 
L 389.855218 75.400726 
L 390.056137 75.956233 
L 390.12311 76.071812 
L 390.160317 75.950013 
L 390.405884 75.177925 
L 390.450532 75.250417 
L 390.532388 75.256058 
L 390.554712 75.223676 
L 390.696099 75.069525 
L 390.703541 75.091986 
L 390.822604 75.193025 
L 390.792838 75.060078 
L 390.830045 75.173045 
L 391.395593 73.80017 
L 391.410476 73.849396 
L 391.455125 73.874291 
L 391.484891 73.77913 
L 391.492332 73.793385 
L 391.633719 73.644245 
L 392.444835 72.903995 
L 392.4746 73.002488 
L 392.496925 73.022457 
L 392.549015 72.908773 
L 392.556456 72.912305 
L 392.571339 72.934501 
L 392.623429 72.821063 
L 392.824347 72.720261 
L 392.831792 72.726104 
L 392.83923 72.739002 
L 392.868997 72.663088 
L 392.928527 72.673531 
L 393.122004 72.471557 
L 393.30804 72.319513 
L 394.096831 71.656475 
L 394.275425 71.671485 
L 394.468903 71.280388 
L 394.520998 71.330956 
L 394.498668 71.258669 
L 394.5582 71.22827 
L 395.041892 70.877424 
L 395.056775 70.910154 
L 395.071658 70.919835 
L 395.131189 70.832112 
L 395.57768 70.503206 
L 395.629765 70.520919 
L 395.644649 70.447966 
L 395.748828 70.269171 
L 395.704179 70.50373 
L 395.763711 70.347254 
L 395.793476 70.44821 
L 395.830684 70.163232 
L 395.986953 69.235043 
L 396.009282 69.345408 
L 396.024161 69.431905 
L 396.046485 69.016729 
L 396.522736 55.183872 
L 396.626916 53.568 
L 396.679006 54.550613 
L 396.693889 54.978227 
L 396.775745 54.194326 
L 396.798069 54.005293 
L 396.8576 54.531421 
L 396.902249 54.968411 
L 396.96178 54.535411 
L 397.073402 54.009775 
L 397.088285 54.293821 
L 397.17014 54.835756 
L 397.199908 54.548681 
L 397.289203 54.641448 
L 397.348735 54.0923 
L 397.564536 54.597564 
L 397.58686 54.487644 
L 397.616626 54.340467 
L 397.683599 54.534569 
L 397.698482 54.558457 
L 397.74313 54.400787 
L 397.758013 54.387455 
L 397.78778 54.528288 
L 397.891959 54.650133 
L 397.832427 54.502277 
L 397.921729 54.603729 
L 397.944049 54.603527 
L 397.966373 54.695701 
L 398.077994 54.796783 
L 398.033346 54.66593 
L 398.08544 54.787582 
L 398.122643 54.714138 
L 398.189616 54.808844 
L 398.375651 54.892616 
L 398.457507 54.792558 
L 398.487273 54.880705 
" clip-path="url(#pfa03938809)" style="fill: none; stroke: #1f77b4; stroke-width: 1.5; stroke-linecap: square"/>
   </g>
   <g id="patch_3">
    <path d="M 57.6 307.584 
L 57.6 41.472 
" style="fill: none; stroke: #000000; stroke-width: 0.8; stroke-linejoin: miter; stroke-linecap: square"/>
   </g>
   <g id="patch_4">
    <path d="M 414.72 307.584 
L 414.72 41.472 
" style="fill: none; stroke: #000000; stroke-width: 0.8; stroke-linejoin: miter; stroke-linecap: square"/>
   </g>
   <g id="patch_5">
    <path d="M 57.6 307.584 
L 414.72 307.584 
" style="fill: none; stroke: #000000; stroke-width: 0.8; stroke-linejoin: miter; stroke-linecap: square"/>
   </g>
   <g id="patch_6">
    <path d="M 57.6 41.472 
L 414.72 41.472 
" style="fill: none; stroke: #000000; stroke-width: 0.8; stroke-linejoin: miter; stroke-linecap: square"/>
   </g>
  </g>
 </g>
 <defs>
  <clipPath id="pfa03938809">
   <rect x="57.6" y="41.472" width="357.12" height="266.112"/>
  </clipPath>
 </defs>
</svg>
